<?xml version="1.0" encoding="UTF-8" standalone="no"?>
<svg
   xmlns:dc="http://purl.org/dc/elements/1.1/"
   xmlns:cc="http://creativecommons.org/ns#"
   xmlns:rdf="http://www.w3.org/1999/02/22-rdf-syntax-ns#"
   xmlns:svg="http://www.w3.org/2000/svg"
   xmlns="http://www.w3.org/2000/svg"
   xmlns:sodipodi="http://sodipodi.sourceforge.net/DTD/sodipodi-0.dtd"
   xmlns:inkscape="http://www.inkscape.org/namespaces/inkscape"
   version="1.1"
   width="606.44629"
   height="245.25398"
   id="svg2"
   xml:space="preserve"
   sodipodi:docname="dwengo-groen-zwart.svg"
   inkscape:version="1.0.2 (e86c8708, 2021-01-15)"
   inkscape:export-filename="dwengo-groen-zwart.png"
   inkscape:export-xdpi="299.83612"
   inkscape:export-ydpi="299.83612"><sodipodi:namedview
     pagecolor="#ffffff"
     bordercolor="#666666"
     borderopacity="1"
     objecttolerance="10"
     gridtolerance="10"
     guidetolerance="10"
     inkscape:pageopacity="0"
     inkscape:pageshadow="2"
     inkscape:window-width="1440"
     inkscape:window-height="772"
     id="namedview871"
     showgrid="false"
     inkscape:zoom="0.46615912"
     inkscape:cx="452.72823"
     inkscape:cy="134.5979"
     inkscape:window-x="0"
     inkscape:window-y="25"
     inkscape:window-maximized="0"
     inkscape:current-layer="svg2"
     inkscape:document-rotation="0" /><metadata
     id="metadata8"><rdf:RDF><cc:Work
         rdf:about=""><dc:format>image/svg+xml</dc:format><dc:type
           rdf:resource="http://purl.org/dc/dcmitype/StillImage" /><dc:title /></cc:Work></rdf:RDF></metadata><defs
     id="defs6"><clipPath
       id="clipPath16"><path
         d="m 0,841.89 595.28,0 L 595.28,0 0,0 0,841.89 z"
         id="path18" /></clipPath><clipPath
       id="clipPath44"><path
         d="m 241.38,463.336 86.891,0 0,-93.699 -86.891,0 0,93.699 z"
         id="path46" /></clipPath><clipPath
       id="clipPath60"><path
         d="m 244.265,470.566 72.881,0 0,-106.484 -72.881,0 0,106.484 z"
         id="path62" /></clipPath></defs><path
     id="path38"
     style="fill:#000000;fill-opacity:1;fill-rule:nonzero;stroke:none;stroke-width:1.25"
     d="m 513.42701,80.31343 c -12.8075,-0.06125 -24.31125,8.19125 -28.29125,20.8225 -1.17125,3.7425 -1.25,4.97375 -1.25,21.72125 0,15.91875 0.1275,18.06 1.0775,20.83875 1.90375,5.53375 3.80125,8.64 7.68,12.51375 4.40625,4.415 10.15875,7.48375 15.48375,8.2575 4.64875,0.67625 5.1,0.67375 9.5575,0.0312 8.29625,-1.18125 17.6375,-7.72875 21.2775,-14.92625 3.3175,-6.53875 3.505,-8.02 3.505,-26.9975 0,-16.455 -0.075,-17.705 -1.2475,-21.43875 -3.405,-10.825 -12.86375,-18.99125 -23.78375,-20.52375 -1.345,-0.18375 -2.6825,-0.28875 -4.00875,-0.29875 m -0.47625,13.85 c 6.43625,-0.085 11.12375,2.7625 13.99625,8.50625 1.72375,3.45875 1.72125,3.46875 1.72125,19.905 0,16.43125 0.002,16.42625 -1.72125,19.885 -1.9675,3.94625 -4.6875,6.44625 -8.34875,7.69375 -4.1775,1.425 -8.3575,1.13 -12.37375,-0.875 -3.70125,-1.855 -5.5125,-3.79125 -7.35375,-7.85625 -1.06125,-2.34375 -1.1475,-3.66125 -1.16375,-18.8975 -0.0125,-16.38625 -0.008,-16.39625 1.76,-19.92625 2.7125,-5.4175 7.3925,-8.34625 13.48375,-8.435 m -58.21025,46.11643 c -1.82625,3.655 -4.8075,6.3425 -8.5475,7.7325 -0.99625,0.35875 -3.3475,0.67625 -5.22875,0.6975 -2.76625,0.0387 -4.11,-0.2875 -6.905,-1.6825 -3.69875,-1.855 -5.5125,-3.79375 -7.36125,-7.86125 -1.05625,-2.32125 -1.135,-3.6475 -1.135,-17.71875 0,-14.07375 0.0787,-15.38875 1.135,-17.72125 1.84875,-4.065 3.6625,-6.01875 7.36125,-7.87 2.44625,-1.225 3.78125,-1.63125 5.9325,-1.6925 0.305,-0.0063 0.6225,0 0.9725,0 6.38875,0.085 11.0225,2.91375 13.77625,8.435 1.7675,3.53 1.76,3.54 1.76,18.84875 0,15.3075 0.007,15.3 -1.76,18.8325 m 14.30875,-39.14375 c -4.055,-12.88375 -15.91,-20.91125 -28.26625,-20.855 -4.11625,0.0175 -8.27625,0.93125 -12.23125,2.86625 -7.5075,3.6775 -13.10375,10.1325 -15.58125,17.98875 -1.1675,3.71625 -1.25,5.0175 -1.25,20.31125 0,15.2975 0.0825,16.57875 1.25,20.295 5.315,16.8925 23.9625,25.5175 39.52125,18.26875 1.9675,-0.9175 3.68,-1.67 3.79625,-1.67 0.125,0 0.2125,1.60625 0.2125,3.57 0,6.7325 -3.9325,12.28 -10.45625,14.7725 -5.80625,2.215 -15.81,-0.16125 -19.17,-4.56 -2.81,-3.6925 -7.61,-3.7875 -10.6275,-0.19625 -1.0425,1.23625 -1.42375,2.36375 -1.42375,4.11625 0,6.12375 10.025,13.255 21.05,14.98625 12.095,1.89125 24.63125,-4.1925 30.735,-14.91 3.69875,-6.51875 3.68875,-6.42125 3.68875,-40.31 0,-30.12 -0.0213,-30.77875 -1.2475,-34.67375 M 368.06813,80.33293 c -11.27875,0.34 -22.31875,7.275 -27.05375,20.20375 -1.46125,4.0025 -1.4575,4.0075 -1.4575,31.4125 0,26.96375 0.02,27.44875 1.1775,29.01125 0.64625,0.88 1.79125,1.92625 2.53375,2.325 1.8025,0.96125 5.88875,0.515 7.37375,-0.81125 2.65625,-2.36 2.71375,-3.06625 2.73375,-30.44625 0.007,-24.68875 0.0688,-25.89375 1.1575,-28.30125 1.8425,-4.065 3.6575,-6.02 7.35875,-7.87 2.8,-1.4 4.145,-1.7275 6.90125,-1.69375 6.38875,0.08625 11.025,2.915 13.78,8.435 1.7675,3.53125 1.765,3.54125 1.765,29.37125 0,21.21875 0.13875,26.18375 0.8025,27.78375 2.44875,5.85375 10.945,5.32125 12.76625,-0.81125 0.395,-1.3275 0.5325,-10.89875 0.4,-28.2 -0.1825,-25.73875 -0.205,-26.25375 -1.49125,-29.85 -0.72,-2.01625 -1.83875,-4.5475 -2.48,-5.635 -6.18,-10.3825 -16.31125,-15.22125 -26.2675,-14.92375 m -261.03512,62.127 c -1.9675,3.945 -4.6825,6.45 -8.34,7.6925 -4.185,1.42625 -8.35875,1.13125 -12.375,-0.87375 -3.70125,-1.855 -5.515,-3.79125 -7.36125,-7.85625 -1.0575,-2.33875 -1.15,-3.6625 -1.155,-18.89875 -0.02125,-16.385 -0.01375,-16.39 1.75625,-19.925 2.71125,-5.4175 7.3925,-8.34625 13.48625,-8.43125 6.435,-0.09 11.1225,2.75875 13.98875,8.50125 1.72875,3.46 1.72875,3.47 1.72875,19.905 0,16.43125 0,16.43125 -1.72875,19.88625 m 15.26375,-87.37 c -0.855,-2.88625 -3.775,-4.35625 -6.6575,-4.33 -2.5375,0.025 -5.04375,1.22125 -6.0725,3.68 -0.6225,1.48125 -0.805,5.1025 -0.805,16.0175 0,7.755 -0.095,14.10125 -0.2175,14.10125 -0.12,0 -1.83125,-0.75625 -3.79875,-1.67625 -10.95,-5.09625 -24.1625,-2.48375 -32.5275,6.46375 -3.7475,4.00375 -5.59,7.1875 -7.19375,12.40625 -0.91125,2.9575 -1.045,5.48 -1.045,21.105 0,15.91875 0.12125,18.06 1.07375,20.8375 1.90625,5.535 3.79625,8.64 7.67875,12.515 4.40875,4.41375 10.15375,7.4825 15.485,8.25625 4.64625,0.67625 5.1025,0.675 9.56125,0.0325 10.67625,-1.52375 19.92875,-9.565 23.83,-20.7525 0.78875,-2.265 0.925,-7.83375 1.10625,-44.54875 0.14875,-29.865 0.0288,-42.585 -0.4175,-44.1075 m 19.22112,27.215625 c -4.05,0 -6.97,2.65375 -6.97,6.335 0,1.96875 20.6975,71.258745 22.03625,73.748745 0.3175,0.59125 1.36625,1.56 2.3625,2.1625 0.98375,0.60626 2.25125,1.11126 2.815,1.11126 1.53125,0 4.055,-1.48376 5.0125,-2.9375 0.47125,-0.71501 3.31125,-8.89625 6.31625,-18.1875 3.0075,-9.2875 5.76625,-17.56875 6.1125,-18.39125 0.625,-1.47625 0.625,-1.47625 1.22875,-0.28125 0.33625,0.66875 3.14,9.0475 6.235,18.62124 5.90375,18.28125 6.78,20.10001 10.1,20.92751 1.9,0.47874 4.97375,-0.86251 6.16,-2.68875 1.335,-2.05751 22.3025,-71.703755 22.3025,-74.085005 0,-3.68125 -2.93,-6.335 -6.96625,-6.335 -2.96875,0 -5.1825,2.18125 -6.46125,6.36875 -0.58875,1.91125 -3.93875,12.927505 -7.4325,24.466255 -3.49625,11.53875 -6.5325,20.9775 -6.76,20.9775 -0.215,0 -0.8275,-1.58 -1.3725,-3.51625 -0.53375,-1.93875 -1.15125,-3.77875 -1.36625,-4.08375 -0.22,-0.31 -2.42,-6.89125 -4.88125,-14.60875 -5.0675,-15.905005 -6.125,-17.780005 -10.105,-17.780005 -3.96625,0 -5.02875,1.875 -10.1,17.780005 -2.46,7.7175 -4.64375,14.29875 -4.8575,14.60875 -0.2175,0.305 -0.84,2.145 -1.375,4.08375 -0.535,1.93625 -1.1675,3.51625 -1.38875,3.51625 -0.22,0 -3.265,-9.43875 -6.76125,-20.9775 -3.48875,-11.53875 -6.82375,-22.555005 -7.40625,-24.466255 -1.285,-4.1875 -3.51625,-6.36875 -6.4775,-6.36875" /><path
     d="m 231.01738,90.719305 c -0.95,-3.78 1.405,-7.47875 5.2325,-8.22 l 90.97375,-17.61625 c 3.82625,-0.74125 6.12,1.73 5.09625,5.49125 l -26.38625,96.891245 c -1.025,3.76 -4.96625,7.57 -8.75875,8.46375 l -35.4025,8.3475 c -3.79375,0.8925 -7.67375,-1.4675 -8.62375,-5.2475 z"
     id="path74"
     style="fill:#78ca2a;fill-opacity:1;fill-rule:nonzero;stroke:none;stroke-width:1.25" /><path
     d="m 278.36601,80.38418 c -5.6225,-0.0375 -11.21875,1.5525 -16.035,4.77375 -5.7375,3.82375 -9.51,8.81 -11.95375,15.7525 -1.18375,3.36 -1.3075,4.79375 -1.52,18.63625 -0.135,9.43625 0.009,16.54125 0.41,19.15375 1.95,12.74625 12.81,23.47625 26.14,25.79875 3.4225,0.6025 9.60625,0.205 13.76,-0.8775 8.69875,-2.2575 17.02375,-9.38 17.02375,-14.53625 0,-1.8575 -2.9475,-5.1625 -5.29875,-5.935 -2.51125,-0.8275 -4.4475,-0.0312 -7.51375,3.07875 -3.20625,3.2525 -7.2875,4.79 -12.7275,4.79 -2.25875,0 -5.22875,-0.3975 -6.59875,-0.86625 -3.88875,-1.32375 -7.85625,-4.64125 -9.64875,-8.07625 -1.4475,-2.76375 -1.585,-3.525 -1.585,-9.11625 v -6.11125 l 20.14,-0.1725 c 18.335,-0.14875 20.285,-0.25625 21.6475,-1.185 2.325,-1.57375 3.28375,-4.72375 3.27625,-10.67875 -0.0112,-8.23 -0.85125,-12.5075 -3.36625,-17.5825 -2.7025,-5.4625 -5.69625,-9.04875 -9.93875,-11.86375 -4.95125,-3.285 -10.59375,-4.94375 -16.21125,-4.9825 m -0.0538,13.765 c 8.775,0 14.82,5.64875 15.37875,14.3975 l 0.26625,4.17125 h -15.645 -15.6325 l 0.26375,-4.17125 c 0.56125,-8.74875 6.585,-14.3975 15.36875,-14.3975"
     id="path78"
     style="fill:#ffffff;fill-opacity:1;fill-rule:nonzero;stroke:none;stroke-width:1.25" /></svg>
