<?xml version="1.0" encoding="UTF-8" standalone="no"?>
<svg
   xmlns:dc="http://purl.org/dc/elements/1.1/"
   xmlns:cc="http://creativecommons.org/ns#"
   xmlns:rdf="http://www.w3.org/1999/02/22-rdf-syntax-ns#"
   xmlns:svg="http://www.w3.org/2000/svg"
   xmlns="http://www.w3.org/2000/svg"
   xmlns:sodipodi="http://sodipodi.sourceforge.net/DTD/sodipodi-0.dtd"
   xmlns:inkscape="http://www.inkscape.org/namespaces/inkscape"
   height="512px"
   id="Layer_1"
   style="enable-background:new 0 0 512 512;"
   version="1.1"
   viewBox="0 0 512 512"
   width="512px"
   xml:space="preserve"
   inkscape:version="0.91 r13725"
   sodipodi:docname="icon-minus.svg"><metadata
     id="metadata9"><rdf:RDF><cc:Work
         rdf:about=""><dc:format>image/svg+xml</dc:format><dc:type
           rdf:resource="http://purl.org/dc/dcmitype/StillImage" /><dc:title></dc:title></cc:Work></rdf:RDF></metadata><defs
     id="defs7" /><sodipodi:namedview
     pagecolor="#ffffff"
     bordercolor="#666666"
     borderopacity="1"
     objecttolerance="10"
     gridtolerance="10"
     guidetolerance="10"
     inkscape:pageopacity="0"
     inkscape:pageshadow="2"
     inkscape:window-width="1391"
     inkscape:window-height="876"
     id="namedview5"
     showgrid="false"
     inkscape:zoom="1.84375"
     inkscape:cx="222.35379"
     inkscape:cy="316.87349"
     inkscape:window-x="49"
     inkscape:window-y="24"
     inkscape:window-maximized="1"
     inkscape:current-layer="Layer_1" /><path
     d="M417.4,224H94.6C77.7,224,64,238.3,64,256c0,17.7,13.7,32,30.6,32h322.8c16.9,0,30.6-14.3,30.6-32  C448,238.3,434.3,224,417.4,224z"
     id="path3"
     style="stroke:#ececec;stroke-opacity:1" /><path
     style="fill:#808080;fill-opacity:1;stroke:none;stroke-width:0;stroke-miterlimit:4;stroke-dasharray:none;stroke-opacity:1"
     d="m 80.051088,281.68783 c -19.310712,-11.77443 -17.864081,-43.38102 2.426236,-53.0094 6.54729,-3.1069 25.442006,-3.48433 174.067496,-3.4771 162.53683,0.008 166.90051,0.11635 173.79365,4.31915 19.54623,11.91749 20.80896,40.72723 2.28023,52.02391 -7.04089,4.2927 -10.49247,4.37837 -176.40175,4.37837 -164.01607,0 -169.433946,-0.13023 -176.165862,-4.23493 z"
     id="path4137"
     inkscape:connector-curvature="0" /></svg>