<?xml version="1.0" encoding="UTF-8" standalone="no"?>
<svg
   xmlns:dc="http://purl.org/dc/elements/1.1/"
   xmlns:cc="http://creativecommons.org/ns#"
   xmlns:rdf="http://www.w3.org/1999/02/22-rdf-syntax-ns#"
   xmlns:svg="http://www.w3.org/2000/svg"
   xmlns="http://www.w3.org/2000/svg"
   xmlns:sodipodi="http://sodipodi.sourceforge.net/DTD/sodipodi-0.dtd"
   xmlns:inkscape="http://www.inkscape.org/namespaces/inkscape"
   viewBox="0 0 232.36 306.85"
   version="1.1"
   id="svg39"
   sodipodi:docname="background3.svg"
   width="232.36"
   height="306.85001"
   inkscape:version="0.92.4 (unknown)">
  <metadata
     id="metadata43">
    <rdf:RDF>
      <cc:Work
         rdf:about="">
        <dc:format>image/svg+xml</dc:format>
        <dc:type
           rdf:resource="http://purl.org/dc/dcmitype/StillImage" />
        <dc:title>M005_Robots</dc:title>
      </cc:Work>
    </rdf:RDF>
  </metadata>
  <sodipodi:namedview
     pagecolor="#ffffff"
     bordercolor="#666666"
     borderopacity="1"
     objecttolerance="10"
     gridtolerance="10"
     guidetolerance="10"
     inkscape:pageopacity="0"
     inkscape:pageshadow="2"
     inkscape:window-width="1853"
     inkscape:window-height="1025"
     id="namedview41"
     showgrid="false"
     inkscape:zoom="1.4353048"
     inkscape:cx="160.68692"
     inkscape:cy="67.869333"
     inkscape:window-x="67"
     inkscape:window-y="27"
     inkscape:window-maximized="1"
     inkscape:current-layer="svg39" />
  <defs
     id="defs4">
    <style
       id="style2">.cls-1{fill:#fab63c;}.cls-2{opacity:0.8;}.cls-3,.cls-5,.cls-6{fill:#d02625;}.cls-4{fill:#0a6d61;}.cls-5{opacity:0.4;}.cls-6{opacity:0.6;}.cls-7{fill:#88bd28;}.cls-8,.cls-9{fill:none;stroke-linecap:round;stroke-miterlimit:10;}.cls-8{stroke:#4a9234;stroke-width:1.29px;}.cls-9{stroke:#0e6942;stroke-width:3.86px;}</style>
  </defs>
  <title
     id="title6">M005_Robots</title>
  <g
     id="Pot"
     transform="translate(9.7540256,-9.99978)">
    <ellipse
       class="cls-1"
       cx="106.37"
       cy="129.06"
       rx="88.040001"
       ry="16.040001"
       id="ellipse8"
       style="fill:#fab63c" />
    <g
       class="cls-2"
       id="g12"
       style="opacity:0.8">
      <ellipse
         class="cls-3"
         cx="106.37"
         cy="129.06"
         rx="88.040001"
         ry="16.040001"
         id="ellipse10"
         style="fill:#d02625" />
    </g>
    <ellipse
       class="cls-4"
       cx="106.37"
       cy="141.44"
       rx="88.040001"
       ry="16.040001"
       id="ellipse14"
       style="fill:#0a6d61" />
    <path
       class="cls-1"
       d="m 27.31,164.81 14.45,139.92 a 1.35,1.35 0 0 0 0,0.29 c 0.51,3.81 11,7.18 26.8,9.26 v -7.77 c 7.33,1 15.79,1.65 25,2 v 7.77 c 4.14,0.15 8.42,0.23 12.8,0.23 4.38,0 8.45,-0.07 12.49,-0.22 v -7.77 c 9.16,-0.33 17.63,-1 25,-2 v 7.77 c 16,-2.08 26.61,-5.46 27.12,-9.3 a 1.35,1.35 0 0 0 0,-0.29 l 14.45,-139.92 z"
       id="path16"
       inkscape:connector-curvature="0"
       style="fill:#fab63c" />
    <path
       class="cls-5"
       d="m 27.31,164.81 14.45,139.92 a 1.35,1.35 0 0 0 0,0.29 c 0.51,3.81 11,7.18 26.8,9.26 v -7.77 c 7.33,1 15.79,1.65 25,2 v 7.77 c 4.14,0.15 8.42,0.23 12.8,0.23 4.38,0 8.45,-0.07 12.49,-0.22 v -7.77 c 9.16,-0.33 17.63,-1 25,-2 v 7.77 c 16,-2.08 26.61,-5.46 27.12,-9.3 a 1.35,1.35 0 0 0 0,-0.29 l 14.45,-139.92 z"
       id="path18"
       inkscape:connector-curvature="0"
       style="opacity:0.4;fill:#d02625" />
    <path
       class="cls-1"
       d="m 106.37,145.1 c -48.62,0 -88,-7.18 -88,-16 v 35.75 c 0,8.86 39.42,16 88,16 48.58,0 88,-7.18 88,-16 v -35.79 c 0.04,8.86 -39.37,16.04 -88,16.04 z"
       id="path20"
       inkscape:connector-curvature="0"
       style="fill:#fab63c" />
    <path
       class="cls-6"
       d="m 106.37,145.1 c -48.62,0 -88,-7.18 -88,-16 v 35.75 c 0,8.86 39.42,16 88,16 48.58,0 88,-7.18 88,-16 v -35.79 c 0.04,8.86 -39.37,16.04 -88,16.04 z"
       id="path22"
       inkscape:connector-curvature="0"
       style="opacity:0.6;fill:#d02625" />
    <path
       class="cls-1"
       d="m 106.37,117.58 c 21.59,0 42.27,1.45 58.23,4.07 17.63,2.9 23.19,6.12 24.79,7.41 -1.6,1.29 -7.16,4.52 -24.79,7.42 -16,2.62 -36.64,4.06 -58.23,4.06 -21.59,0 -42.27,-1.44 -58.22,-4.06 -17.64,-2.9 -23.19,-6.13 -24.79,-7.42 1.6,-1.29 7.15,-4.51 24.79,-7.41 15.95,-2.62 36.63,-4.07 58.22,-4.07 m 0,-4.56 c -48.62,0 -88,7.18 -88,16 0,8.82 39.42,16 88,16 48.58,0 88,-7.18 88,-16 0,-8.82 -39.41,-16 -88,-16 z"
       id="path24"
       inkscape:connector-curvature="0"
       style="fill:#fab63c" />
    <path
       class="cls-7"
       d="m 131.34,71.34 c 13.47,1.35 26.28,-1.6 35.24,-10.13 6.1,-5.8 8.78,-15.13 8.78,-15.13 -5.26,-3.94 -15.31,-9.81 -40.08,-2 -12.8,4 -21.54,10.39 -27.3,16.7 0.02,0.03 7.34,8.96 23.36,10.56 z"
       id="path26"
       inkscape:connector-curvature="0"
       style="fill:#88bd28" />
    <path
       class="cls-8"
       d="m 108,60.81 c 17.28,0 19,-3.07 31.39,-9 12.39,-5.93 36,-5.75 36,-5.75"
       id="path28"
       inkscape:connector-curvature="0"
       style="fill:none;stroke:#4a9234;stroke-width:1.28999996px;stroke-linecap:round;stroke-miterlimit:10" />
    <path
       class="cls-8"
       d="m 141.67,50.85 c 17.41,-1.65 22.85,5.1 22.85,5.1"
       id="path30"
       inkscape:connector-curvature="0"
       style="fill:none;stroke:#4a9234;stroke-width:1.28999996px;stroke-linecap:round;stroke-miterlimit:10" />
    <path
       class="cls-8"
       d="m 128.63,57.25 c 7.76,6.24 25.38,6.24 25.38,6.24"
       id="path32"
       inkscape:connector-curvature="0"
       style="fill:none;stroke:#4a9234;stroke-width:1.28999996px;stroke-linecap:round;stroke-miterlimit:10" />
    <path
       class="cls-9"
       d="m 175.36,46.08 c -5.26,-3.94 -15.31,-9.81 -40.08,-2 -25.95,8.24 -35.22,25.92 -36.79,33.54 -2.63,12.82 -0.27,21.58 5.64,29.14 5.91,7.56 3.35,13.5 2.24,24.74"
       id="path34"
       inkscape:connector-curvature="0"
       style="fill:none;stroke:#0e6942;stroke-width:3.8599999px;stroke-linecap:round;stroke-miterlimit:10" />
    <path
       class="cls-7"
       d="m 87.32,11.26 c 0,0 -7.89,14.45 -5.92,23.32 1.97,8.87 14.95,31.11 16,37.07 1.05,5.96 0.6,8.95 0.6,8.95 0,0 6.44,-14.15 4.47,-22.69 A 183.39,183.39 0 0 0 94.22,31 C 90,19.8 87.32,11.26 87.32,11.26 Z"
       id="path36"
       inkscape:connector-curvature="0"
       style="fill:#88bd28" />
  </g>
</svg>
