<svg width="145" height="145" viewBox="0 0 145 145" fill="none" xmlns="http://www.w3.org/2000/svg">
<path d="M143.998 70.9549C143.998 107.13 115.621 138.352 79.5672 141.666C43.5029 144.979 9.75367 119.624 3.15643 83.9537C-3.43988 48.2953 18.8161 12.3729 53.7653 2.57226C88.7248 -7.23041 126.502 11.8034 139.394 45.739C142.447 53.7764 144 62.3584 144 70.956" fill="#C9D7DA"/>
<path d="M137.332 70.4555C137.332 103.319 111.486 131.682 78.6478 134.693C45.8015 137.714 15.0623 114.669 9.05308 82.2675C3.04576 49.8734 23.3167 17.2406 55.1487 8.33658C86.9898 -0.568186 121.397 16.7229 133.142 47.5517C135.923 54.8532 137.337 62.6493 137.337 70.4595" fill="#808080" fill-opacity="0.84127"/>
<g filter="url(#filter0_i)">
<path d="M133.496 70.749C133.496 103.854 105.854 131.496 72.748 131.496C39.6419 131.496 12 103.854 12 70.749C12 37.6419 39.6419 10 72.748 10C105.854 9.99905 133.496 37.6419 133.496 70.749" fill="url(#paint0_radial)"/>
</g>
<defs>
<filter id="filter0_i" x="12" y="5" width="121.496" height="126.496" filterUnits="userSpaceOnUse" color-interpolation-filters="sRGB">
<feFlood flood-opacity="0" result="BackgroundImageFix"/>
<feBlend mode="normal" in="SourceGraphic" in2="BackgroundImageFix" result="shape"/>
<feColorMatrix in="SourceAlpha" type="matrix" values="0 0 0 0 0 0 0 0 0 0 0 0 0 0 0 0 0 0 127 0" result="hardAlpha"/>
<feOffset dy="-6"/>
<feGaussianBlur stdDeviation="2.5"/>
<feComposite in2="hardAlpha" operator="arithmetic" k2="-1" k3="1"/>
<feColorMatrix type="matrix" values="0 0 0 0 0 0 0 0 0 0 0 0 0 0 0 0 0 0 0.25 0"/>
<feBlend mode="normal" in2="shape" result="effect1_innerShadow"/>
</filter>
<radialGradient id="paint0_radial" cx="0" cy="0" r="1" gradientUnits="userSpaceOnUse" gradientTransform="translate(72.7522 70.7477) rotate(-179.908) scale(76.091 89.1366)">
<stop stop-color="white"/>
<stop offset="1" stop-color="#27B51B"/>
</radialGradient>
</defs>
</svg>
