<svg xmlns="http://www.w3.org/2000/svg" viewBox="0 0 336.93 336.93"><defs><style>.cls-1{fill:#e8385d;}.cls-2{fill:#ec606a;}.cls-3{fill:#fab63c;}.cls-4{fill:#ffdd04;}</style></defs><title>M005_Robots</title><g id="bloem"><path class="cls-1" d="M151.3,80.4c6.32,27.28,10.44,49.84,5,51.49s-15-19.19-24.62-45.51c-9.34-25.66-24.75-52.23-5-51.49C141.14,22.05,144.65,51.72,151.3,80.4Z"/><path class="cls-1" d="M106.68,103.68c22.55,21,40.18,39,36.27,43.86s-25.51-8.25-50.44-26.36C68.2,103.53,37.8,88.77,56.24,77.33,61.53,56.72,83,81.62,106.68,103.68Z"/><path class="cls-1" d="M90.36,124.67c25.18,12.25,45.3,23.24,43.18,28.48s-24.37-.39-50.85-9.5C56.86,134.76,26.52,130,39.5,115.16,38.62,95.84,63.88,111.78,90.36,124.67Z"/><path class="cls-1" d="M120.48,243.76c13.56-24.51,25.59-44,30.71-41.64s-1.67,24.32-12.15,50.29c-10.23,25.32-16.56,55.38-30.71,41.63C89,293.91,106.23,269.52,120.48,243.76Z"/><path class="cls-1" d="M172.57,254.61c-3.24-30.63-4.72-55.81,1.4-56.89s13.84,23,20.78,53c6.76,29.28,20,60.35-1.4,56.9C175.84,319.68,176,286.82,172.57,254.61Z"/><path class="cls-1" d="M86.61,203.66c27.68-13.53,50.83-23.52,53.94-18.14s-16.85,20.86-42.68,37.64C72.67,239.53,48,262.62,43.93,241.31,26.58,229,57.51,217.89,86.61,203.66Z"/><path class="cls-1" d="M221.71,238.79c-18-21.44-31.94-39.67-27.87-43.59s22.1,10.27,42.59,29.37c20,18.62,45.77,35.3,27.87,43.59C257.24,286.16,240.65,261.33,221.71,238.79Z"/><path class="cls-1" d="M254.47,146.21c-29.29,9.55-53.61,16.22-55.94,10.46s19.59-18.31,47.51-31.34c27.22-12.7,54.87-32.13,55.94-10.46C317.43,129.49,285.27,136.17,254.47,146.21Z"/><path class="cls-1" d="M244.53,121.23c-25.23,17.69-46.53,31.19-50.44,26.35s13.37-23.23,36.26-43.85C252.68,83.62,273.43,57,280.79,77.37,299.85,86.83,271,102.63,244.53,121.23Z"/><path class="cls-1" d="M206,86.11c-10,26.16-19.21,47.16-24.61,45.51s-1.73-24.31,5-51.49c6.6-26.5,8.69-57.15,24.61-45.51C230.22,32.06,216.54,58.62,206,86.11Z"/><path class="cls-1" d="M238.38,220.26C214.87,205,196.24,191.67,199,186.72s24.14,3.36,49.32,15.64c24.55,12,54.09,20.38,39.39,33.53C286.21,255.18,263.08,236.27,238.38,220.26Z"/><path class="cls-1" d="M257.57,170.13c-28,.52-50.92-.14-51.41-5.77s21.89-10.71,49.62-14.62c27-3.8,56.25-13.35,51.42,5.78C316.75,172.33,287,169.59,257.57,170.13Z"/><path class="cls-2" d="M179.78,79.35c-2.12,30.74-5,55.79-11.26,55.79s-9.64-25-11.26-55.79c-1.58-30-9.24-62.91,11.26-55.78C187.86,14.71,182,47,179.78,79.35Z"/><path class="cls-2" d="M126.15,89c14,24.24,24.56,44.61,19.88,47.77s-20-14-36.85-36.32C92.74,78.62,70.24,57.71,89.31,52.66,99.38,36.15,111.41,63.5,126.15,89Z"/><path class="cls-2" d="M101.68,227.78c20.13-19.47,37.34-34.62,41.54-30.84s-8.7,22.77-26.33,44.54c-17.18,21.23-32,48.12-41.54,30.84C56.9,266.53,80.52,248.25,101.68,227.78Z"/><path class="cls-2" d="M144.61,251.7c5.8-27.4,11.6-49.58,17.19-48.79s5.52,23.74,3.08,51.64c-2.37,27.21.36,57.81-17.19,48.8C129.16,308.88,138.51,280.51,144.61,251.7Z"/><path class="cls-2" d="M199.2,252.37c-11-25.77-18.94-47.27-13.9-49.83s18.13,16.28,32.14,40.53c13.66,23.65,33.45,47.15,13.9,49.84C219.33,308.06,210.73,279.46,199.2,252.37Z"/><path class="cls-2" d="M83.47,150.83c27.66,4.35,50.12,9,49.62,14.61s-23.42,6.75-51.41,5.78c-27.29-.95-57.7,3.38-49.63-14.62C25.56,138.38,54.38,146.25,83.47,150.83Z"/><path class="cls-2" d="M81,179.72c27.74-3.92,50.56-6.06,51.74-.53s-20.43,13.3-47.48,20.55c-26.38,7.08-54.2,20.11-51.73.53C22,184.75,51.88,183.84,81,179.72Z"/><path class="cls-2" d="M228.1,101c-17.23,22.08-32.16,39.48-36.85,36.32s5.45-23.76,19.88-47.77c14.06-23.41,25-52.11,36.84-36.32C267.05,56.34,246.2,77.73,228.1,101Z"/><path class="cls-2" d="M250.87,198.19c-29.63-8.47-53.52-16.53-52.23-22.61s26.48-4.23,56.91.58c29.67,4.7,63.45,4.05,52.22,22.61C312.42,219.53,282,207.09,250.87,198.19Z"/><circle class="cls-3" cx="168.46" cy="168.46" r="42"/><path class="cls-4" d="M168.46,126.46a42,42,0,0,0-40.55,31.08,42,42,0,0,0,82.55,10.82A42,42,0,0,0,168.46,126.46Z"/><circle class="cls-3" cx="150.33" cy="155.17" r="3.17"/><circle class="cls-3" cx="166.59" cy="174.7" r="3.17"/><circle class="cls-3" cx="182.37" cy="145.15" r="3.17"/><circle class="cls-3" cx="161.35" cy="141.98" r="3.17"/><circle class="cls-3" cx="201.89" cy="174.7" r="3.17"/><circle class="cls-3" cx="199.73" cy="150.12" r="3.17"/><circle class="cls-3" cx="179.2" cy="188.44" r="3.17"/><circle class="cls-3" cx="140.87" cy="172.45" r="3.17"/></g></svg>