<?xml version="1.0" encoding="UTF-8"?><svg id="pet" xmlns="http://www.w3.org/2000/svg" xmlns:xlink="http://www.w3.org/1999/xlink" viewBox="0 0 232.45 360.74"><defs><style>.cls-1{fill:#4a9234;}.cls-2{clip-path:url(#clippath-1);}.cls-3{clip-path:url(#clippath);}.cls-4{fill:#88bd28;}.cls-5,.cls-6,.cls-7,.cls-8{fill:none;}.cls-6{stroke-width:3.86px;}.cls-6,.cls-7,.cls-8{stroke-linecap:round;stroke-miterlimit:10;}.cls-6,.cls-8{stroke:#4a9234;}.cls-7{stroke:#88bd28;stroke-dasharray:0 7;stroke-width:2px;}.cls-9{fill:#0e6942;}.cls-8{stroke-dasharray:0 10;stroke-width:3px;}</style><clipPath id="clippath"><path class="cls-5" d="M35.81,195.48H196.63v77.7c0,44.38-36.03,80.41-80.41,80.41h0c-44.38,0-80.41-36.03-80.41-80.41v-77.7h0Z"/></clipPath><clipPath id="clippath-1"><circle class="cls-5" cx="116.22" cy="195.48" r="80.41"/></clipPath></defs><path class="cls-1" d="M35.81,195.48H196.63v77.7c0,44.38-36.03,80.41-80.41,80.41h0c-44.38,0-80.41-36.03-80.41-80.41v-77.7h0Z"/><g class="cls-3"><path class="cls-7" d="M191.79,195.48v79.48c0,41.73-33.83,75.56-75.56,75.56h0c-41.73,0-75.56-33.83-75.56-75.56v-79.48"/><path class="cls-7" d="M186.82,213.02v63.27c0,38.99-31.61,70.59-70.59,70.59h0c-38.99,0-70.59-31.61-70.59-70.59v-63.27"/></g><circle class="cls-9" cx="116.22" cy="195.48" r="80.41"/><g><path class="cls-4" d="M124.83,258.82c5.45,.55,10.63-.65,14.26-4.1,2.47-2.35,3.55-6.12,3.55-6.12-2.13-1.59-6.19-3.97-16.21-.8-5.18,1.64-8.71,4.2-11.04,6.75,0,0,2.97,3.61,9.45,4.26Z"/><path class="cls-6" d="M142.63,248.6c-2.13-1.59-6.19-3.97-16.21-.8s-14.25,10.46-14.88,13.55"/><path class="cls-4" d="M103.96,234.51s-3.16,8.1-2.55,11.72c1.7,10.03,9.26,10.29,9.7,12.7s.22,3.62,.22,3.62c0,0,2.6-5.72,1.81-9.18-.8-3.45-1.59-6.38-3.32-10.9-1.73-4.52-5.85-7.97-5.85-7.97Z"/></g><circle class="cls-1" cx="116.22" cy="189.74" r="5.74"/><path class="cls-5" d="M116.22,115.07h0c44.38,0,80.41,36.03,80.41,80.41v50.19H35.81v-50.19c0-44.38,36.03-80.41,80.41-80.41Z"/><g class="cls-2"><path class="cls-8" d="M116.22,190.19c-12.51-11.9-41.96-29.92-72.31-29.92"/><path class="cls-8" d="M35.81,238.59c9.01-26.46,35.04-49.31,80.41-49.31h0c45.37,0,71.4,22.86,80.41,49.31"/><path class="cls-8" d="M116.22,190.19c12.51-11.9,41.96-29.92,72.31-29.92"/><line class="cls-8" x1="116.22" y1="115.07" x2="116.22" y2="190.19"/></g></svg>