<?xml version="1.0" encoding="UTF-8" standalone="no"?>
<svg
   xmlns:dc="http://purl.org/dc/elements/1.1/"
   xmlns:cc="http://creativecommons.org/ns#"
   xmlns:rdf="http://www.w3.org/1999/02/22-rdf-syntax-ns#"
   xmlns:svg="http://www.w3.org/2000/svg"
   xmlns="http://www.w3.org/2000/svg"
   xmlns:sodipodi="http://sodipodi.sourceforge.net/DTD/sodipodi-0.dtd"
   xmlns:inkscape="http://www.inkscape.org/namespaces/inkscape"
   viewBox="0 0 360 360.00001"
   version="1.1"
   id="svg47"
   sodipodi:docname="continuous_servo_hat.svg"
   width="360"
   height="360"
   inkscape:version="0.92.3 (2405546, 2018-03-11)">
  <metadata
     id="metadata51">
    <rdf:RDF>
      <cc:Work
         rdf:about="">
        <dc:format>image/svg+xml</dc:format>
        <dc:type
           rdf:resource="http://purl.org/dc/dcmitype/StillImage" />
        <dc:title>M005_Robots</dc:title>
      </cc:Work>
    </rdf:RDF>
  </metadata>
  <sodipodi:namedview
     pagecolor="#ffffff"
     bordercolor="#666666"
     borderopacity="1"
     objecttolerance="10"
     gridtolerance="10"
     guidetolerance="10"
     inkscape:pageopacity="0"
     inkscape:pageshadow="2"
     inkscape:window-width="1387"
     inkscape:window-height="836"
     id="namedview49"
     showgrid="false"
     showguides="true"
     inkscape:guide-bbox="true"
     inkscape:zoom="1.3084216"
     inkscape:cx="138.23908"
     inkscape:cy="92.635211"
     inkscape:window-x="53"
     inkscape:window-y="105"
     inkscape:window-maximized="1"
     inkscape:current-layer="svg47">
    <sodipodi:guide
       position="100.88491,180"
       orientation="0,1"
       id="guide858"
       inkscape:locked="false"
       inkscape:label=""
       inkscape:color="rgb(0,0,255)" />
    <sodipodi:guide
       position="180,567.09551"
       orientation="1,0"
       id="guide860"
       inkscape:locked="false"
       inkscape:label=""
       inkscape:color="rgb(0,0,255)" />
  </sodipodi:namedview>
  <defs
     id="defs10">
    <style
       id="style2">.cls-1,.cls-10,.cls-5,.cls-6,.cls-8{fill:none;}.cls-2{fill:#0e6942;}.cls-3{fill:#88bd28;}.cls-4{fill:#4a9234;}.cls-5{stroke:#0e6942;stroke-width:3.86px;}.cls-10,.cls-5,.cls-6,.cls-8{stroke-linecap:round;stroke-miterlimit:10;}.cls-10,.cls-6{stroke:#4a9234;}.cls-6{stroke-width:3px;}.cls-10,.cls-6,.cls-8{stroke-dasharray:7;}.cls-7{clip-path:url(#clip-path);}.cls-8{stroke:#88bd28;}.cls-9{clip-path:url(#clip-path-2);}</style>
    <clipPath
       id="clip-path">
      <path
         class="cls-1"
         d="m 35.81,245.67 h 160.82 v 27.51 a 80.41,80.41 0 0 1 -80.41,80.41 v 0 A 80.41,80.41 0 0 1 35.81,273.18 Z"
         id="path4"
         inkscape:connector-curvature="0"
         style="fill:none" />
    </clipPath>
    <clipPath
       id="clip-path-2">
      <path
         class="cls-1"
         d="m 116.22,115.07 v 0 a 80.41,80.41 0 0 1 80.41,80.41 v 50.19 H 35.81 v -50.19 a 80.41,80.41 0 0 1 80.41,-80.41 z"
         id="path7"
         inkscape:connector-curvature="0"
         style="fill:none" />
    </clipPath>
  </defs>
  <title
     id="title12">M005_Robots</title>
  <g
     id="pet"
     transform="translate(63.779998,-0.3699975)">
    <path
       class="cls-2"
       d="m 116.22,115.07 v 0 a 80.41,80.41 0 0 1 80.41,80.41 v 50.19 H 35.81 v -50.19 a 80.41,80.41 0 0 1 80.41,-80.41 z"
       id="path14"
       inkscape:connector-curvature="0"
       style="fill:#0e6942" />
    <path
       class="cls-3"
       d="m 35.81,245.67 v 0 c 5.91,-26.57 31.7,-65.3 80.41,-65.3 v 0 c 48.72,0 74.51,38.73 80.41,65.3 z"
       id="path16"
       inkscape:connector-curvature="0"
       style="fill:#88bd28" />
    <circle
       class="cls-4"
       cx="116.22"
       cy="180.37"
       r="5.7399998"
       id="circle18"
       style="fill:#4a9234" />
    <path
       class="cls-2"
       d="m 121.23,228.94 c 5.45,0.55 10.63,-0.65 14.26,-4.09 a 15.7,15.7 0 0 0 3.55,-6.12 c -2.13,-1.6 -6.2,-4 -16.21,-0.8 a 24.82,24.82 0 0 0 -11,6.75 c 0,0 2.92,3.61 9.4,4.26 z"
       id="path20"
       inkscape:connector-curvature="0"
       style="fill:#0e6942" />
    <path
       class="cls-5"
       d="m 139,218.73 c -2.13,-1.6 -6.2,-4 -16.21,-0.8 -10.5,3.32 -14.25,10.46 -14.89,13.55"
       id="path22"
       inkscape:connector-curvature="0"
       style="fill:none;stroke:#0e6942;stroke-width:3.8599999px;stroke-linecap:round;stroke-miterlimit:10" />
    <path
       class="cls-2"
       d="m 100.37,204.64 c 0,0 -3.17,8.1 -2.55,11.73 1.7,10 9.26,10.29 9.69,12.7 a 11.66,11.66 0 0 1 0.22,3.62 c 0,0 2.61,-5.73 1.81,-9.18 a 75.71,75.71 0 0 0 -3.32,-10.9 22.69,22.69 0 0 0 -5.85,-7.97 z"
       id="path24"
       inkscape:connector-curvature="0"
       style="fill:#0e6942" />
    <path
       class="cls-6"
       d="m 38.55,250.2 v 0 c 5.71,-25.66 30.62,-63.07 77.67,-63.07 v 0 c 47.06,0 72,37.41 77.68,63.07"
       id="path26"
       inkscape:connector-curvature="0"
       style="fill:none;stroke:#4a9234;stroke-width:3px;stroke-linecap:round;stroke-miterlimit:10;stroke-dasharray:7" />
    <path
       class="cls-4"
       d="m 35.81,245.67 h 160.82 v 27.51 a 80.41,80.41 0 0 1 -80.41,80.41 v 0 A 80.41,80.41 0 0 1 35.81,273.18 Z"
       id="path28"
       inkscape:connector-curvature="0"
       style="fill:#4a9234" />
    <g
       class="cls-7"
       clip-path="url(#clip-path)"
       id="g34">
      <path
         class="cls-8"
         d="M 191.79,239.8 V 275 a 75.56,75.56 0 0 1 -75.57,75.56 v 0 A 75.56,75.56 0 0 1 40.66,275 v -35.2"
         id="path30"
         inkscape:connector-curvature="0"
         style="fill:none;stroke:#88bd28;stroke-linecap:round;stroke-miterlimit:10;stroke-dasharray:7" />
      <path
         class="cls-8"
         d="m 186.82,243.44 v 32.85 a 70.59,70.59 0 0 1 -70.6,70.59 v 0 A 70.59,70.59 0 0 1 45.63,276.29 v -32.85"
         id="path32"
         inkscape:connector-curvature="0"
         style="fill:none;stroke:#88bd28;stroke-linecap:round;stroke-miterlimit:10;stroke-dasharray:7" />
    </g>
    <g
       class="cls-9"
       clip-path="url(#clip-path-2)"
       id="g44">
      <path
         class="cls-10"
         d="m 116.22,180.37 c -12.51,-11.9 -42,-20.1 -72.31,-20.1"
         id="path36"
         inkscape:connector-curvature="0"
         style="fill:none;stroke:#4a9234;stroke-linecap:round;stroke-miterlimit:10;stroke-dasharray:7" />
      <path
         class="cls-10"
         d="m 35.81,238.59 c 9,-26.46 35,-59.14 80.41,-59.14 v 0 c 45.37,0 71.4,32.68 80.41,59.14"
         id="path38"
         inkscape:connector-curvature="0"
         style="fill:none;stroke:#4a9234;stroke-linecap:round;stroke-miterlimit:10;stroke-dasharray:7" />
      <path
         class="cls-10"
         d="m 116.22,180.37 c 12.52,-11.9 42,-20.1 72.31,-20.1"
         id="path40"
         inkscape:connector-curvature="0"
         style="fill:none;stroke:#4a9234;stroke-linecap:round;stroke-miterlimit:10;stroke-dasharray:7" />
      <line
         class="cls-10"
         x1="116.22"
         y1="115.07"
         x2="116.22"
         y2="180.37"
         id="line42"
         style="fill:none;stroke:#4a9234;stroke-linecap:round;stroke-miterlimit:10;stroke-dasharray:7" />
    </g>
  </g>
</svg>
