<?xml version="1.0" encoding="UTF-8" standalone="no"?>
<svg
   xmlns:dc="http://purl.org/dc/elements/1.1/"
   xmlns:cc="http://creativecommons.org/ns#"
   xmlns:rdf="http://www.w3.org/1999/02/22-rdf-syntax-ns#"
   xmlns:svg="http://www.w3.org/2000/svg"
   xmlns="http://www.w3.org/2000/svg"
   xmlns:sodipodi="http://sodipodi.sourceforge.net/DTD/sodipodi-0.dtd"
   xmlns:inkscape="http://www.inkscape.org/namespaces/inkscape"
   viewBox="0 0 50 49.999999"
   version="1.1"
   id="svg13"
   sodipodi:docname="eye1_background.svg"
   width="50"
   height="50"
   inkscape:version="0.92.3 (2405546, 2018-03-11)">
  <metadata
     id="metadata17">
    <rdf:RDF>
      <cc:Work
         rdf:about="">
        <dc:format>image/svg+xml</dc:format>
        <dc:type
           rdf:resource="http://purl.org/dc/dcmitype/StillImage" />
        <dc:title>M005_Robots</dc:title>
      </cc:Work>
    </rdf:RDF>
  </metadata>
  <sodipodi:namedview
     pagecolor="#ffffff"
     bordercolor="#666666"
     borderopacity="1"
     objecttolerance="10"
     gridtolerance="10"
     guidetolerance="10"
     inkscape:pageopacity="0"
     inkscape:pageshadow="2"
     inkscape:window-width="1920"
     inkscape:window-height="1043"
     id="namedview15"
     showgrid="false"
     showguides="true"
     inkscape:guide-bbox="true"
     inkscape:zoom="13.339504"
     inkscape:cx="39.166091"
     inkscape:cy="18.561251"
     inkscape:window-x="1440"
     inkscape:window-y="0"
     inkscape:window-maximized="1"
     inkscape:current-layer="svg13">
    <sodipodi:guide
       position="25,40.932373"
       orientation="1,0"
       id="guide824"
       inkscape:locked="false"
       inkscape:label=""
       inkscape:color="rgb(0,0,255)" />
    <sodipodi:guide
       position="-22.582,25"
       orientation="0,1"
       id="guide826"
       inkscape:locked="false"
       inkscape:label=""
       inkscape:color="rgb(0,0,255)" />
  </sodipodi:namedview>
  <defs
     id="defs4">
    <style
       id="style2">.cls-1{fill:#fff;}.cls-2{fill:#0a6d61;}</style>
  </defs>
  <title
     id="title6">M005_Robots</title>
  <g
     id="Ogen"
     transform="translate(-3.6758018,-4.0355146)">
    <circle
       class="cls-1"
       cx="28.66"
       cy="29.02"
       r="17.17"
       id="circle8"
       style="fill:#ffffff" />
    <path
       class="cls-2"
       d="M 46.31,12.71 A 1,1 0 0 0 45,11.37 L 39.8,15.3 A 17.54,17.54 0 0 0 30.54,11.45 L 29.61,5 a 1,1 0 0 0 -1.9,0 l -0.9,6.44 a 17.57,17.57 0 0 0 -9.26,3.85 L 12.36,11.36 A 1,1 0 0 0 11,12.71 l 3.93,5.2 a 17.54,17.54 0 0 0 -3.85,9.26 l -6.44,0.9 a 1,1 0 0 0 0,1.9 l 6.44,0.9 a 17.67,17.67 0 1 0 31.29,-13 z m -17.65,33 A 16.67,16.67 0 1 1 45.33,29 16.69,16.69 0 0 1 28.66,45.69 Z"
       id="path10"
       inkscape:connector-curvature="0"
       style="fill:#0a6d61" />
  </g>
</svg>
