<svg xmlns="http://www.w3.org/2000/svg" viewBox="0 0 52.77 50.04"><defs><style>.cls-1{fill:#fff;}.cls-2{fill:#0a6d61;}</style></defs><title>M005_Robots</title><g id="Ogen"><circle class="cls-1" cx="28.66" cy="29.02" r="17.17"/><path class="cls-2" d="M46.31,12.71A1,1,0,0,0,45,11.37l-5.2,3.93a17.54,17.54,0,0,0-9.26-3.85L29.61,5a1,1,0,0,0-1.9,0l-.9,6.44a17.57,17.57,0,0,0-9.26,3.85l-5.19-3.93A1,1,0,0,0,11,12.71l3.93,5.2a17.54,17.54,0,0,0-3.85,9.26l-6.44.9a1,1,0,0,0,0,1.9l6.44.9a17.67,17.67,0,1,0,31.29-13Zm-17.65,33A16.67,16.67,0,1,1,45.33,29,16.69,16.69,0,0,1,28.66,45.69Z"/></g></svg>