<svg width="84" height="70" viewBox="0 0 84 70" fill="none" xmlns="http://www.w3.org/2000/svg">
<g clip-path="url(#clip0)">
<path d="M17.5366 48.9777L0.00188391 48.9777" stroke="#0E6942" stroke-width="2" stroke-miterlimit="10" stroke-linecap="round"/>
<path d="M17.5366 43.4119L0.00188391 43.4119" stroke="#0E6942" stroke-width="2" stroke-miterlimit="10" stroke-linecap="round"/>
<path d="M17.5366 37.846L0.00188391 37.846" stroke="#0E6942" stroke-width="2" stroke-miterlimit="10" stroke-linecap="round"/>
<path d="M17.5366 32.2802L0.00188391 32.2802" stroke="#0E6942" stroke-width="2" stroke-miterlimit="10" stroke-linecap="round"/>
<path d="M17.5366 26.7143L0.00188391 26.7143" stroke="#0E6942" stroke-width="2" stroke-miterlimit="10" stroke-linecap="round"/>
<path d="M13.5395 69.9984L83.5371 69.9984L83.5371 0.000770569L13.5395 0.000770569L13.5395 69.9984Z" fill="black" stroke="#646464" stroke-width="0.199648" stroke-linecap="square"/>
<path d="M74.8949 70H83.5381V61.356H74.8949V70Z" fill="black" stroke="black" stroke-width="0.197227" stroke-linecap="square"/>
<path d="M76.0359 65.678C76.0358 65.2602 76.118 64.8464 76.2777 64.4603C76.4375 64.0743 76.6718 63.7235 76.9672 63.428C77.2625 63.1325 77.6132 62.898 77.9992 62.7381C78.3852 62.5782 78.7989 62.4959 79.2167 62.4959C79.6345 62.4959 80.0482 62.5782 80.4342 62.7381C80.8201 62.898 81.1708 63.1325 81.4662 63.428C81.7616 63.7235 81.9959 64.0743 82.1556 64.4603C82.3154 64.8464 82.3976 65.2602 82.3975 65.678C82.3976 66.0958 82.3154 66.5096 82.1556 66.8957C81.9959 67.2818 81.7616 67.6326 81.4662 67.9281C81.1708 68.2236 80.8201 68.458 80.4342 68.6179C80.0482 68.7779 79.6345 68.8602 79.2167 68.8602C78.7989 68.8602 78.3852 68.7779 77.9992 68.6179C77.6132 68.458 77.2625 68.2236 76.9672 67.9281C76.6718 67.6326 76.4375 67.2818 76.2777 66.8957C76.118 66.5096 76.0358 66.0958 76.0359 65.678V65.678Z" fill="white" stroke="black" stroke-width="0.195402" stroke-linecap="square"/>
<path d="M74.956 61.4557H83.5991V52.8117H74.956V61.4557Z" fill="black" stroke="black" stroke-width="0.197227" stroke-linecap="square"/>
<path d="M76.097 57.1337C76.0968 56.7159 76.179 56.3021 76.3388 55.916C76.4986 55.53 76.7328 55.1791 77.0282 54.8836C77.3236 54.5881 77.6743 54.3537 78.0603 54.1938C78.4462 54.0339 78.8599 53.9515 79.2777 53.9515C79.6955 53.9515 80.1092 54.0339 80.4952 54.1938C80.8812 54.3537 81.2319 54.5881 81.5273 54.8836C81.8226 55.1791 82.0569 55.53 82.2167 55.916C82.3765 56.3021 82.4586 56.7159 82.4585 57.1337C82.4586 57.5515 82.3765 57.9653 82.2167 58.3514C82.0569 58.7374 81.8226 59.0883 81.5273 59.3838C81.2319 59.6793 80.8812 59.9137 80.4952 60.0736C80.1092 60.2335 79.6955 60.3159 79.2777 60.3159C78.8599 60.3159 78.4462 60.2335 78.0603 60.0736C77.6743 59.9137 77.3236 59.6793 77.0282 59.3838C76.7328 59.0883 76.4986 58.7374 76.3388 58.3514C76.179 57.9653 76.0968 57.5515 76.097 57.1337V57.1337Z" fill="white" stroke="black" stroke-width="0.195402" stroke-linecap="square"/>
<path d="M74.956 52.7977H83.5991V44.1537H74.956V52.7977Z" fill="black" stroke="black" stroke-width="0.197227" stroke-linecap="square"/>
<path d="M76.097 48.4757C76.0968 48.0578 76.179 47.6441 76.3388 47.258C76.4986 46.8719 76.7328 46.5211 77.0282 46.2256C77.3236 45.9301 77.6743 45.6957 78.0603 45.5358C78.4462 45.3758 78.8599 45.2935 79.2777 45.2935C79.6955 45.2935 80.1092 45.3758 80.4952 45.5358C80.8812 45.6957 81.2319 45.9301 81.5273 46.2256C81.8226 46.5211 82.0569 46.8719 82.2167 47.258C82.3765 47.6441 82.4586 48.0578 82.4585 48.4757C82.4586 48.8935 82.3765 49.3073 82.2167 49.6934C82.0569 50.0794 81.8226 50.4302 81.5273 50.7257C81.2319 51.0212 80.8812 51.2557 80.4952 51.4156C80.1092 51.5755 79.6955 51.6578 79.2777 51.6578C78.8599 51.6578 78.4462 51.5755 78.0603 51.4156C77.6743 51.2557 77.3236 51.0212 77.0282 50.7257C76.7328 50.4302 76.4986 50.0794 76.3388 49.6934C76.179 49.3073 76.0968 48.8935 76.097 48.4757V48.4757Z" fill="white" stroke="black" stroke-width="0.195402" stroke-linecap="square"/>
<path d="M74.956 44.1396H83.5991V35.4956H74.956V44.1396Z" fill="black" stroke="black" stroke-width="0.197227" stroke-linecap="square"/>
<path d="M76.097 39.8177C76.0968 39.3998 76.179 38.9861 76.3388 38.6C76.4986 38.2139 76.7328 37.8631 77.0282 37.5676C77.3236 37.2721 77.6743 37.0377 78.0603 36.8778C78.4462 36.7178 78.8599 36.6355 79.2777 36.6355C79.6955 36.6355 80.1092 36.7178 80.4952 36.8778C80.8812 37.0377 81.2319 37.2721 81.5273 37.5676C81.8226 37.8631 82.0569 38.2139 82.2167 38.6C82.3765 38.9861 82.4586 39.3998 82.4585 39.8177C82.4586 40.2355 82.3765 40.6493 82.2167 41.0353C82.0569 41.4214 81.8226 41.7722 81.5273 42.0677C81.2319 42.3632 80.8812 42.5976 80.4952 42.7576C80.1092 42.9175 79.6955 42.9998 79.2777 42.9998C78.8599 42.9998 78.4462 42.9175 78.0603 42.7576C77.6743 42.5976 77.3236 42.3632 77.0282 42.0677C76.7328 41.7722 76.4986 41.4214 76.3388 41.0353C76.179 40.6493 76.0968 40.2355 76.097 39.8177V39.8177Z" fill="white" stroke="black" stroke-width="0.195402" stroke-linecap="square"/>
<path d="M74.956 35.4817H83.5991V26.8377H74.956V35.4817Z" fill="black" stroke="black" stroke-width="0.197227" stroke-linecap="square"/>
<path d="M76.097 31.1597C76.0968 30.7419 76.179 30.3281 76.3388 29.942C76.4986 29.556 76.7328 29.2051 77.0282 28.9096C77.3236 28.6141 77.6743 28.3797 78.0603 28.2198C78.4462 28.0599 78.8599 27.9775 79.2777 27.9775C79.6955 27.9775 80.1092 28.0599 80.4952 28.2198C80.8812 28.3797 81.2319 28.6141 81.5273 28.9096C81.8226 29.2051 82.0569 29.556 82.2167 29.942C82.3765 30.3281 82.4586 30.7419 82.4585 31.1597C82.4586 31.5775 82.3765 31.9913 82.2167 32.3774C82.0569 32.7634 81.8226 33.1143 81.5273 33.4098C81.2319 33.7053 80.8812 33.9397 80.4952 34.0996C80.1092 34.2595 79.6955 34.3419 79.2777 34.3419C78.8599 34.3419 78.4462 34.2595 78.0603 34.0996C77.6743 33.9397 77.3236 33.7053 77.0282 33.4098C76.7328 33.1143 76.4986 32.7634 76.3388 32.3774C76.179 31.9913 76.0968 31.5775 76.097 31.1597V31.1597Z" fill="white" stroke="black" stroke-width="0.195402" stroke-linecap="square"/>
<path d="M74.956 26.8237H83.5991V18.1797H74.956V26.8237Z" fill="black" stroke="black" stroke-width="0.197227" stroke-linecap="square"/>
<path d="M76.097 22.5017C76.0968 22.0838 76.179 21.6701 76.3388 21.284C76.4986 20.8979 76.7328 20.5471 77.0282 20.2516C77.3236 19.9561 77.6743 19.7217 78.0603 19.5618C78.4462 19.4018 78.8599 19.3195 79.2777 19.3195C79.6955 19.3195 80.1092 19.4018 80.4952 19.5618C80.8812 19.7217 81.2319 19.9561 81.5273 20.2516C81.8226 20.5471 82.0569 20.8979 82.2167 21.284C82.3765 21.6701 82.4586 22.0838 82.4585 22.5017C82.4586 22.9195 82.3765 23.3333 82.2167 23.7194C82.0569 24.1054 81.8226 24.4562 81.5273 24.7517C81.2319 25.0472 80.8812 25.2817 80.4952 25.4416C80.1092 25.6015 79.6955 25.6838 79.2777 25.6838C78.8599 25.6838 78.4462 25.6015 78.0603 25.4416C77.6743 25.2817 77.3236 25.0472 77.0282 24.7517C76.7328 24.4562 76.4986 24.1054 76.3388 23.7194C76.179 23.3333 76.0968 22.9195 76.097 22.5017V22.5017Z" fill="white" stroke="black" stroke-width="0.195402" stroke-linecap="square"/>
<path d="M74.956 18.1656H83.5991V9.52164L74.956 9.52164V18.1656Z" fill="black" stroke="black" stroke-width="0.197227" stroke-linecap="square"/>
<path d="M76.097 13.8437C76.0968 13.4258 76.179 13.0121 76.3388 12.626C76.4986 12.2399 76.7328 11.8891 77.0282 11.5936C77.3236 11.2981 77.6743 11.0637 78.0603 10.9038C78.4462 10.7438 78.8599 10.6615 79.2777 10.6615C79.6955 10.6615 80.1092 10.7438 80.4952 10.9038C80.8812 11.0637 81.2319 11.2981 81.5273 11.5936C81.8226 11.8891 82.0569 12.2399 82.2167 12.626C82.3765 13.0121 82.4586 13.4258 82.4585 13.8437C82.4586 14.2615 82.3765 14.6753 82.2167 15.0613C82.0569 15.4474 81.8226 15.7982 81.5273 16.0937C81.2319 16.3892 80.8812 16.6236 80.4952 16.7836C80.1092 16.9435 79.6955 17.0258 79.2777 17.0258C78.8599 17.0258 78.4462 16.9435 78.0603 16.7836C77.6743 16.6236 77.3236 16.3892 77.0282 16.0937C76.7328 15.7982 76.4986 15.4474 76.3388 15.0613C76.179 14.6753 76.0968 14.2615 76.097 13.8437V13.8437Z" fill="white" stroke="black" stroke-width="0.195402" stroke-linecap="square"/>
<path d="M74.956 9.50763L83.5991 9.50763V0.863621L74.956 0.863621V9.50763Z" fill="black" stroke="black" stroke-width="0.197227" stroke-linecap="square"/>
<path d="M76.097 5.18564C76.0968 4.7678 76.179 4.35403 76.3388 3.96796C76.4986 3.58189 76.7328 3.23108 77.0282 2.93558C77.3236 2.64007 77.6743 2.40566 78.0603 2.24573C78.4462 2.0858 78.8599 2.00348 79.2777 2.00348C79.6955 2.00348 80.1092 2.0858 80.4952 2.24573C80.8812 2.40566 81.2319 2.64007 81.5273 2.93558C81.8226 3.23108 82.0569 3.58189 82.2167 3.96796C82.3765 4.35403 82.4586 4.7678 82.4585 5.18564C82.4586 5.60347 82.3765 6.01725 82.2167 6.40332C82.0569 6.78939 81.8226 7.14019 81.5273 7.4357C81.2319 7.7312 80.8812 7.96562 80.4952 8.12555C80.1092 8.28548 79.6955 8.3678 79.2777 8.3678C78.8599 8.3678 78.4462 8.28548 78.0603 8.12555C77.6743 7.96562 77.3236 7.7312 77.0282 7.4357C76.7328 7.14019 76.4986 6.78939 76.3388 6.40332C76.179 6.01725 76.0968 5.60347 76.097 5.18564V5.18564Z" fill="white" stroke="black" stroke-width="0.195402" stroke-linecap="square"/>
<path d="M66.2367 70H74.8799V61.356H66.2367V70Z" fill="black" stroke="black" stroke-width="0.197227" stroke-linecap="square"/>
<path d="M67.3777 65.678C67.3776 65.2602 67.4598 64.8464 67.6195 64.4603C67.7793 64.0743 68.0136 63.7235 68.309 63.428C68.6043 63.1325 68.955 62.898 69.341 62.7381C69.727 62.5782 70.1407 62.4959 70.5585 62.4959C70.9763 62.4959 71.39 62.5782 71.776 62.7381C72.1619 62.898 72.5126 63.1325 72.808 63.428C73.1034 63.7235 73.3377 64.0743 73.4974 64.4603C73.6572 64.8464 73.7394 65.2602 73.7393 65.678C73.7394 66.0958 73.6572 66.5096 73.4974 66.8957C73.3377 67.2818 73.1034 67.6326 72.808 67.9281C72.5126 68.2236 72.1619 68.458 71.776 68.6179C71.39 68.7779 70.9763 68.8602 70.5585 68.8602C70.1407 68.8602 69.727 68.7779 69.341 68.6179C68.955 68.458 68.6043 68.2236 68.309 67.9281C68.0136 67.6326 67.7793 67.2818 67.6195 66.8957C67.4598 66.5096 67.3776 66.0958 67.3777 65.678V65.678Z" fill="white" stroke="black" stroke-width="0.195402" stroke-linecap="square"/>
<path d="M66.2978 61.4557H74.9409V52.8117H66.2978V61.4557Z" fill="black" stroke="black" stroke-width="0.197227" stroke-linecap="square"/>
<path d="M67.4388 57.1337C67.4386 56.7159 67.5208 56.3021 67.6806 55.916C67.8404 55.53 68.0746 55.1791 68.37 54.8836C68.6654 54.5881 69.0161 54.3537 69.4021 54.1938C69.788 54.0339 70.2017 53.9515 70.6195 53.9515C71.0373 53.9515 71.451 54.0339 71.837 54.1938C72.223 54.3537 72.5737 54.5881 72.869 54.8836C73.1644 55.1791 73.3987 55.53 73.5585 55.916C73.7183 56.3021 73.8004 56.7159 73.8003 57.1337C73.8004 57.5515 73.7183 57.9653 73.5585 58.3514C73.3987 58.7374 73.1644 59.0883 72.869 59.3838C72.5737 59.6793 72.223 59.9137 71.837 60.0736C71.451 60.2335 71.0373 60.3159 70.6195 60.3159C70.2017 60.3159 69.788 60.2335 69.4021 60.0736C69.0161 59.9137 68.6654 59.6793 68.37 59.3838C68.0746 59.0883 67.8404 58.7374 67.6806 58.3514C67.5208 57.9653 67.4386 57.5515 67.4388 57.1337V57.1337Z" fill="white" stroke="black" stroke-width="0.195402" stroke-linecap="square"/>
<path d="M66.2978 52.7977H74.9409V44.1537H66.2978V52.7977Z" fill="black" stroke="black" stroke-width="0.197227" stroke-linecap="square"/>
<path d="M67.4388 48.4757C67.4386 48.0578 67.5208 47.6441 67.6806 47.258C67.8404 46.8719 68.0746 46.5211 68.37 46.2256C68.6654 45.9301 69.0161 45.6957 69.4021 45.5358C69.788 45.3758 70.2017 45.2935 70.6195 45.2935C71.0373 45.2935 71.451 45.3758 71.837 45.5358C72.223 45.6957 72.5737 45.9301 72.869 46.2256C73.1644 46.5211 73.3987 46.8719 73.5585 47.258C73.7183 47.6441 73.8004 48.0578 73.8003 48.4757C73.8004 48.8935 73.7183 49.3073 73.5585 49.6934C73.3987 50.0794 73.1644 50.4302 72.869 50.7257C72.5737 51.0212 72.223 51.2557 71.837 51.4156C71.451 51.5755 71.0373 51.6578 70.6195 51.6578C70.2017 51.6578 69.788 51.5755 69.4021 51.4156C69.0161 51.2557 68.6654 51.0212 68.37 50.7257C68.0746 50.4302 67.8404 50.0794 67.6806 49.6934C67.5208 49.3073 67.4386 48.8935 67.4388 48.4757V48.4757Z" fill="white" stroke="black" stroke-width="0.195402" stroke-linecap="square"/>
<path d="M66.2978 44.1396H74.9409V35.4956H66.2978V44.1396Z" fill="black" stroke="black" stroke-width="0.197227" stroke-linecap="square"/>
<path d="M67.4388 39.8177C67.4386 39.3998 67.5208 38.9861 67.6806 38.6C67.8404 38.2139 68.0746 37.8631 68.37 37.5676C68.6654 37.2721 69.0161 37.0377 69.4021 36.8778C69.788 36.7178 70.2017 36.6355 70.6195 36.6355C71.0373 36.6355 71.451 36.7178 71.837 36.8778C72.223 37.0377 72.5737 37.2721 72.869 37.5676C73.1644 37.8631 73.3987 38.2139 73.5585 38.6C73.7183 38.9861 73.8004 39.3998 73.8003 39.8177C73.8004 40.2355 73.7183 40.6493 73.5585 41.0353C73.3987 41.4214 73.1644 41.7722 72.869 42.0677C72.5737 42.3632 72.223 42.5976 71.837 42.7576C71.451 42.9175 71.0373 42.9998 70.6195 42.9998C70.2017 42.9998 69.788 42.9175 69.4021 42.7576C69.0161 42.5976 68.6654 42.3632 68.37 42.0677C68.0746 41.7722 67.8404 41.4214 67.6806 41.0353C67.5208 40.6493 67.4386 40.2355 67.4388 39.8177V39.8177Z" fill="white" stroke="black" stroke-width="0.195402" stroke-linecap="square"/>
<path d="M66.2978 35.4817H74.9409V26.8377H66.2978V35.4817Z" fill="black" stroke="black" stroke-width="0.197227" stroke-linecap="square"/>
<path d="M67.4388 31.1597C67.4386 30.7419 67.5208 30.3281 67.6806 29.942C67.8404 29.556 68.0746 29.2051 68.37 28.9096C68.6654 28.6141 69.0161 28.3797 69.4021 28.2198C69.788 28.0599 70.2017 27.9775 70.6195 27.9775C71.0373 27.9775 71.451 28.0599 71.837 28.2198C72.223 28.3797 72.5737 28.6141 72.869 28.9096C73.1644 29.2051 73.3987 29.556 73.5585 29.942C73.7183 30.3281 73.8004 30.7419 73.8003 31.1597C73.8004 31.5775 73.7183 31.9913 73.5585 32.3774C73.3987 32.7634 73.1644 33.1143 72.869 33.4098C72.5737 33.7053 72.223 33.9397 71.837 34.0996C71.451 34.2595 71.0373 34.3419 70.6195 34.3419C70.2017 34.3419 69.788 34.2595 69.4021 34.0996C69.0161 33.9397 68.6654 33.7053 68.37 33.4098C68.0746 33.1143 67.8404 32.7634 67.6806 32.3774C67.5208 31.9913 67.4386 31.5775 67.4388 31.1597V31.1597Z" fill="white" stroke="black" stroke-width="0.195402" stroke-linecap="square"/>
<path d="M66.2978 26.8237H74.9409V18.1797H66.2978V26.8237Z" fill="black" stroke="black" stroke-width="0.197227" stroke-linecap="square"/>
<path d="M67.4388 22.5017C67.4386 22.0838 67.5208 21.6701 67.6806 21.284C67.8404 20.8979 68.0746 20.5471 68.37 20.2516C68.6654 19.9561 69.0161 19.7217 69.4021 19.5618C69.788 19.4018 70.2017 19.3195 70.6195 19.3195C71.0373 19.3195 71.451 19.4018 71.837 19.5618C72.223 19.7217 72.5737 19.9561 72.869 20.2516C73.1644 20.5471 73.3987 20.8979 73.5585 21.284C73.7183 21.6701 73.8004 22.0838 73.8003 22.5017C73.8004 22.9195 73.7183 23.3333 73.5585 23.7194C73.3987 24.1054 73.1644 24.4562 72.869 24.7517C72.5737 25.0472 72.223 25.2817 71.837 25.4416C71.451 25.6015 71.0373 25.6838 70.6195 25.6838C70.2017 25.6838 69.788 25.6015 69.4021 25.4416C69.0161 25.2817 68.6654 25.0472 68.37 24.7517C68.0746 24.4562 67.8404 24.1054 67.6806 23.7194C67.5208 23.3333 67.4386 22.9195 67.4388 22.5017V22.5017Z" fill="white" stroke="black" stroke-width="0.195402" stroke-linecap="square"/>
<path d="M66.2978 18.1656H74.9409V9.52164L66.2978 9.52164V18.1656Z" fill="black" stroke="black" stroke-width="0.197227" stroke-linecap="square"/>
<path d="M67.4388 13.8437C67.4386 13.4258 67.5208 13.0121 67.6806 12.626C67.8404 12.2399 68.0746 11.8891 68.37 11.5936C68.6654 11.2981 69.0161 11.0637 69.4021 10.9038C69.788 10.7438 70.2017 10.6615 70.6195 10.6615C71.0373 10.6615 71.451 10.7438 71.837 10.9038C72.223 11.0637 72.5737 11.2981 72.869 11.5936C73.1644 11.8891 73.3987 12.2399 73.5585 12.626C73.7183 13.0121 73.8004 13.4258 73.8003 13.8437C73.8004 14.2615 73.7183 14.6753 73.5585 15.0613C73.3987 15.4474 73.1644 15.7982 72.869 16.0937C72.5737 16.3892 72.223 16.6236 71.837 16.7836C71.451 16.9435 71.0373 17.0258 70.6195 17.0258C70.2017 17.0258 69.788 16.9435 69.4021 16.7836C69.0161 16.6236 68.6654 16.3892 68.37 16.0937C68.0746 15.7982 67.8404 15.4474 67.6806 15.0613C67.5208 14.6753 67.4386 14.2615 67.4388 13.8437V13.8437Z" fill="white" stroke="black" stroke-width="0.195402" stroke-linecap="square"/>
<path d="M66.2978 9.50763L74.9409 9.50763V0.863621L66.2978 0.863621V9.50763Z" fill="black" stroke="black" stroke-width="0.197227" stroke-linecap="square"/>
<path d="M67.4388 5.18564C67.4386 4.7678 67.5208 4.35403 67.6806 3.96796C67.8404 3.58189 68.0746 3.23108 68.37 2.93558C68.6654 2.64007 69.0161 2.40566 69.4021 2.24573C69.788 2.0858 70.2017 2.00348 70.6195 2.00348C71.0373 2.00348 71.451 2.0858 71.837 2.24573C72.223 2.40566 72.5737 2.64007 72.869 2.93558C73.1644 3.23108 73.3987 3.58189 73.5585 3.96796C73.7183 4.35403 73.8004 4.7678 73.8003 5.18564C73.8004 5.60347 73.7183 6.01725 73.5585 6.40332C73.3987 6.78939 73.1644 7.14019 72.869 7.4357C72.5737 7.7312 72.223 7.96562 71.837 8.12555C71.451 8.28548 71.0373 8.3678 70.6195 8.3678C70.2017 8.3678 69.788 8.28548 69.4021 8.12555C69.0161 7.96562 68.6654 7.7312 68.37 7.4357C68.0746 7.14019 67.8404 6.78939 67.6806 6.40332C67.5208 6.01725 67.4386 5.60347 67.4388 5.18564V5.18564Z" fill="white" stroke="black" stroke-width="0.195402" stroke-linecap="square"/>
<path d="M57.579 70H66.2222V61.356H57.579V70Z" fill="black" stroke="black" stroke-width="0.197227" stroke-linecap="square"/>
<path d="M58.72 65.678C58.7199 65.2602 58.802 64.8464 58.9618 64.4603C59.1216 64.0743 59.3559 63.7235 59.6513 63.428C59.9466 63.1325 60.2973 62.898 60.6833 62.7381C61.0693 62.5782 61.483 62.4959 61.9008 62.4959C62.3186 62.4959 62.7323 62.5782 63.1183 62.7381C63.5042 62.898 63.8549 63.1325 64.1503 63.428C64.4457 63.7235 64.6799 64.0743 64.8397 64.4603C64.9995 64.8464 65.0817 65.2602 65.0815 65.678C65.0817 66.0958 64.9995 66.5096 64.8397 66.8957C64.6799 67.2818 64.4457 67.6326 64.1503 67.9281C63.8549 68.2236 63.5042 68.458 63.1183 68.6179C62.7323 68.7779 62.3186 68.8602 61.9008 68.8602C61.483 68.8602 61.0693 68.7779 60.6833 68.6179C60.2973 68.458 59.9466 68.2236 59.6513 67.9281C59.3559 67.6326 59.1216 67.2818 58.9618 66.8957C58.802 66.5096 58.7199 66.0958 58.72 65.678V65.678Z" fill="white" stroke="black" stroke-width="0.195402" stroke-linecap="square"/>
<path d="M57.64 61.4557H66.2832V52.8117H57.64V61.4557Z" fill="black" stroke="black" stroke-width="0.197227" stroke-linecap="square"/>
<path d="M58.781 57.1337C58.7809 56.7159 58.8631 56.3021 59.0229 55.916C59.1826 55.53 59.4169 55.1791 59.7123 54.8836C60.0077 54.5881 60.3584 54.3537 60.7443 54.1938C61.1303 54.0339 61.544 53.9515 61.9618 53.9515C62.3796 53.9515 62.7933 54.0339 63.1793 54.1938C63.5653 54.3537 63.916 54.5881 64.2113 54.8836C64.5067 55.1791 64.741 55.53 64.9008 55.916C65.0606 56.3021 65.1427 56.7159 65.1426 57.1337C65.1427 57.5515 65.0606 57.9653 64.9008 58.3514C64.741 58.7374 64.5067 59.0883 64.2113 59.3838C63.916 59.6793 63.5653 59.9137 63.1793 60.0736C62.7933 60.2335 62.3796 60.3159 61.9618 60.3159C61.544 60.3159 61.1303 60.2335 60.7443 60.0736C60.3584 59.9137 60.0077 59.6793 59.7123 59.3838C59.4169 59.0883 59.1826 58.7374 59.0229 58.3514C58.8631 57.9653 58.7809 57.5515 58.781 57.1337V57.1337Z" fill="white" stroke="black" stroke-width="0.195402" stroke-linecap="square"/>
<path d="M57.64 52.7977H66.2832V44.1537H57.64V52.7977Z" fill="black" stroke="black" stroke-width="0.197227" stroke-linecap="square"/>
<path d="M58.781 48.4757C58.7809 48.0578 58.8631 47.6441 59.0229 47.258C59.1826 46.8719 59.4169 46.5211 59.7123 46.2256C60.0077 45.9301 60.3584 45.6957 60.7443 45.5358C61.1303 45.3758 61.544 45.2935 61.9618 45.2935C62.3796 45.2935 62.7933 45.3758 63.1793 45.5358C63.5653 45.6957 63.916 45.9301 64.2113 46.2256C64.5067 46.5211 64.741 46.8719 64.9008 47.258C65.0606 47.6441 65.1427 48.0578 65.1426 48.4757C65.1427 48.8935 65.0606 49.3073 64.9008 49.6934C64.741 50.0794 64.5067 50.4302 64.2113 50.7257C63.916 51.0212 63.5653 51.2557 63.1793 51.4156C62.7933 51.5755 62.3796 51.6578 61.9618 51.6578C61.544 51.6578 61.1303 51.5755 60.7443 51.4156C60.3584 51.2557 60.0077 51.0212 59.7123 50.7257C59.4169 50.4302 59.1826 50.0794 59.0229 49.6934C58.8631 49.3073 58.7809 48.8935 58.781 48.4757V48.4757Z" fill="white" stroke="black" stroke-width="0.195402" stroke-linecap="square"/>
<path d="M57.64 44.1396H66.2832V35.4956H57.64V44.1396Z" fill="black" stroke="black" stroke-width="0.197227" stroke-linecap="square"/>
<path d="M58.781 39.8177C58.7809 39.3998 58.8631 38.9861 59.0229 38.6C59.1826 38.2139 59.4169 37.8631 59.7123 37.5676C60.0077 37.2721 60.3584 37.0377 60.7443 36.8778C61.1303 36.7178 61.544 36.6355 61.9618 36.6355C62.3796 36.6355 62.7933 36.7178 63.1793 36.8778C63.5653 37.0377 63.916 37.2721 64.2113 37.5676C64.5067 37.8631 64.741 38.2139 64.9008 38.6C65.0606 38.9861 65.1427 39.3998 65.1426 39.8177C65.1427 40.2355 65.0606 40.6493 64.9008 41.0353C64.741 41.4214 64.5067 41.7722 64.2113 42.0677C63.916 42.3632 63.5653 42.5976 63.1793 42.7576C62.7933 42.9175 62.3796 42.9998 61.9618 42.9998C61.544 42.9998 61.1303 42.9175 60.7443 42.7576C60.3584 42.5976 60.0077 42.3632 59.7123 42.0677C59.4169 41.7722 59.1826 41.4214 59.0229 41.0353C58.8631 40.6493 58.7809 40.2355 58.781 39.8177V39.8177Z" fill="white" stroke="black" stroke-width="0.195402" stroke-linecap="square"/>
<path d="M57.64 35.4817H66.2832V26.8377H57.64V35.4817Z" fill="black" stroke="black" stroke-width="0.197227" stroke-linecap="square"/>
<path d="M58.781 31.1597C58.7809 30.7419 58.8631 30.3281 59.0229 29.942C59.1826 29.556 59.4169 29.2051 59.7123 28.9096C60.0077 28.6141 60.3584 28.3797 60.7443 28.2198C61.1303 28.0599 61.544 27.9775 61.9618 27.9775C62.3796 27.9775 62.7933 28.0599 63.1793 28.2198C63.5653 28.3797 63.916 28.6141 64.2113 28.9096C64.5067 29.2051 64.741 29.556 64.9008 29.942C65.0606 30.3281 65.1427 30.7419 65.1426 31.1597C65.1427 31.5775 65.0606 31.9913 64.9008 32.3774C64.741 32.7634 64.5067 33.1143 64.2113 33.4098C63.916 33.7053 63.5653 33.9397 63.1793 34.0996C62.7933 34.2595 62.3796 34.3419 61.9618 34.3419C61.544 34.3419 61.1303 34.2595 60.7443 34.0996C60.3584 33.9397 60.0077 33.7053 59.7123 33.4098C59.4169 33.1143 59.1826 32.7634 59.0229 32.3774C58.8631 31.9913 58.7809 31.5775 58.781 31.1597V31.1597Z" fill="white" stroke="black" stroke-width="0.195402" stroke-linecap="square"/>
<path d="M57.64 26.8237H66.2832V18.1797H57.64V26.8237Z" fill="black" stroke="black" stroke-width="0.197227" stroke-linecap="square"/>
<path d="M58.781 22.5017C58.7809 22.0838 58.8631 21.6701 59.0229 21.284C59.1826 20.8979 59.4169 20.5471 59.7123 20.2516C60.0077 19.9561 60.3584 19.7217 60.7443 19.5618C61.1303 19.4018 61.544 19.3195 61.9618 19.3195C62.3796 19.3195 62.7933 19.4018 63.1793 19.5618C63.5653 19.7217 63.916 19.9561 64.2113 20.2516C64.5067 20.5471 64.741 20.8979 64.9008 21.284C65.0606 21.6701 65.1427 22.0838 65.1426 22.5017C65.1427 22.9195 65.0606 23.3333 64.9008 23.7194C64.741 24.1054 64.5067 24.4562 64.2113 24.7517C63.916 25.0472 63.5653 25.2817 63.1793 25.4416C62.7933 25.6015 62.3796 25.6838 61.9618 25.6838C61.544 25.6838 61.1303 25.6015 60.7443 25.4416C60.3584 25.2817 60.0077 25.0472 59.7123 24.7517C59.4169 24.4562 59.1826 24.1054 59.0229 23.7194C58.8631 23.3333 58.7809 22.9195 58.781 22.5017V22.5017Z" fill="white" stroke="black" stroke-width="0.195402" stroke-linecap="square"/>
<path d="M57.64 18.1656H66.2832V9.52164L57.64 9.52164V18.1656Z" fill="black" stroke="black" stroke-width="0.197227" stroke-linecap="square"/>
<path d="M58.781 13.8437C58.7809 13.4258 58.8631 13.0121 59.0229 12.626C59.1826 12.2399 59.4169 11.8891 59.7123 11.5936C60.0077 11.2981 60.3584 11.0637 60.7443 10.9038C61.1303 10.7438 61.544 10.6615 61.9618 10.6615C62.3796 10.6615 62.7933 10.7438 63.1793 10.9038C63.5653 11.0637 63.916 11.2981 64.2113 11.5936C64.5067 11.8891 64.741 12.2399 64.9008 12.626C65.0606 13.0121 65.1427 13.4258 65.1426 13.8437C65.1427 14.2615 65.0606 14.6753 64.9008 15.0613C64.741 15.4474 64.5067 15.7982 64.2113 16.0937C63.916 16.3892 63.5653 16.6236 63.1793 16.7836C62.7933 16.9435 62.3796 17.0258 61.9618 17.0258C61.544 17.0258 61.1303 16.9435 60.7443 16.7836C60.3584 16.6236 60.0077 16.3892 59.7123 16.0937C59.4169 15.7982 59.1826 15.4474 59.0229 15.0613C58.8631 14.6753 58.7809 14.2615 58.781 13.8437V13.8437Z" fill="white" stroke="black" stroke-width="0.195402" stroke-linecap="square"/>
<path d="M57.64 9.50763L66.2832 9.50763V0.863621L57.64 0.863621V9.50763Z" fill="black" stroke="black" stroke-width="0.197227" stroke-linecap="square"/>
<path d="M58.781 5.18564C58.7809 4.7678 58.8631 4.35403 59.0229 3.96796C59.1826 3.58189 59.4169 3.23108 59.7123 2.93558C60.0077 2.64007 60.3584 2.40566 60.7443 2.24573C61.1303 2.0858 61.544 2.00348 61.9618 2.00348C62.3796 2.00348 62.7933 2.0858 63.1793 2.24573C63.5653 2.40566 63.916 2.64007 64.2113 2.93558C64.5067 3.23108 64.741 3.58189 64.9008 3.96796C65.0606 4.35403 65.1427 4.7678 65.1426 5.18564C65.1427 5.60347 65.0606 6.01725 64.9008 6.40332C64.741 6.78939 64.5067 7.14019 64.2113 7.4357C63.916 7.7312 63.5653 7.96562 63.1793 8.12555C62.7933 8.28548 62.3796 8.3678 61.9618 8.3678C61.544 8.3678 61.1303 8.28548 60.7443 8.12555C60.3584 7.96562 60.0077 7.7312 59.7123 7.4357C59.4169 7.14019 59.1826 6.78939 59.0229 6.40332C58.8631 6.01725 58.7809 5.60347 58.781 5.18564V5.18564Z" fill="white" stroke="black" stroke-width="0.195402" stroke-linecap="square"/>
<path d="M48.9208 70H57.564V61.356H48.9208V70Z" fill="black" stroke="black" stroke-width="0.197227" stroke-linecap="square"/>
<path d="M50.0618 65.678C50.0617 65.2602 50.1438 64.8464 50.3036 64.4603C50.4634 64.0743 50.6977 63.7235 50.993 63.428C51.2884 63.1325 51.6391 62.898 52.0251 62.7381C52.4111 62.5782 52.8248 62.4959 53.2426 62.4959C53.6604 62.4959 54.0741 62.5782 54.46 62.7381C54.846 62.898 55.1967 63.1325 55.4921 63.428C55.7875 63.7235 56.0217 64.0743 56.1815 64.4603C56.3413 64.8464 56.4235 65.2602 56.4233 65.678C56.4235 66.0958 56.3413 66.5096 56.1815 66.8957C56.0217 67.2818 55.7875 67.6326 55.4921 67.9281C55.1967 68.2236 54.846 68.458 54.46 68.6179C54.0741 68.7779 53.6604 68.8602 53.2426 68.8602C52.8248 68.8602 52.4111 68.7779 52.0251 68.6179C51.6391 68.458 51.2884 68.2236 50.993 67.9281C50.6977 67.6326 50.4634 67.2818 50.3036 66.8957C50.1438 66.5096 50.0617 66.0958 50.0618 65.678V65.678Z" fill="white" stroke="black" stroke-width="0.195402" stroke-linecap="square"/>
<path d="M48.9818 61.4557H57.625V52.8117H48.9818V61.4557Z" fill="black" stroke="black" stroke-width="0.197227" stroke-linecap="square"/>
<path d="M50.1228 57.1337C50.1227 56.7159 50.2049 56.3021 50.3647 55.916C50.5244 55.53 50.7587 55.1791 51.0541 54.8836C51.3495 54.5881 51.7002 54.3537 52.0861 54.1938C52.4721 54.0339 52.8858 53.9515 53.3036 53.9515C53.7214 53.9515 54.1351 54.0339 54.5211 54.1938C54.9071 54.3537 55.2578 54.5881 55.5531 54.8836C55.8485 55.1791 56.0828 55.53 56.2426 55.916C56.4023 56.3021 56.4845 56.7159 56.4844 57.1337C56.4845 57.5515 56.4023 57.9653 56.2426 58.3514C56.0828 58.7374 55.8485 59.0883 55.5531 59.3838C55.2578 59.6793 54.9071 59.9137 54.5211 60.0736C54.1351 60.2335 53.7214 60.3159 53.3036 60.3159C52.8858 60.3159 52.4721 60.2335 52.0861 60.0736C51.7002 59.9137 51.3495 59.6793 51.0541 59.3838C50.7587 59.0883 50.5244 58.7374 50.3647 58.3514C50.2049 57.9653 50.1227 57.5515 50.1228 57.1337V57.1337Z" fill="white" stroke="black" stroke-width="0.195402" stroke-linecap="square"/>
<path d="M48.9818 52.7977H57.625V44.1537H48.9818V52.7977Z" fill="black" stroke="black" stroke-width="0.197227" stroke-linecap="square"/>
<path d="M50.1228 48.4757C50.1227 48.0578 50.2049 47.6441 50.3647 47.258C50.5244 46.8719 50.7587 46.5211 51.0541 46.2256C51.3495 45.9301 51.7002 45.6957 52.0861 45.5358C52.4721 45.3758 52.8858 45.2935 53.3036 45.2935C53.7214 45.2935 54.1351 45.3758 54.5211 45.5358C54.9071 45.6957 55.2578 45.9301 55.5531 46.2256C55.8485 46.5211 56.0828 46.8719 56.2426 47.258C56.4023 47.6441 56.4845 48.0578 56.4844 48.4757C56.4845 48.8935 56.4023 49.3073 56.2426 49.6934C56.0828 50.0794 55.8485 50.4302 55.5531 50.7257C55.2578 51.0212 54.9071 51.2557 54.5211 51.4156C54.1351 51.5755 53.7214 51.6578 53.3036 51.6578C52.8858 51.6578 52.4721 51.5755 52.0861 51.4156C51.7002 51.2557 51.3495 51.0212 51.0541 50.7257C50.7587 50.4302 50.5244 50.0794 50.3647 49.6934C50.2049 49.3073 50.1227 48.8935 50.1228 48.4757V48.4757Z" fill="white" stroke="black" stroke-width="0.195402" stroke-linecap="square"/>
<path d="M48.9818 44.1396H57.625V35.4956H48.9818V44.1396Z" fill="black" stroke="black" stroke-width="0.197227" stroke-linecap="square"/>
<path d="M50.1228 39.8177C50.1227 39.3998 50.2049 38.9861 50.3647 38.6C50.5244 38.2139 50.7587 37.8631 51.0541 37.5676C51.3495 37.2721 51.7002 37.0377 52.0861 36.8778C52.4721 36.7178 52.8858 36.6355 53.3036 36.6355C53.7214 36.6355 54.1351 36.7178 54.5211 36.8778C54.9071 37.0377 55.2578 37.2721 55.5531 37.5676C55.8485 37.8631 56.0828 38.2139 56.2426 38.6C56.4023 38.9861 56.4845 39.3998 56.4844 39.8177C56.4845 40.2355 56.4023 40.6493 56.2426 41.0353C56.0828 41.4214 55.8485 41.7722 55.5531 42.0677C55.2578 42.3632 54.9071 42.5976 54.5211 42.7576C54.1351 42.9175 53.7214 42.9998 53.3036 42.9998C52.8858 42.9998 52.4721 42.9175 52.0861 42.7576C51.7002 42.5976 51.3495 42.3632 51.0541 42.0677C50.7587 41.7722 50.5244 41.4214 50.3647 41.0353C50.2049 40.6493 50.1227 40.2355 50.1228 39.8177V39.8177Z" fill="white" stroke="black" stroke-width="0.195402" stroke-linecap="square"/>
<path d="M48.9818 35.4817H57.625V26.8377H48.9818V35.4817Z" fill="black" stroke="black" stroke-width="0.197227" stroke-linecap="square"/>
<path d="M50.1228 31.1597C50.1227 30.7419 50.2049 30.3281 50.3647 29.942C50.5244 29.556 50.7587 29.2051 51.0541 28.9096C51.3495 28.6141 51.7002 28.3797 52.0861 28.2198C52.4721 28.0599 52.8858 27.9775 53.3036 27.9775C53.7214 27.9775 54.1351 28.0599 54.5211 28.2198C54.9071 28.3797 55.2578 28.6141 55.5531 28.9096C55.8485 29.2051 56.0828 29.556 56.2426 29.942C56.4023 30.3281 56.4845 30.7419 56.4844 31.1597C56.4845 31.5775 56.4023 31.9913 56.2426 32.3774C56.0828 32.7634 55.8485 33.1143 55.5531 33.4098C55.2578 33.7053 54.9071 33.9397 54.5211 34.0996C54.1351 34.2595 53.7214 34.3419 53.3036 34.3419C52.8858 34.3419 52.4721 34.2595 52.0861 34.0996C51.7002 33.9397 51.3495 33.7053 51.0541 33.4098C50.7587 33.1143 50.5244 32.7634 50.3647 32.3774C50.2049 31.9913 50.1227 31.5775 50.1228 31.1597V31.1597Z" fill="white" stroke="black" stroke-width="0.195402" stroke-linecap="square"/>
<path d="M48.9818 26.8237H57.625V18.1797H48.9818V26.8237Z" fill="black" stroke="black" stroke-width="0.197227" stroke-linecap="square"/>
<path d="M50.1228 22.5017C50.1227 22.0838 50.2049 21.6701 50.3647 21.284C50.5244 20.8979 50.7587 20.5471 51.0541 20.2516C51.3495 19.9561 51.7002 19.7217 52.0861 19.5618C52.4721 19.4018 52.8858 19.3195 53.3036 19.3195C53.7214 19.3195 54.1351 19.4018 54.5211 19.5618C54.9071 19.7217 55.2578 19.9561 55.5531 20.2516C55.8485 20.5471 56.0828 20.8979 56.2426 21.284C56.4023 21.6701 56.4845 22.0838 56.4844 22.5017C56.4845 22.9195 56.4023 23.3333 56.2426 23.7194C56.0828 24.1054 55.8485 24.4562 55.5531 24.7517C55.2578 25.0472 54.9071 25.2817 54.5211 25.4416C54.1351 25.6015 53.7214 25.6838 53.3036 25.6838C52.8858 25.6838 52.4721 25.6015 52.0861 25.4416C51.7002 25.2817 51.3495 25.0472 51.0541 24.7517C50.7587 24.4562 50.5244 24.1054 50.3647 23.7194C50.2049 23.3333 50.1227 22.9195 50.1228 22.5017V22.5017Z" fill="white" stroke="black" stroke-width="0.195402" stroke-linecap="square"/>
<path d="M48.9818 18.1656H57.625V9.52164L48.9818 9.52164V18.1656Z" fill="black" stroke="black" stroke-width="0.197227" stroke-linecap="square"/>
<path d="M50.1228 13.8437C50.1227 13.4258 50.2049 13.0121 50.3647 12.626C50.5244 12.2399 50.7587 11.8891 51.0541 11.5936C51.3495 11.2981 51.7002 11.0637 52.0861 10.9038C52.4721 10.7438 52.8858 10.6615 53.3036 10.6615C53.7214 10.6615 54.1351 10.7438 54.5211 10.9038C54.9071 11.0637 55.2578 11.2981 55.5531 11.5936C55.8485 11.8891 56.0828 12.2399 56.2426 12.626C56.4023 13.0121 56.4845 13.4258 56.4844 13.8437C56.4845 14.2615 56.4023 14.6753 56.2426 15.0613C56.0828 15.4474 55.8485 15.7982 55.5531 16.0937C55.2578 16.3892 54.9071 16.6236 54.5211 16.7836C54.1351 16.9435 53.7214 17.0258 53.3036 17.0258C52.8858 17.0258 52.4721 16.9435 52.0861 16.7836C51.7002 16.6236 51.3495 16.3892 51.0541 16.0937C50.7587 15.7982 50.5244 15.4474 50.3647 15.0613C50.2049 14.6753 50.1227 14.2615 50.1228 13.8437V13.8437Z" fill="white" stroke="black" stroke-width="0.195402" stroke-linecap="square"/>
<path d="M48.9818 9.50763L57.625 9.50763V0.863621L48.9818 0.863621V9.50763Z" fill="black" stroke="black" stroke-width="0.197227" stroke-linecap="square"/>
<path d="M50.1228 5.18564C50.1227 4.7678 50.2049 4.35403 50.3647 3.96796C50.5244 3.58189 50.7587 3.23108 51.0541 2.93558C51.3495 2.64007 51.7002 2.40566 52.0861 2.24573C52.4721 2.0858 52.8858 2.00348 53.3036 2.00348C53.7214 2.00348 54.1351 2.0858 54.5211 2.24573C54.9071 2.40566 55.2578 2.64007 55.5531 2.93558C55.8485 3.23108 56.0828 3.58189 56.2426 3.96796C56.4023 4.35403 56.4845 4.7678 56.4844 5.18564C56.4845 5.60347 56.4023 6.01725 56.2426 6.40332C56.0828 6.78939 55.8485 7.14019 55.5531 7.4357C55.2578 7.7312 54.9071 7.96562 54.5211 8.12555C54.1351 8.28548 53.7214 8.3678 53.3036 8.3678C52.8858 8.3678 52.4721 8.28548 52.0861 8.12555C51.7002 7.96562 51.3495 7.7312 51.0541 7.4357C50.7587 7.14019 50.5244 6.78939 50.3647 6.40332C50.2049 6.01725 50.1227 5.60347 50.1228 5.18564V5.18564Z" fill="white" stroke="black" stroke-width="0.195402" stroke-linecap="square"/>
<path d="M40.2631 70H48.9062V61.356H40.2631V70Z" fill="black" stroke="black" stroke-width="0.197227" stroke-linecap="square"/>
<path d="M41.4041 65.678C41.4039 65.2602 41.4861 64.8464 41.6459 64.4603C41.8057 64.0743 42.04 63.7235 42.3353 63.428C42.6307 63.1325 42.9814 62.898 43.3674 62.7381C43.7534 62.5782 44.1671 62.4959 44.5849 62.4959C45.0027 62.4959 45.4164 62.5782 45.8023 62.7381C46.1883 62.898 46.539 63.1325 46.8344 63.428C47.1298 63.7235 47.364 64.0743 47.5238 64.4603C47.6836 64.8464 47.7658 65.2602 47.7656 65.678C47.7658 66.0958 47.6836 66.5096 47.5238 66.8957C47.364 67.2818 47.1298 67.6326 46.8344 67.9281C46.539 68.2236 46.1883 68.458 45.8023 68.6179C45.4164 68.7779 45.0027 68.8602 44.5849 68.8602C44.1671 68.8602 43.7534 68.7779 43.3674 68.6179C42.9814 68.458 42.6307 68.2236 42.3353 67.9281C42.04 67.6326 41.8057 67.2818 41.6459 66.8957C41.4861 66.5096 41.4039 66.0958 41.4041 65.678V65.678Z" fill="white" stroke="black" stroke-width="0.195402" stroke-linecap="square"/>
<path d="M40.3241 61.4557H48.9673V52.8117H40.3241V61.4557Z" fill="black" stroke="black" stroke-width="0.197227" stroke-linecap="square"/>
<path d="M41.4651 57.1337C41.465 56.7159 41.5472 56.3021 41.7069 55.916C41.8667 55.53 42.101 55.1791 42.3964 54.8836C42.6917 54.5881 43.0424 54.3537 43.4284 54.1938C43.8144 54.0339 44.2281 53.9515 44.6459 53.9515C45.0637 53.9515 45.4774 54.0339 45.8634 54.1938C46.2493 54.3537 46.6 54.5881 46.8954 54.8836C47.1908 55.1791 47.4251 55.53 47.5848 55.916C47.7446 56.3021 47.8268 56.7159 47.8267 57.1337C47.8268 57.5515 47.7446 57.9653 47.5848 58.3514C47.4251 58.7374 47.1908 59.0883 46.8954 59.3838C46.6 59.6793 46.2493 59.9137 45.8634 60.0736C45.4774 60.2335 45.0637 60.3159 44.6459 60.3159C44.2281 60.3159 43.8144 60.2335 43.4284 60.0736C43.0424 59.9137 42.6917 59.6793 42.3964 59.3838C42.101 59.0883 41.8667 58.7374 41.7069 58.3514C41.5472 57.9653 41.465 57.5515 41.4651 57.1337V57.1337Z" fill="white" stroke="black" stroke-width="0.195402" stroke-linecap="square"/>
<path d="M40.3241 52.7977H48.9673V44.1537H40.3241V52.7977Z" fill="black" stroke="black" stroke-width="0.197227" stroke-linecap="square"/>
<path d="M41.4651 48.4757C41.465 48.0578 41.5472 47.6441 41.7069 47.258C41.8667 46.8719 42.101 46.5211 42.3964 46.2256C42.6917 45.9301 43.0424 45.6957 43.4284 45.5358C43.8144 45.3758 44.2281 45.2935 44.6459 45.2935C45.0637 45.2935 45.4774 45.3758 45.8634 45.5358C46.2493 45.6957 46.6 45.9301 46.8954 46.2256C47.1908 46.5211 47.4251 46.8719 47.5848 47.258C47.7446 47.6441 47.8268 48.0578 47.8267 48.4757C47.8268 48.8935 47.7446 49.3073 47.5848 49.6934C47.4251 50.0794 47.1908 50.4302 46.8954 50.7257C46.6 51.0212 46.2493 51.2557 45.8634 51.4156C45.4774 51.5755 45.0637 51.6578 44.6459 51.6578C44.2281 51.6578 43.8144 51.5755 43.4284 51.4156C43.0424 51.2557 42.6917 51.0212 42.3964 50.7257C42.101 50.4302 41.8667 50.0794 41.7069 49.6934C41.5472 49.3073 41.465 48.8935 41.4651 48.4757V48.4757Z" fill="white" stroke="black" stroke-width="0.195402" stroke-linecap="square"/>
<path d="M40.3241 44.1396H48.9673V35.4956H40.3241V44.1396Z" fill="black" stroke="black" stroke-width="0.197227" stroke-linecap="square"/>
<path d="M41.4651 39.8177C41.465 39.3998 41.5472 38.9861 41.7069 38.6C41.8667 38.2139 42.101 37.8631 42.3964 37.5676C42.6917 37.2721 43.0424 37.0377 43.4284 36.8778C43.8144 36.7178 44.2281 36.6355 44.6459 36.6355C45.0637 36.6355 45.4774 36.7178 45.8634 36.8778C46.2493 37.0377 46.6 37.2721 46.8954 37.5676C47.1908 37.8631 47.4251 38.2139 47.5848 38.6C47.7446 38.9861 47.8268 39.3998 47.8267 39.8177C47.8268 40.2355 47.7446 40.6493 47.5848 41.0353C47.4251 41.4214 47.1908 41.7722 46.8954 42.0677C46.6 42.3632 46.2493 42.5976 45.8634 42.7576C45.4774 42.9175 45.0637 42.9998 44.6459 42.9998C44.2281 42.9998 43.8144 42.9175 43.4284 42.7576C43.0424 42.5976 42.6917 42.3632 42.3964 42.0677C42.101 41.7722 41.8667 41.4214 41.7069 41.0353C41.5472 40.6493 41.465 40.2355 41.4651 39.8177V39.8177Z" fill="white" stroke="black" stroke-width="0.195402" stroke-linecap="square"/>
<path d="M40.3241 35.4817H48.9673V26.8377H40.3241V35.4817Z" fill="black" stroke="black" stroke-width="0.197227" stroke-linecap="square"/>
<path d="M41.4651 31.1597C41.465 30.7419 41.5472 30.3281 41.7069 29.942C41.8667 29.556 42.101 29.2051 42.3964 28.9096C42.6917 28.6141 43.0424 28.3797 43.4284 28.2198C43.8144 28.0599 44.2281 27.9775 44.6459 27.9775C45.0637 27.9775 45.4774 28.0599 45.8634 28.2198C46.2493 28.3797 46.6 28.6141 46.8954 28.9096C47.1908 29.2051 47.4251 29.556 47.5848 29.942C47.7446 30.3281 47.8268 30.7419 47.8267 31.1597C47.8268 31.5775 47.7446 31.9913 47.5848 32.3774C47.4251 32.7634 47.1908 33.1143 46.8954 33.4098C46.6 33.7053 46.2493 33.9397 45.8634 34.0996C45.4774 34.2595 45.0637 34.3419 44.6459 34.3419C44.2281 34.3419 43.8144 34.2595 43.4284 34.0996C43.0424 33.9397 42.6917 33.7053 42.3964 33.4098C42.101 33.1143 41.8667 32.7634 41.7069 32.3774C41.5472 31.9913 41.465 31.5775 41.4651 31.1597V31.1597Z" fill="white" stroke="black" stroke-width="0.195402" stroke-linecap="square"/>
<path d="M40.3241 26.8237H48.9673V18.1797H40.3241V26.8237Z" fill="black" stroke="black" stroke-width="0.197227" stroke-linecap="square"/>
<path d="M41.4651 22.5017C41.465 22.0838 41.5472 21.6701 41.7069 21.284C41.8667 20.8979 42.101 20.5471 42.3964 20.2516C42.6917 19.9561 43.0424 19.7217 43.4284 19.5618C43.8144 19.4018 44.2281 19.3195 44.6459 19.3195C45.0637 19.3195 45.4774 19.4018 45.8634 19.5618C46.2493 19.7217 46.6 19.9561 46.8954 20.2516C47.1908 20.5471 47.4251 20.8979 47.5848 21.284C47.7446 21.6701 47.8268 22.0838 47.8267 22.5017C47.8268 22.9195 47.7446 23.3333 47.5848 23.7194C47.4251 24.1054 47.1908 24.4562 46.8954 24.7517C46.6 25.0472 46.2493 25.2817 45.8634 25.4416C45.4774 25.6015 45.0637 25.6838 44.6459 25.6838C44.2281 25.6838 43.8144 25.6015 43.4284 25.4416C43.0424 25.2817 42.6917 25.0472 42.3964 24.7517C42.101 24.4562 41.8667 24.1054 41.7069 23.7194C41.5472 23.3333 41.465 22.9195 41.4651 22.5017V22.5017Z" fill="white" stroke="black" stroke-width="0.195402" stroke-linecap="square"/>
<path d="M40.3241 18.1656H48.9673V9.52164L40.3241 9.52164V18.1656Z" fill="black" stroke="black" stroke-width="0.197227" stroke-linecap="square"/>
<path d="M41.4651 13.8437C41.465 13.4258 41.5472 13.0121 41.7069 12.626C41.8667 12.2399 42.101 11.8891 42.3964 11.5936C42.6917 11.2981 43.0424 11.0637 43.4284 10.9038C43.8144 10.7438 44.2281 10.6615 44.6459 10.6615C45.0637 10.6615 45.4774 10.7438 45.8634 10.9038C46.2493 11.0637 46.6 11.2981 46.8954 11.5936C47.1908 11.8891 47.4251 12.2399 47.5848 12.626C47.7446 13.0121 47.8268 13.4258 47.8267 13.8437C47.8268 14.2615 47.7446 14.6753 47.5848 15.0613C47.4251 15.4474 47.1908 15.7982 46.8954 16.0937C46.6 16.3892 46.2493 16.6236 45.8634 16.7836C45.4774 16.9435 45.0637 17.0258 44.6459 17.0258C44.2281 17.0258 43.8144 16.9435 43.4284 16.7836C43.0424 16.6236 42.6917 16.3892 42.3964 16.0937C42.101 15.7982 41.8667 15.4474 41.7069 15.0613C41.5472 14.6753 41.465 14.2615 41.4651 13.8437V13.8437Z" fill="white" stroke="black" stroke-width="0.195402" stroke-linecap="square"/>
<path d="M40.3241 9.50763L48.9673 9.50763V0.863621L40.3241 0.863621V9.50763Z" fill="black" stroke="black" stroke-width="0.197227" stroke-linecap="square"/>
<path d="M41.4651 5.18564C41.465 4.7678 41.5472 4.35403 41.7069 3.96796C41.8667 3.58189 42.101 3.23108 42.3964 2.93558C42.6917 2.64007 43.0424 2.40566 43.4284 2.24573C43.8144 2.0858 44.2281 2.00348 44.6459 2.00348C45.0637 2.00348 45.4774 2.0858 45.8634 2.24573C46.2493 2.40566 46.6 2.64007 46.8954 2.93558C47.1908 3.23108 47.4251 3.58189 47.5848 3.96796C47.7446 4.35403 47.8268 4.7678 47.8267 5.18564C47.8268 5.60347 47.7446 6.01725 47.5848 6.40332C47.4251 6.78939 47.1908 7.14019 46.8954 7.4357C46.6 7.7312 46.2493 7.96562 45.8634 8.12555C45.4774 8.28548 45.0637 8.3678 44.6459 8.3678C44.2281 8.3678 43.8144 8.28548 43.4284 8.12555C43.0424 7.96562 42.6917 7.7312 42.3964 7.4357C42.101 7.14019 41.8667 6.78939 41.7069 6.40332C41.5472 6.01725 41.465 5.60347 41.4651 5.18564V5.18564Z" fill="white" stroke="black" stroke-width="0.195402" stroke-linecap="square"/>
<path d="M31.6049 70H40.248V61.356H31.6049V70Z" fill="black" stroke="black" stroke-width="0.197227" stroke-linecap="square"/>
<path d="M32.7459 65.678C32.7458 65.2602 32.8279 64.8464 32.9877 64.4603C33.1475 64.0743 33.3818 63.7235 33.6771 63.428C33.9725 63.1325 34.3232 62.898 34.7092 62.7381C35.0952 62.5782 35.5089 62.4959 35.9267 62.4959C36.3445 62.4959 36.7582 62.5782 37.1441 62.7381C37.5301 62.898 37.8808 63.1325 38.1762 63.428C38.4716 63.7235 38.7058 64.0743 38.8656 64.4603C39.0254 64.8464 39.1076 65.2602 39.1074 65.678C39.1076 66.0958 39.0254 66.5096 38.8656 66.8957C38.7058 67.2818 38.4716 67.6326 38.1762 67.9281C37.8808 68.2236 37.5301 68.458 37.1441 68.6179C36.7582 68.7779 36.3445 68.8602 35.9267 68.8602C35.5089 68.8602 35.0952 68.7779 34.7092 68.6179C34.3232 68.458 33.9725 68.2236 33.6771 67.9281C33.3818 67.6326 33.1475 67.2818 32.9877 66.8957C32.8279 66.5096 32.7458 66.0958 32.7459 65.678V65.678Z" fill="white" stroke="black" stroke-width="0.195402" stroke-linecap="square"/>
<path d="M31.6659 61.4557H40.3091V52.8117H31.6659V61.4557Z" fill="black" stroke="black" stroke-width="0.197227" stroke-linecap="square"/>
<path d="M32.8069 57.1337C32.8068 56.7159 32.8889 56.3021 33.0487 55.916C33.2085 55.53 33.4428 55.1791 33.7382 54.8836C34.0335 54.5881 34.3842 54.3537 34.7702 54.1938C35.1562 54.0339 35.5699 53.9515 35.9877 53.9515C36.4055 53.9515 36.8192 54.0339 37.2052 54.1938C37.5911 54.3537 37.9418 54.5881 38.2372 54.8836C38.5326 55.1791 38.7669 55.53 38.9266 55.916C39.0864 56.3021 39.1686 56.7159 39.1685 57.1337C39.1686 57.5515 39.0864 57.9653 38.9266 58.3514C38.7669 58.7374 38.5326 59.0883 38.2372 59.3838C37.9418 59.6793 37.5911 59.9137 37.2052 60.0736C36.8192 60.2335 36.4055 60.3159 35.9877 60.3159C35.5699 60.3159 35.1562 60.2335 34.7702 60.0736C34.3842 59.9137 34.0335 59.6793 33.7382 59.3838C33.4428 59.0883 33.2085 58.7374 33.0487 58.3514C32.8889 57.9653 32.8068 57.5515 32.8069 57.1337V57.1337Z" fill="white" stroke="black" stroke-width="0.195402" stroke-linecap="square"/>
<path d="M31.6659 52.7977H40.3091V44.1537H31.6659V52.7977Z" fill="black" stroke="black" stroke-width="0.197227" stroke-linecap="square"/>
<path d="M32.8069 48.4757C32.8068 48.0578 32.8889 47.6441 33.0487 47.258C33.2085 46.8719 33.4428 46.5211 33.7382 46.2256C34.0335 45.9301 34.3842 45.6957 34.7702 45.5358C35.1562 45.3758 35.5699 45.2935 35.9877 45.2935C36.4055 45.2935 36.8192 45.3758 37.2052 45.5358C37.5911 45.6957 37.9418 45.9301 38.2372 46.2256C38.5326 46.5211 38.7669 46.8719 38.9266 47.258C39.0864 47.6441 39.1686 48.0578 39.1685 48.4757C39.1686 48.8935 39.0864 49.3073 38.9266 49.6934C38.7669 50.0794 38.5326 50.4302 38.2372 50.7257C37.9418 51.0212 37.5911 51.2557 37.2052 51.4156C36.8192 51.5755 36.4055 51.6578 35.9877 51.6578C35.5699 51.6578 35.1562 51.5755 34.7702 51.4156C34.3842 51.2557 34.0335 51.0212 33.7382 50.7257C33.4428 50.4302 33.2085 50.0794 33.0487 49.6934C32.8889 49.3073 32.8068 48.8935 32.8069 48.4757V48.4757Z" fill="white" stroke="black" stroke-width="0.195402" stroke-linecap="square"/>
<path d="M31.6659 44.1396H40.3091V35.4956H31.6659V44.1396Z" fill="black" stroke="black" stroke-width="0.197227" stroke-linecap="square"/>
<path d="M32.8069 39.8177C32.8068 39.3998 32.8889 38.9861 33.0487 38.6C33.2085 38.2139 33.4428 37.8631 33.7382 37.5676C34.0335 37.2721 34.3842 37.0377 34.7702 36.8778C35.1562 36.7178 35.5699 36.6355 35.9877 36.6355C36.4055 36.6355 36.8192 36.7178 37.2052 36.8778C37.5911 37.0377 37.9418 37.2721 38.2372 37.5676C38.5326 37.8631 38.7669 38.2139 38.9266 38.6C39.0864 38.9861 39.1686 39.3998 39.1685 39.8177C39.1686 40.2355 39.0864 40.6493 38.9266 41.0353C38.7669 41.4214 38.5326 41.7722 38.2372 42.0677C37.9418 42.3632 37.5911 42.5976 37.2052 42.7576C36.8192 42.9175 36.4055 42.9998 35.9877 42.9998C35.5699 42.9998 35.1562 42.9175 34.7702 42.7576C34.3842 42.5976 34.0335 42.3632 33.7382 42.0677C33.4428 41.7722 33.2085 41.4214 33.0487 41.0353C32.8889 40.6493 32.8068 40.2355 32.8069 39.8177V39.8177Z" fill="white" stroke="black" stroke-width="0.195402" stroke-linecap="square"/>
<path d="M31.6659 35.4817H40.3091V26.8377H31.6659V35.4817Z" fill="black" stroke="black" stroke-width="0.197227" stroke-linecap="square"/>
<path d="M32.8069 31.1597C32.8068 30.7419 32.8889 30.3281 33.0487 29.942C33.2085 29.556 33.4428 29.2051 33.7382 28.9096C34.0335 28.6141 34.3842 28.3797 34.7702 28.2198C35.1562 28.0599 35.5699 27.9775 35.9877 27.9775C36.4055 27.9775 36.8192 28.0599 37.2052 28.2198C37.5911 28.3797 37.9418 28.6141 38.2372 28.9096C38.5326 29.2051 38.7669 29.556 38.9266 29.942C39.0864 30.3281 39.1686 30.7419 39.1685 31.1597C39.1686 31.5775 39.0864 31.9913 38.9266 32.3774C38.7669 32.7634 38.5326 33.1143 38.2372 33.4098C37.9418 33.7053 37.5911 33.9397 37.2052 34.0996C36.8192 34.2595 36.4055 34.3419 35.9877 34.3419C35.5699 34.3419 35.1562 34.2595 34.7702 34.0996C34.3842 33.9397 34.0335 33.7053 33.7382 33.4098C33.4428 33.1143 33.2085 32.7634 33.0487 32.3774C32.8889 31.9913 32.8068 31.5775 32.8069 31.1597V31.1597Z" fill="white" stroke="black" stroke-width="0.195402" stroke-linecap="square"/>
<path d="M31.6659 26.8237H40.3091V18.1797H31.6659V26.8237Z" fill="black" stroke="black" stroke-width="0.197227" stroke-linecap="square"/>
<path d="M32.8069 22.5017C32.8068 22.0838 32.8889 21.6701 33.0487 21.284C33.2085 20.8979 33.4428 20.5471 33.7382 20.2516C34.0335 19.9561 34.3842 19.7217 34.7702 19.5618C35.1562 19.4018 35.5699 19.3195 35.9877 19.3195C36.4055 19.3195 36.8192 19.4018 37.2052 19.5618C37.5911 19.7217 37.9418 19.9561 38.2372 20.2516C38.5326 20.5471 38.7669 20.8979 38.9266 21.284C39.0864 21.6701 39.1686 22.0838 39.1685 22.5017C39.1686 22.9195 39.0864 23.3333 38.9266 23.7194C38.7669 24.1054 38.5326 24.4562 38.2372 24.7517C37.9418 25.0472 37.5911 25.2817 37.2052 25.4416C36.8192 25.6015 36.4055 25.6838 35.9877 25.6838C35.5699 25.6838 35.1562 25.6015 34.7702 25.4416C34.3842 25.2817 34.0335 25.0472 33.7382 24.7517C33.4428 24.4562 33.2085 24.1054 33.0487 23.7194C32.8889 23.3333 32.8068 22.9195 32.8069 22.5017V22.5017Z" fill="white" stroke="black" stroke-width="0.195402" stroke-linecap="square"/>
<path d="M31.6659 18.1656H40.3091V9.52164L31.6659 9.52164V18.1656Z" fill="black" stroke="black" stroke-width="0.197227" stroke-linecap="square"/>
<path d="M32.8069 13.8437C32.8068 13.4258 32.8889 13.0121 33.0487 12.626C33.2085 12.2399 33.4428 11.8891 33.7382 11.5936C34.0335 11.2981 34.3842 11.0637 34.7702 10.9038C35.1562 10.7438 35.5699 10.6615 35.9877 10.6615C36.4055 10.6615 36.8192 10.7438 37.2052 10.9038C37.5911 11.0637 37.9418 11.2981 38.2372 11.5936C38.5326 11.8891 38.7669 12.2399 38.9266 12.626C39.0864 13.0121 39.1686 13.4258 39.1685 13.8437C39.1686 14.2615 39.0864 14.6753 38.9266 15.0613C38.7669 15.4474 38.5326 15.7982 38.2372 16.0937C37.9418 16.3892 37.5911 16.6236 37.2052 16.7836C36.8192 16.9435 36.4055 17.0258 35.9877 17.0258C35.5699 17.0258 35.1562 16.9435 34.7702 16.7836C34.3842 16.6236 34.0335 16.3892 33.7382 16.0937C33.4428 15.7982 33.2085 15.4474 33.0487 15.0613C32.8889 14.6753 32.8068 14.2615 32.8069 13.8437V13.8437Z" fill="white" stroke="black" stroke-width="0.195402" stroke-linecap="square"/>
<path d="M31.6659 9.50763L40.3091 9.50763V0.863621L31.6659 0.863621V9.50763Z" fill="black" stroke="black" stroke-width="0.197227" stroke-linecap="square"/>
<path d="M32.8069 5.18564C32.8068 4.7678 32.8889 4.35403 33.0487 3.96796C33.2085 3.58189 33.4428 3.23108 33.7382 2.93558C34.0335 2.64007 34.3842 2.40566 34.7702 2.24573C35.1562 2.0858 35.5699 2.00348 35.9877 2.00348C36.4055 2.00348 36.8192 2.0858 37.2052 2.24573C37.5911 2.40566 37.9418 2.64007 38.2372 2.93558C38.5326 3.23108 38.7669 3.58189 38.9266 3.96796C39.0864 4.35403 39.1686 4.7678 39.1685 5.18564C39.1686 5.60347 39.0864 6.01725 38.9266 6.40332C38.7669 6.78939 38.5326 7.14019 38.2372 7.4357C37.9418 7.7312 37.5911 7.96562 37.2052 8.12555C36.8192 8.28548 36.4055 8.3678 35.9877 8.3678C35.5699 8.3678 35.1562 8.28548 34.7702 8.12555C34.3842 7.96562 34.0335 7.7312 33.7382 7.4357C33.4428 7.14019 33.2085 6.78939 33.0487 6.40332C32.8889 6.01725 32.8068 5.60347 32.8069 5.18564V5.18564Z" fill="white" stroke="black" stroke-width="0.195402" stroke-linecap="square"/>
<path d="M22.9467 70H31.5898V61.356H22.9467V70Z" fill="black" stroke="black" stroke-width="0.197227" stroke-linecap="square"/>
<path d="M24.0877 65.678C24.0875 65.2602 24.1697 64.8464 24.3295 64.4603C24.4893 64.0743 24.7236 63.7235 25.0189 63.428C25.3143 63.1325 25.665 62.898 26.051 62.7381C26.437 62.5782 26.8507 62.4959 27.2685 62.4959C27.6862 62.4959 28.0999 62.5782 28.4859 62.7381C28.8719 62.898 29.2226 63.1325 29.518 63.428C29.8133 63.7235 30.0476 64.0743 30.2074 64.4603C30.3672 64.8464 30.4494 65.2602 30.4492 65.678C30.4494 66.0958 30.3672 66.5096 30.2074 66.8957C30.0476 67.2818 29.8133 67.6326 29.518 67.9281C29.2226 68.2236 28.8719 68.458 28.4859 68.6179C28.0999 68.7779 27.6862 68.8602 27.2685 68.8602C26.8507 68.8602 26.437 68.7779 26.051 68.6179C25.665 68.458 25.3143 68.2236 25.0189 67.9281C24.7236 67.6326 24.4893 67.2818 24.3295 66.8957C24.1697 66.5096 24.0875 66.0958 24.0877 65.678V65.678Z" fill="white" stroke="black" stroke-width="0.195402" stroke-linecap="square"/>
<path d="M23.0077 61.4557H31.6509V52.8117H23.0077V61.4557Z" fill="black" stroke="black" stroke-width="0.197227" stroke-linecap="square"/>
<path d="M24.1487 57.1337C24.1486 56.7159 24.2307 56.3021 24.3905 55.916C24.5503 55.53 24.7846 55.1791 25.08 54.8836C25.3753 54.5881 25.726 54.3537 26.112 54.1938C26.498 54.0339 26.9117 53.9515 27.3295 53.9515C27.7473 53.9515 28.161 54.0339 28.547 54.1938C28.9329 54.3537 29.2836 54.5881 29.579 54.8836C29.8744 55.1791 30.1087 55.53 30.2684 55.916C30.4282 56.3021 30.5104 56.7159 30.5103 57.1337C30.5104 57.5515 30.4282 57.9653 30.2684 58.3514C30.1087 58.7374 29.8744 59.0883 29.579 59.3838C29.2836 59.6793 28.9329 59.9137 28.547 60.0736C28.161 60.2335 27.7473 60.3159 27.3295 60.3159C26.9117 60.3159 26.498 60.2335 26.112 60.0736C25.726 59.9137 25.3753 59.6793 25.08 59.3838C24.7846 59.0883 24.5503 58.7374 24.3905 58.3514C24.2307 57.9653 24.1486 57.5515 24.1487 57.1337V57.1337Z" fill="white" stroke="black" stroke-width="0.195402" stroke-linecap="square"/>
<path d="M23.0077 52.7977H31.6509V44.1537H23.0077V52.7977Z" fill="black" stroke="black" stroke-width="0.197227" stroke-linecap="square"/>
<path d="M24.1487 48.4757C24.1486 48.0578 24.2307 47.6441 24.3905 47.258C24.5503 46.8719 24.7846 46.5211 25.08 46.2256C25.3753 45.9301 25.726 45.6957 26.112 45.5358C26.498 45.3758 26.9117 45.2935 27.3295 45.2935C27.7473 45.2935 28.161 45.3758 28.547 45.5358C28.9329 45.6957 29.2836 45.9301 29.579 46.2256C29.8744 46.5211 30.1087 46.8719 30.2684 47.258C30.4282 47.6441 30.5104 48.0578 30.5103 48.4757C30.5104 48.8935 30.4282 49.3073 30.2684 49.6934C30.1087 50.0794 29.8744 50.4302 29.579 50.7257C29.2836 51.0212 28.9329 51.2557 28.547 51.4156C28.161 51.5755 27.7473 51.6578 27.3295 51.6578C26.9117 51.6578 26.498 51.5755 26.112 51.4156C25.726 51.2557 25.3753 51.0212 25.08 50.7257C24.7846 50.4302 24.5503 50.0794 24.3905 49.6934C24.2307 49.3073 24.1486 48.8935 24.1487 48.4757V48.4757Z" fill="white" stroke="black" stroke-width="0.195402" stroke-linecap="square"/>
<path d="M23.0077 44.1396H31.6509V35.4956H23.0077V44.1396Z" fill="black" stroke="black" stroke-width="0.197227" stroke-linecap="square"/>
<path d="M24.1487 39.8177C24.1486 39.3998 24.2307 38.9861 24.3905 38.6C24.5503 38.2139 24.7846 37.8631 25.08 37.5676C25.3753 37.2721 25.726 37.0377 26.112 36.8778C26.498 36.7178 26.9117 36.6355 27.3295 36.6355C27.7473 36.6355 28.161 36.7178 28.547 36.8778C28.9329 37.0377 29.2836 37.2721 29.579 37.5676C29.8744 37.8631 30.1087 38.2139 30.2684 38.6C30.4282 38.9861 30.5104 39.3998 30.5103 39.8177C30.5104 40.2355 30.4282 40.6493 30.2684 41.0353C30.1087 41.4214 29.8744 41.7722 29.579 42.0677C29.2836 42.3632 28.9329 42.5976 28.547 42.7576C28.161 42.9175 27.7473 42.9998 27.3295 42.9998C26.9117 42.9998 26.498 42.9175 26.112 42.7576C25.726 42.5976 25.3753 42.3632 25.08 42.0677C24.7846 41.7722 24.5503 41.4214 24.3905 41.0353C24.2307 40.6493 24.1486 40.2355 24.1487 39.8177V39.8177Z" fill="white" stroke="black" stroke-width="0.195402" stroke-linecap="square"/>
<path d="M23.0077 35.4817H31.6509V26.8377H23.0077V35.4817Z" fill="black" stroke="black" stroke-width="0.197227" stroke-linecap="square"/>
<path d="M24.1487 31.1597C24.1486 30.7419 24.2307 30.3281 24.3905 29.942C24.5503 29.556 24.7846 29.2051 25.08 28.9096C25.3753 28.6141 25.726 28.3797 26.112 28.2198C26.498 28.0599 26.9117 27.9775 27.3295 27.9775C27.7473 27.9775 28.161 28.0599 28.547 28.2198C28.9329 28.3797 29.2836 28.6141 29.579 28.9096C29.8744 29.2051 30.1087 29.556 30.2684 29.942C30.4282 30.3281 30.5104 30.7419 30.5103 31.1597C30.5104 31.5775 30.4282 31.9913 30.2684 32.3774C30.1087 32.7634 29.8744 33.1143 29.579 33.4098C29.2836 33.7053 28.9329 33.9397 28.547 34.0996C28.161 34.2595 27.7473 34.3419 27.3295 34.3419C26.9117 34.3419 26.498 34.2595 26.112 34.0996C25.726 33.9397 25.3753 33.7053 25.08 33.4098C24.7846 33.1143 24.5503 32.7634 24.3905 32.3774C24.2307 31.9913 24.1486 31.5775 24.1487 31.1597V31.1597Z" fill="white" stroke="black" stroke-width="0.195402" stroke-linecap="square"/>
<path d="M23.0077 26.8237H31.6509V18.1797H23.0077V26.8237Z" fill="black" stroke="black" stroke-width="0.197227" stroke-linecap="square"/>
<path d="M24.1487 22.5017C24.1486 22.0838 24.2307 21.6701 24.3905 21.284C24.5503 20.8979 24.7846 20.5471 25.08 20.2516C25.3753 19.9561 25.726 19.7217 26.112 19.5618C26.498 19.4018 26.9117 19.3195 27.3295 19.3195C27.7473 19.3195 28.161 19.4018 28.547 19.5618C28.9329 19.7217 29.2836 19.9561 29.579 20.2516C29.8744 20.5471 30.1087 20.8979 30.2684 21.284C30.4282 21.6701 30.5104 22.0838 30.5103 22.5017C30.5104 22.9195 30.4282 23.3333 30.2684 23.7194C30.1087 24.1054 29.8744 24.4562 29.579 24.7517C29.2836 25.0472 28.9329 25.2817 28.547 25.4416C28.161 25.6015 27.7473 25.6838 27.3295 25.6838C26.9117 25.6838 26.498 25.6015 26.112 25.4416C25.726 25.2817 25.3753 25.0472 25.08 24.7517C24.7846 24.4562 24.5503 24.1054 24.3905 23.7194C24.2307 23.3333 24.1486 22.9195 24.1487 22.5017V22.5017Z" fill="white" stroke="black" stroke-width="0.195402" stroke-linecap="square"/>
<path d="M23.0077 18.1656H31.6509V9.52164L23.0077 9.52164V18.1656Z" fill="black" stroke="black" stroke-width="0.197227" stroke-linecap="square"/>
<path d="M24.1487 13.8437C24.1486 13.4258 24.2307 13.0121 24.3905 12.626C24.5503 12.2399 24.7846 11.8891 25.08 11.5936C25.3753 11.2981 25.726 11.0637 26.112 10.9038C26.498 10.7438 26.9117 10.6615 27.3295 10.6615C27.7473 10.6615 28.161 10.7438 28.547 10.9038C28.9329 11.0637 29.2836 11.2981 29.579 11.5936C29.8744 11.8891 30.1087 12.2399 30.2684 12.626C30.4282 13.0121 30.5104 13.4258 30.5103 13.8437C30.5104 14.2615 30.4282 14.6753 30.2684 15.0613C30.1087 15.4474 29.8744 15.7982 29.579 16.0937C29.2836 16.3892 28.9329 16.6236 28.547 16.7836C28.161 16.9435 27.7473 17.0258 27.3295 17.0258C26.9117 17.0258 26.498 16.9435 26.112 16.7836C25.726 16.6236 25.3753 16.3892 25.08 16.0937C24.7846 15.7982 24.5503 15.4474 24.3905 15.0613C24.2307 14.6753 24.1486 14.2615 24.1487 13.8437V13.8437Z" fill="white" stroke="black" stroke-width="0.195402" stroke-linecap="square"/>
<path d="M23.0077 9.50763L31.6509 9.50763V0.863621L23.0077 0.863621V9.50763Z" fill="black" stroke="black" stroke-width="0.197227" stroke-linecap="square"/>
<path d="M24.1487 5.18564C24.1486 4.7678 24.2307 4.35403 24.3905 3.96796C24.5503 3.58189 24.7846 3.23108 25.08 2.93558C25.3753 2.64007 25.726 2.40566 26.112 2.24573C26.498 2.0858 26.9117 2.00348 27.3295 2.00348C27.7473 2.00348 28.161 2.0858 28.547 2.24573C28.9329 2.40566 29.2836 2.64007 29.579 2.93558C29.8744 3.23108 30.1087 3.58189 30.2684 3.96796C30.4282 4.35403 30.5104 4.7678 30.5103 5.18564C30.5104 5.60347 30.4282 6.01725 30.2684 6.40332C30.1087 6.78939 29.8744 7.14019 29.579 7.4357C29.2836 7.7312 28.9329 7.96562 28.547 8.12555C28.161 8.28548 27.7473 8.3678 27.3295 8.3678C26.9117 8.3678 26.498 8.28548 26.112 8.12555C25.726 7.96562 25.3753 7.7312 25.08 7.4357C24.7846 7.14019 24.5503 6.78939 24.3905 6.40332C24.2307 6.01725 24.1486 5.60347 24.1487 5.18564V5.18564Z" fill="white" stroke="black" stroke-width="0.195402" stroke-linecap="square"/>
<path d="M14.289 70H22.9321V61.356H14.289L14.289 70Z" fill="black" stroke="black" stroke-width="0.197227" stroke-linecap="square"/>
<path d="M15.43 65.678C15.4298 65.2602 15.512 64.8464 15.6718 64.4603C15.8316 64.0743 16.0658 63.7235 16.3612 63.428C16.6566 63.1325 17.0073 62.898 17.3933 62.7381C17.7792 62.5782 18.1929 62.4959 18.6107 62.4959C19.0285 62.4959 19.4422 62.5782 19.8282 62.7381C20.2142 62.898 20.5649 63.1325 20.8603 63.428C21.1556 63.7235 21.3899 64.0743 21.5497 64.4603C21.7095 64.8464 21.7916 65.2602 21.7915 65.678C21.7916 66.0958 21.7095 66.5096 21.5497 66.8957C21.3899 67.2818 21.1556 67.6326 20.8603 67.9281C20.5649 68.2236 20.2142 68.458 19.8282 68.6179C19.4422 68.7779 19.0285 68.8602 18.6107 68.8602C18.1929 68.8602 17.7792 68.7779 17.3933 68.6179C17.0073 68.458 16.6566 68.2236 16.3612 67.9281C16.0658 67.6326 15.8316 67.2818 15.6718 66.8957C15.512 66.5096 15.4298 66.0958 15.43 65.678V65.678Z" fill="white" stroke="black" stroke-width="0.195402" stroke-linecap="square"/>
<path d="M14.35 61.4557H22.9932V52.8117H14.35L14.35 61.4557Z" fill="black" stroke="black" stroke-width="0.197227" stroke-linecap="square"/>
<path d="M15.491 57.1337C15.4909 56.7159 15.573 56.3021 15.7328 55.916C15.8926 55.53 16.1269 55.1791 16.4222 54.8836C16.7176 54.5881 17.0683 54.3537 17.4543 54.1938C17.8403 54.0339 18.254 53.9515 18.6718 53.9515C19.0896 53.9515 19.5033 54.0339 19.8892 54.1938C20.2752 54.3537 20.6259 54.5881 20.9213 54.8836C21.2167 55.1791 21.4509 55.53 21.6107 55.916C21.7705 56.3021 21.8527 56.7159 21.8525 57.1337C21.8527 57.5515 21.7705 57.9653 21.6107 58.3514C21.4509 58.7374 21.2167 59.0883 20.9213 59.3838C20.6259 59.6793 20.2752 59.9137 19.8892 60.0736C19.5033 60.2335 19.0896 60.3159 18.6718 60.3159C18.254 60.3159 17.8403 60.2335 17.4543 60.0736C17.0683 59.9137 16.7176 59.6793 16.4222 59.3838C16.1269 59.0883 15.8926 58.7374 15.7328 58.3514C15.573 57.9653 15.4909 57.5515 15.491 57.1337V57.1337Z" fill="white" stroke="black" stroke-width="0.195402" stroke-linecap="square"/>
<path d="M14.35 52.7977H22.9932V44.1537H14.35L14.35 52.7977Z" fill="black" stroke="black" stroke-width="0.197227" stroke-linecap="square"/>
<path d="M15.491 48.4757C15.4909 48.0578 15.573 47.6441 15.7328 47.258C15.8926 46.8719 16.1269 46.5211 16.4222 46.2256C16.7176 45.9301 17.0683 45.6957 17.4543 45.5358C17.8403 45.3758 18.254 45.2935 18.6718 45.2935C19.0896 45.2935 19.5033 45.3758 19.8892 45.5358C20.2752 45.6957 20.6259 45.9301 20.9213 46.2256C21.2167 46.5211 21.4509 46.8719 21.6107 47.258C21.7705 47.6441 21.8527 48.0578 21.8525 48.4757C21.8527 48.8935 21.7705 49.3073 21.6107 49.6934C21.4509 50.0794 21.2167 50.4302 20.9213 50.7257C20.6259 51.0212 20.2752 51.2557 19.8892 51.4156C19.5033 51.5755 19.0896 51.6578 18.6718 51.6578C18.254 51.6578 17.8403 51.5755 17.4543 51.4156C17.0683 51.2557 16.7176 51.0212 16.4222 50.7257C16.1269 50.4302 15.8926 50.0794 15.7328 49.6934C15.573 49.3073 15.4909 48.8935 15.491 48.4757V48.4757Z" fill="white" stroke="black" stroke-width="0.195402" stroke-linecap="square"/>
<path d="M14.35 44.1396H22.9932V35.4956H14.35L14.35 44.1396Z" fill="black" stroke="black" stroke-width="0.197227" stroke-linecap="square"/>
<path d="M15.491 39.8177C15.4909 39.3998 15.573 38.9861 15.7328 38.6C15.8926 38.2139 16.1269 37.8631 16.4222 37.5676C16.7176 37.2721 17.0683 37.0377 17.4543 36.8778C17.8403 36.7178 18.254 36.6355 18.6718 36.6355C19.0896 36.6355 19.5033 36.7178 19.8892 36.8778C20.2752 37.0377 20.6259 37.2721 20.9213 37.5676C21.2167 37.8631 21.4509 38.2139 21.6107 38.6C21.7705 38.9861 21.8527 39.3998 21.8525 39.8177C21.8527 40.2355 21.7705 40.6493 21.6107 41.0353C21.4509 41.4214 21.2167 41.7722 20.9213 42.0677C20.6259 42.3632 20.2752 42.5976 19.8892 42.7576C19.5033 42.9175 19.0896 42.9998 18.6718 42.9998C18.254 42.9998 17.8403 42.9175 17.4543 42.7576C17.0683 42.5976 16.7176 42.3632 16.4222 42.0677C16.1269 41.7722 15.8926 41.4214 15.7328 41.0353C15.573 40.6493 15.4909 40.2355 15.491 39.8177V39.8177Z" fill="white" stroke="black" stroke-width="0.195402" stroke-linecap="square"/>
<path d="M14.35 35.4817H22.9932V26.8377H14.35L14.35 35.4817Z" fill="black" stroke="black" stroke-width="0.197227" stroke-linecap="square"/>
<path d="M15.491 31.1597C15.4909 30.7419 15.573 30.3281 15.7328 29.942C15.8926 29.556 16.1269 29.2051 16.4222 28.9096C16.7176 28.6141 17.0683 28.3797 17.4543 28.2198C17.8403 28.0599 18.254 27.9775 18.6718 27.9775C19.0896 27.9775 19.5033 28.0599 19.8892 28.2198C20.2752 28.3797 20.6259 28.6141 20.9213 28.9096C21.2167 29.2051 21.4509 29.556 21.6107 29.942C21.7705 30.3281 21.8527 30.7419 21.8525 31.1597C21.8527 31.5775 21.7705 31.9913 21.6107 32.3774C21.4509 32.7634 21.2167 33.1143 20.9213 33.4098C20.6259 33.7053 20.2752 33.9397 19.8892 34.0996C19.5033 34.2595 19.0896 34.3419 18.6718 34.3419C18.254 34.3419 17.8403 34.2595 17.4543 34.0996C17.0683 33.9397 16.7176 33.7053 16.4222 33.4098C16.1269 33.1143 15.8926 32.7634 15.7328 32.3774C15.573 31.9913 15.4909 31.5775 15.491 31.1597V31.1597Z" fill="white" stroke="black" stroke-width="0.195402" stroke-linecap="square"/>
<path d="M14.35 26.8237H22.9932V18.1797H14.35L14.35 26.8237Z" fill="black" stroke="black" stroke-width="0.197227" stroke-linecap="square"/>
<path d="M15.491 22.5017C15.4909 22.0838 15.573 21.6701 15.7328 21.284C15.8926 20.8979 16.1269 20.5471 16.4222 20.2516C16.7176 19.9561 17.0683 19.7217 17.4543 19.5618C17.8403 19.4018 18.254 19.3195 18.6718 19.3195C19.0896 19.3195 19.5033 19.4018 19.8892 19.5618C20.2752 19.7217 20.6259 19.9561 20.9213 20.2516C21.2167 20.5471 21.4509 20.8979 21.6107 21.284C21.7705 21.6701 21.8527 22.0838 21.8525 22.5017C21.8527 22.9195 21.7705 23.3333 21.6107 23.7194C21.4509 24.1054 21.2167 24.4562 20.9213 24.7517C20.6259 25.0472 20.2752 25.2817 19.8892 25.4416C19.5033 25.6015 19.0896 25.6838 18.6718 25.6838C18.254 25.6838 17.8403 25.6015 17.4543 25.4416C17.0683 25.2817 16.7176 25.0472 16.4222 24.7517C16.1269 24.4562 15.8926 24.1054 15.7328 23.7194C15.573 23.3333 15.4909 22.9195 15.491 22.5017V22.5017Z" fill="white" stroke="black" stroke-width="0.195402" stroke-linecap="square"/>
<path d="M14.35 18.1656H22.9932V9.52164L14.35 9.52164L14.35 18.1656Z" fill="black" stroke="black" stroke-width="0.197227" stroke-linecap="square"/>
<path d="M15.491 13.8437C15.4909 13.4258 15.573 13.0121 15.7328 12.626C15.8926 12.2399 16.1269 11.8891 16.4222 11.5936C16.7176 11.2981 17.0683 11.0637 17.4543 10.9038C17.8403 10.7438 18.254 10.6615 18.6718 10.6615C19.0896 10.6615 19.5033 10.7438 19.8892 10.9038C20.2752 11.0637 20.6259 11.2981 20.9213 11.5936C21.2167 11.8891 21.4509 12.2399 21.6107 12.626C21.7705 13.0121 21.8527 13.4258 21.8525 13.8437C21.8527 14.2615 21.7705 14.6753 21.6107 15.0613C21.4509 15.4474 21.2167 15.7982 20.9213 16.0937C20.6259 16.3892 20.2752 16.6236 19.8892 16.7836C19.5033 16.9435 19.0896 17.0258 18.6718 17.0258C18.254 17.0258 17.8403 16.9435 17.4543 16.7836C17.0683 16.6236 16.7176 16.3892 16.4222 16.0937C16.1269 15.7982 15.8926 15.4474 15.7328 15.0613C15.573 14.6753 15.4909 14.2615 15.491 13.8437V13.8437Z" fill="white" stroke="black" stroke-width="0.195402" stroke-linecap="square"/>
<path d="M14.35 9.50763L22.9932 9.50763V0.863621L14.35 0.863621L14.35 9.50763Z" fill="black" stroke="black" stroke-width="0.197227" stroke-linecap="square"/>
<path d="M15.491 5.18564C15.4909 4.7678 15.573 4.35403 15.7328 3.96796C15.8926 3.58189 16.1269 3.23108 16.4222 2.93558C16.7176 2.64007 17.0683 2.40566 17.4543 2.24573C17.8403 2.0858 18.254 2.00348 18.6718 2.00348C19.0896 2.00348 19.5033 2.0858 19.8892 2.24573C20.2752 2.40566 20.6259 2.64007 20.9213 2.93558C21.2167 3.23108 21.4509 3.58189 21.6107 3.96796C21.7705 4.35403 21.8527 4.7678 21.8525 5.18564C21.8527 5.60347 21.7705 6.01725 21.6107 6.40332C21.4509 6.78939 21.2167 7.14019 20.9213 7.4357C20.6259 7.7312 20.2752 7.96562 19.8892 8.12555C19.5033 8.28548 19.0896 8.3678 18.6718 8.3678C18.254 8.3678 17.8403 8.28548 17.4543 8.12555C17.0683 7.96562 16.7176 7.7312 16.4222 7.4357C16.1269 7.14019 15.8926 6.78939 15.7328 6.40332C15.573 6.01725 15.4909 5.60347 15.491 5.18564V5.18564Z" fill="white" stroke="black" stroke-width="0.195402" stroke-linecap="square"/>
</g>
<defs>
<clipPath id="clip0">
<rect width="83.5993" height="70" fill="white" transform="translate(83.5991 70) rotate(-180)"/>
</clipPath>
</defs>
</svg>
