<svg width="145" height="130" viewBox="0 0 145 130" fill="none" xmlns="http://www.w3.org/2000/svg">
<path d="M111.823 40.993H140.177" stroke="#0E6942" stroke-width="2" stroke-miterlimit="10" stroke-linecap="round"/>
<path d="M111.823 49.993H140.177" stroke="#0E6942" stroke-width="2" stroke-miterlimit="10" stroke-linecap="round"/>
<path d="M111.823 58.993H140.177" stroke="#0E6942" stroke-width="2" stroke-miterlimit="10" stroke-linecap="round"/>
<path d="M111.823 67.993H140.177" stroke="#0E6942" stroke-width="2" stroke-miterlimit="10" stroke-linecap="round"/>
<path d="M111.823 76.993H140.177" stroke="#0E6942" stroke-width="2" stroke-miterlimit="10" stroke-linecap="round"/>
<path d="M118.286 7.00256H5.09961V120.189H118.286V7.00256Z" fill="black" stroke="#646464" stroke-width="0.199648" stroke-linecap="square"/>
<path d="M19.0746 7H5.09863V20.9774H19.0746V7Z" fill="black" stroke="black" stroke-width="0.197227" stroke-linecap="square"/>
<path d="M17.23 13.9887C17.2302 14.6643 17.0973 15.3334 16.839 15.9577C16.5806 16.5819 16.2018 17.1492 15.7241 17.627C15.2465 18.1049 14.6794 18.4839 14.0553 18.7425C13.4312 19.0011 12.7622 19.1342 12.0867 19.1342C11.4111 19.1342 10.7421 19.0011 10.118 18.7425C9.49388 18.4839 8.92681 18.1049 8.44918 17.627C7.97156 17.1492 7.59274 16.5819 7.33437 15.9577C7.076 15.3334 6.94313 14.6643 6.94336 13.9887C6.94313 13.313 7.076 12.644 7.33437 12.0197C7.59274 11.3954 7.97156 10.8282 8.44918 10.3503C8.92681 9.87251 9.49388 9.49346 10.118 9.23485C10.7421 8.97625 11.4111 8.84314 12.0867 8.84314C12.7622 8.84314 13.4312 8.97625 14.0553 9.23485C14.6794 9.49346 15.2465 9.87251 15.7241 10.3503C16.2018 10.8282 16.5806 11.3954 16.839 12.0197C17.0973 12.644 17.2302 13.313 17.23 13.9887V13.9887Z" fill="white" stroke="black" stroke-width="0.195402" stroke-linecap="square"/>
<path d="M18.976 20.8162H5V34.7935H18.976V20.8162Z" fill="black" stroke="black" stroke-width="0.197227" stroke-linecap="square"/>
<path d="M17.1313 27.8048C17.1316 28.4805 16.9987 29.1496 16.7403 29.7738C16.4819 30.3981 16.1031 30.9654 15.6255 31.4432C15.1479 31.921 14.5808 32.3001 13.9567 32.5587C13.3326 32.8173 12.6636 32.9504 11.988 32.9504C11.3125 32.9504 10.6435 32.8173 10.0194 32.5587C9.39524 32.3001 8.82817 31.921 8.35055 31.4432C7.87293 30.9654 7.49411 30.3981 7.23574 29.7738C6.97736 29.1496 6.8445 28.4805 6.84473 27.8048C6.8445 27.1292 6.97736 26.4601 7.23574 25.8359C7.49411 25.2116 7.87293 24.6443 8.35055 24.1665C8.82817 23.6887 9.39524 23.3096 10.0194 23.051C10.6435 22.7924 11.3125 22.6593 11.988 22.6593C12.6636 22.6593 13.3326 22.7924 13.9567 23.051C14.5808 23.3096 15.1479 23.6887 15.6255 24.1665C16.1031 24.6443 16.4819 25.2116 16.7403 25.8359C16.9987 26.4601 17.1316 27.1292 17.1313 27.8048V27.8048Z" fill="white" stroke="black" stroke-width="0.195402" stroke-linecap="square"/>
<path d="M18.976 34.8162H5V48.7935H18.976V34.8162Z" fill="black" stroke="black" stroke-width="0.197227" stroke-linecap="square"/>
<path d="M17.1313 41.8048C17.1316 42.4805 16.9987 43.1496 16.7403 43.7738C16.4819 44.3981 16.1031 44.9654 15.6255 45.4432C15.1479 45.921 14.5808 46.3001 13.9567 46.5587C13.3326 46.8173 12.6636 46.9504 11.988 46.9504C11.3125 46.9504 10.6435 46.8173 10.0194 46.5587C9.39524 46.3001 8.82817 45.921 8.35055 45.4432C7.87293 44.9654 7.49411 44.3981 7.23574 43.7738C6.97736 43.1496 6.8445 42.4805 6.84473 41.8048C6.8445 41.1292 6.97736 40.4601 7.23574 39.8359C7.49411 39.2116 7.87293 38.6443 8.35055 38.1665C8.82817 37.6887 9.39524 37.3096 10.0194 37.051C10.6435 36.7924 11.3125 36.6593 11.988 36.6593C12.6636 36.6593 13.3326 36.7924 13.9567 37.051C14.5808 37.3096 15.1479 37.6887 15.6255 38.1665C16.1031 38.6443 16.4819 39.2116 16.7403 39.8359C16.9987 40.4601 17.1316 41.1292 17.1313 41.8048V41.8048Z" fill="white" stroke="black" stroke-width="0.195402" stroke-linecap="square"/>
<path d="M18.976 48.8162H5V62.7935H18.976V48.8162Z" fill="black" stroke="black" stroke-width="0.197227" stroke-linecap="square"/>
<path d="M17.1313 55.8048C17.1316 56.4805 16.9987 57.1496 16.7403 57.7738C16.4819 58.3981 16.1031 58.9654 15.6255 59.4432C15.1479 59.921 14.5808 60.3001 13.9567 60.5587C13.3326 60.8173 12.6636 60.9504 11.988 60.9504C11.3125 60.9504 10.6435 60.8173 10.0194 60.5587C9.39524 60.3001 8.82817 59.921 8.35055 59.4432C7.87293 58.9654 7.49411 58.3981 7.23574 57.7738C6.97736 57.1496 6.8445 56.4805 6.84473 55.8048C6.8445 55.1292 6.97736 54.4601 7.23574 53.8359C7.49411 53.2116 7.87293 52.6443 8.35055 52.1665C8.82817 51.6887 9.39524 51.3096 10.0194 51.051C10.6435 50.7924 11.3125 50.6593 11.988 50.6593C12.6636 50.6593 13.3326 50.7924 13.9567 51.051C14.5808 51.3096 15.1479 51.6887 15.6255 52.1665C16.1031 52.6443 16.4819 53.2116 16.7403 53.8359C16.9987 54.4601 17.1316 55.1292 17.1313 55.8048V55.8048Z" fill="white" stroke="black" stroke-width="0.195402" stroke-linecap="square"/>
<path d="M18.976 62.8162H5V76.7935H18.976V62.8162Z" fill="black" stroke="black" stroke-width="0.197227" stroke-linecap="square"/>
<path d="M17.1313 69.8048C17.1316 70.4805 16.9987 71.1496 16.7403 71.7738C16.4819 72.3981 16.1031 72.9654 15.6255 73.4432C15.1479 73.921 14.5808 74.3001 13.9567 74.5587C13.3326 74.8173 12.6636 74.9504 11.988 74.9504C11.3125 74.9504 10.6435 74.8173 10.0194 74.5587C9.39524 74.3001 8.82817 73.921 8.35055 73.4432C7.87293 72.9654 7.49411 72.3981 7.23574 71.7738C6.97736 71.1496 6.8445 70.4805 6.84473 69.8048C6.8445 69.1292 6.97736 68.4601 7.23574 67.8359C7.49411 67.2116 7.87293 66.6443 8.35055 66.1665C8.82817 65.6887 9.39524 65.3096 10.0194 65.051C10.6435 64.7924 11.3125 64.6593 11.988 64.6593C12.6636 64.6593 13.3326 64.7924 13.9567 65.051C14.5808 65.3096 15.1479 65.6887 15.6255 66.1665C16.1031 66.6443 16.4819 67.2116 16.7403 67.8359C16.9987 68.4601 17.1316 69.1292 17.1313 69.8048V69.8048Z" fill="white" stroke="black" stroke-width="0.195402" stroke-linecap="square"/>
<path d="M18.976 76.8162H5V90.7935H18.976V76.8162Z" fill="black" stroke="black" stroke-width="0.197227" stroke-linecap="square"/>
<path d="M17.1313 83.8048C17.1316 84.4805 16.9987 85.1496 16.7403 85.7738C16.4819 86.3981 16.1031 86.9654 15.6255 87.4432C15.1479 87.921 14.5808 88.3001 13.9567 88.5587C13.3326 88.8173 12.6636 88.9504 11.988 88.9504C11.3125 88.9504 10.6435 88.8173 10.0194 88.5587C9.39524 88.3001 8.82817 87.921 8.35055 87.4432C7.87293 86.9654 7.49411 86.3981 7.23574 85.7738C6.97736 85.1496 6.8445 84.4805 6.84473 83.8048C6.8445 83.1292 6.97736 82.4601 7.23574 81.8359C7.49411 81.2116 7.87293 80.6443 8.35055 80.1665C8.82817 79.6887 9.39524 79.3096 10.0194 79.051C10.6435 78.7924 11.3125 78.6593 11.988 78.6593C12.6636 78.6593 13.3326 78.7924 13.9567 79.051C14.5808 79.3096 15.1479 79.6887 15.6255 80.1665C16.1031 80.6443 16.4819 81.2116 16.7403 81.8359C16.9987 82.4601 17.1316 83.1292 17.1313 83.8048V83.8048Z" fill="white" stroke="black" stroke-width="0.195402" stroke-linecap="square"/>
<path d="M18.976 90.8162H5V104.794H18.976V90.8162Z" fill="black" stroke="black" stroke-width="0.197227" stroke-linecap="square"/>
<path d="M17.1313 97.8048C17.1316 98.4805 16.9987 99.1496 16.7403 99.7738C16.4819 100.398 16.1031 100.965 15.6255 101.443C15.1479 101.921 14.5808 102.3 13.9567 102.559C13.3326 102.817 12.6636 102.95 11.988 102.95C11.3125 102.95 10.6435 102.817 10.0194 102.559C9.39524 102.3 8.82817 101.921 8.35055 101.443C7.87293 100.965 7.49411 100.398 7.23574 99.7738C6.97736 99.1496 6.8445 98.4805 6.84473 97.8048C6.8445 97.1292 6.97736 96.4601 7.23574 95.8359C7.49411 95.2116 7.87293 94.6443 8.35055 94.1665C8.82817 93.6887 9.39524 93.3096 10.0194 93.051C10.6435 92.7924 11.3125 92.6593 11.988 92.6593C12.6636 92.6593 13.3326 92.7924 13.9567 93.051C14.5808 93.3096 15.1479 93.6887 15.6255 94.1665C16.1031 94.6443 16.4819 95.2116 16.7403 95.8359C16.9987 96.4601 17.1316 97.1292 17.1313 97.8048V97.8048Z" fill="white" stroke="black" stroke-width="0.195402" stroke-linecap="square"/>
<path d="M18.976 104.816H5V118.794H18.976V104.816Z" fill="black" stroke="black" stroke-width="0.197227" stroke-linecap="square"/>
<path d="M17.1313 111.805C17.1316 112.48 16.9987 113.15 16.7403 113.774C16.4819 114.398 16.1031 114.965 15.6255 115.443C15.1479 115.921 14.5808 116.3 13.9567 116.559C13.3326 116.817 12.6636 116.95 11.988 116.95C11.3125 116.95 10.6435 116.817 10.0194 116.559C9.39524 116.3 8.82817 115.921 8.35055 115.443C7.87293 114.965 7.49411 114.398 7.23574 113.774C6.97736 113.15 6.8445 112.48 6.84473 111.805C6.8445 111.129 6.97736 110.46 7.23574 109.836C7.49411 109.212 7.87293 108.644 8.35055 108.167C8.82817 107.689 9.39524 107.31 10.0194 107.051C10.6435 106.792 11.3125 106.659 11.988 106.659C12.6636 106.659 13.3326 106.792 13.9567 107.051C14.5808 107.31 15.1479 107.689 15.6255 108.167C16.1031 108.644 16.4819 109.212 16.7403 109.836C16.9987 110.46 17.1316 111.129 17.1313 111.805V111.805Z" fill="white" stroke="black" stroke-width="0.195402" stroke-linecap="square"/>
<path d="M33.0746 7H19.0986V20.9774H33.0746V7Z" fill="black" stroke="black" stroke-width="0.197227" stroke-linecap="square"/>
<path d="M31.23 13.9887C31.2302 14.6643 31.0973 15.3334 30.839 15.9577C30.5806 16.5819 30.2018 17.1492 29.7241 17.627C29.2465 18.1049 28.6794 18.4839 28.0553 18.7425C27.4312 19.0011 26.7622 19.1342 26.0867 19.1342C25.4111 19.1342 24.7421 19.0011 24.118 18.7425C23.4939 18.4839 22.9268 18.1049 22.4492 17.627C21.9716 17.1492 21.5927 16.5819 21.3344 15.9577C21.076 15.3334 20.9431 14.6643 20.9434 13.9887C20.9431 13.313 21.076 12.644 21.3344 12.0197C21.5927 11.3954 21.9716 10.8282 22.4492 10.3503C22.9268 9.87251 23.4939 9.49346 24.118 9.23485C24.7421 8.97625 25.4111 8.84314 26.0867 8.84314C26.7622 8.84314 27.4312 8.97625 28.0553 9.23485C28.6794 9.49346 29.2465 9.87251 29.7241 10.3503C30.2018 10.8282 30.5806 11.3954 30.839 12.0197C31.0973 12.644 31.2302 13.313 31.23 13.9887V13.9887Z" fill="white" stroke="black" stroke-width="0.195402" stroke-linecap="square"/>
<path d="M32.976 20.8162H19V34.7935H32.976V20.8162Z" fill="black" stroke="black" stroke-width="0.197227" stroke-linecap="square"/>
<path d="M31.1313 27.8048C31.1316 28.4805 30.9987 29.1496 30.7403 29.7738C30.4819 30.3981 30.1031 30.9654 29.6255 31.4432C29.1479 31.921 28.5808 32.3001 27.9567 32.5587C27.3326 32.8173 26.6636 32.9504 25.988 32.9504C25.3125 32.9504 24.6435 32.8173 24.0194 32.5587C23.3952 32.3001 22.8282 31.921 22.3506 31.4432C21.8729 30.9654 21.4941 30.3981 21.2357 29.7738C20.9774 29.1496 20.8445 28.4805 20.8447 27.8048C20.8445 27.1292 20.9774 26.4601 21.2357 25.8359C21.4941 25.2116 21.8729 24.6443 22.3506 24.1665C22.8282 23.6887 23.3952 23.3096 24.0194 23.051C24.6435 22.7924 25.3125 22.6593 25.988 22.6593C26.6636 22.6593 27.3326 22.7924 27.9567 23.051C28.5808 23.3096 29.1479 23.6887 29.6255 24.1665C30.1031 24.6443 30.4819 25.2116 30.7403 25.8359C30.9987 26.4601 31.1316 27.1292 31.1313 27.8048V27.8048Z" fill="white" stroke="black" stroke-width="0.195402" stroke-linecap="square"/>
<path d="M32.976 34.8162H19V48.7935H32.976V34.8162Z" fill="black" stroke="black" stroke-width="0.197227" stroke-linecap="square"/>
<path d="M31.1313 41.8048C31.1316 42.4805 30.9987 43.1496 30.7403 43.7738C30.4819 44.3981 30.1031 44.9654 29.6255 45.4432C29.1479 45.921 28.5808 46.3001 27.9567 46.5587C27.3326 46.8173 26.6636 46.9504 25.988 46.9504C25.3125 46.9504 24.6435 46.8173 24.0194 46.5587C23.3952 46.3001 22.8282 45.921 22.3506 45.4432C21.8729 44.9654 21.4941 44.3981 21.2357 43.7738C20.9774 43.1496 20.8445 42.4805 20.8447 41.8048C20.8445 41.1292 20.9774 40.4601 21.2357 39.8359C21.4941 39.2116 21.8729 38.6443 22.3506 38.1665C22.8282 37.6887 23.3952 37.3096 24.0194 37.051C24.6435 36.7924 25.3125 36.6593 25.988 36.6593C26.6636 36.6593 27.3326 36.7924 27.9567 37.051C28.5808 37.3096 29.1479 37.6887 29.6255 38.1665C30.1031 38.6443 30.4819 39.2116 30.7403 39.8359C30.9987 40.4601 31.1316 41.1292 31.1313 41.8048V41.8048Z" fill="white" stroke="black" stroke-width="0.195402" stroke-linecap="square"/>
<path d="M32.976 48.8162H19V62.7935H32.976V48.8162Z" fill="black" stroke="black" stroke-width="0.197227" stroke-linecap="square"/>
<path d="M31.1313 55.8048C31.1316 56.4805 30.9987 57.1496 30.7403 57.7738C30.4819 58.3981 30.1031 58.9654 29.6255 59.4432C29.1479 59.921 28.5808 60.3001 27.9567 60.5587C27.3326 60.8173 26.6636 60.9504 25.988 60.9504C25.3125 60.9504 24.6435 60.8173 24.0194 60.5587C23.3952 60.3001 22.8282 59.921 22.3506 59.4432C21.8729 58.9654 21.4941 58.3981 21.2357 57.7738C20.9774 57.1496 20.8445 56.4805 20.8447 55.8048C20.8445 55.1292 20.9774 54.4601 21.2357 53.8359C21.4941 53.2116 21.8729 52.6443 22.3506 52.1665C22.8282 51.6887 23.3952 51.3096 24.0194 51.051C24.6435 50.7924 25.3125 50.6593 25.988 50.6593C26.6636 50.6593 27.3326 50.7924 27.9567 51.051C28.5808 51.3096 29.1479 51.6887 29.6255 52.1665C30.1031 52.6443 30.4819 53.2116 30.7403 53.8359C30.9987 54.4601 31.1316 55.1292 31.1313 55.8048V55.8048Z" fill="white" stroke="black" stroke-width="0.195402" stroke-linecap="square"/>
<path d="M32.976 62.8162H19V76.7935H32.976V62.8162Z" fill="black" stroke="black" stroke-width="0.197227" stroke-linecap="square"/>
<path d="M31.1313 69.8048C31.1316 70.4805 30.9987 71.1496 30.7403 71.7738C30.4819 72.3981 30.1031 72.9654 29.6255 73.4432C29.1479 73.921 28.5808 74.3001 27.9567 74.5587C27.3326 74.8173 26.6636 74.9504 25.988 74.9504C25.3125 74.9504 24.6435 74.8173 24.0194 74.5587C23.3952 74.3001 22.8282 73.921 22.3506 73.4432C21.8729 72.9654 21.4941 72.3981 21.2357 71.7738C20.9774 71.1496 20.8445 70.4805 20.8447 69.8048C20.8445 69.1292 20.9774 68.4601 21.2357 67.8359C21.4941 67.2116 21.8729 66.6443 22.3506 66.1665C22.8282 65.6887 23.3952 65.3096 24.0194 65.051C24.6435 64.7924 25.3125 64.6593 25.988 64.6593C26.6636 64.6593 27.3326 64.7924 27.9567 65.051C28.5808 65.3096 29.1479 65.6887 29.6255 66.1665C30.1031 66.6443 30.4819 67.2116 30.7403 67.8359C30.9987 68.4601 31.1316 69.1292 31.1313 69.8048V69.8048Z" fill="white" stroke="black" stroke-width="0.195402" stroke-linecap="square"/>
<path d="M32.976 76.8162H19V90.7935H32.976V76.8162Z" fill="black" stroke="black" stroke-width="0.197227" stroke-linecap="square"/>
<path d="M31.1313 83.8048C31.1316 84.4805 30.9987 85.1496 30.7403 85.7738C30.4819 86.3981 30.1031 86.9654 29.6255 87.4432C29.1479 87.921 28.5808 88.3001 27.9567 88.5587C27.3326 88.8173 26.6636 88.9504 25.988 88.9504C25.3125 88.9504 24.6435 88.8173 24.0194 88.5587C23.3952 88.3001 22.8282 87.921 22.3506 87.4432C21.8729 86.9654 21.4941 86.3981 21.2357 85.7738C20.9774 85.1496 20.8445 84.4805 20.8447 83.8048C20.8445 83.1292 20.9774 82.4601 21.2357 81.8359C21.4941 81.2116 21.8729 80.6443 22.3506 80.1665C22.8282 79.6887 23.3952 79.3096 24.0194 79.051C24.6435 78.7924 25.3125 78.6593 25.988 78.6593C26.6636 78.6593 27.3326 78.7924 27.9567 79.051C28.5808 79.3096 29.1479 79.6887 29.6255 80.1665C30.1031 80.6443 30.4819 81.2116 30.7403 81.8359C30.9987 82.4601 31.1316 83.1292 31.1313 83.8048V83.8048Z" fill="white" stroke="black" stroke-width="0.195402" stroke-linecap="square"/>
<path d="M32.976 90.8162H19V104.794H32.976V90.8162Z" fill="black" stroke="black" stroke-width="0.197227" stroke-linecap="square"/>
<path d="M31.1313 97.8048C31.1316 98.4805 30.9987 99.1496 30.7403 99.7738C30.4819 100.398 30.1031 100.965 29.6255 101.443C29.1479 101.921 28.5808 102.3 27.9567 102.559C27.3326 102.817 26.6636 102.95 25.988 102.95C25.3125 102.95 24.6435 102.817 24.0194 102.559C23.3952 102.3 22.8282 101.921 22.3506 101.443C21.8729 100.965 21.4941 100.398 21.2357 99.7738C20.9774 99.1496 20.8445 98.4805 20.8447 97.8048C20.8445 97.1292 20.9774 96.4601 21.2357 95.8359C21.4941 95.2116 21.8729 94.6443 22.3506 94.1665C22.8282 93.6887 23.3952 93.3096 24.0194 93.051C24.6435 92.7924 25.3125 92.6593 25.988 92.6593C26.6636 92.6593 27.3326 92.7924 27.9567 93.051C28.5808 93.3096 29.1479 93.6887 29.6255 94.1665C30.1031 94.6443 30.4819 95.2116 30.7403 95.8359C30.9987 96.4601 31.1316 97.1292 31.1313 97.8048V97.8048Z" fill="white" stroke="black" stroke-width="0.195402" stroke-linecap="square"/>
<path d="M32.976 104.816H19V118.794H32.976V104.816Z" fill="black" stroke="black" stroke-width="0.197227" stroke-linecap="square"/>
<path d="M31.1313 111.805C31.1316 112.48 30.9987 113.15 30.7403 113.774C30.4819 114.398 30.1031 114.965 29.6255 115.443C29.1479 115.921 28.5808 116.3 27.9567 116.559C27.3326 116.817 26.6636 116.95 25.988 116.95C25.3125 116.95 24.6435 116.817 24.0194 116.559C23.3952 116.3 22.8282 115.921 22.3506 115.443C21.8729 114.965 21.4941 114.398 21.2357 113.774C20.9774 113.15 20.8445 112.48 20.8447 111.805C20.8445 111.129 20.9774 110.46 21.2357 109.836C21.4941 109.212 21.8729 108.644 22.3506 108.167C22.8282 107.689 23.3952 107.31 24.0194 107.051C24.6435 106.792 25.3125 106.659 25.988 106.659C26.6636 106.659 27.3326 106.792 27.9567 107.051C28.5808 107.31 29.1479 107.689 29.6255 108.167C30.1031 108.644 30.4819 109.212 30.7403 109.836C30.9987 110.46 31.1316 111.129 31.1313 111.805V111.805Z" fill="white" stroke="black" stroke-width="0.195402" stroke-linecap="square"/>
<path d="M47.0746 7H33.0986V20.9774H47.0746V7Z" fill="black" stroke="black" stroke-width="0.197227" stroke-linecap="square"/>
<path d="M45.23 13.9887C45.2302 14.6643 45.0973 15.3334 44.839 15.9577C44.5806 16.5819 44.2018 17.1492 43.7241 17.627C43.2465 18.1049 42.6794 18.4839 42.0553 18.7425C41.4312 19.0011 40.7622 19.1342 40.0867 19.1342C39.4111 19.1342 38.7421 19.0011 38.118 18.7425C37.4939 18.4839 36.9268 18.1049 36.4492 17.627C35.9716 17.1492 35.5927 16.5819 35.3344 15.9577C35.076 15.3334 34.9431 14.6643 34.9434 13.9887C34.9431 13.313 35.076 12.644 35.3344 12.0197C35.5927 11.3954 35.9716 10.8282 36.4492 10.3503C36.9268 9.87251 37.4939 9.49346 38.118 9.23485C38.7421 8.97625 39.4111 8.84314 40.0867 8.84314C40.7622 8.84314 41.4312 8.97625 42.0553 9.23485C42.6794 9.49346 43.2465 9.87251 43.7241 10.3503C44.2018 10.8282 44.5806 11.3954 44.839 12.0197C45.0973 12.644 45.2302 13.313 45.23 13.9887V13.9887Z" fill="white" stroke="black" stroke-width="0.195402" stroke-linecap="square"/>
<path d="M46.976 20.8162H33V34.7935H46.976V20.8162Z" fill="black" stroke="black" stroke-width="0.197227" stroke-linecap="square"/>
<path d="M45.1313 27.8048C45.1316 28.4805 44.9987 29.1496 44.7403 29.7738C44.4819 30.3981 44.1031 30.9654 43.6255 31.4432C43.1479 31.921 42.5808 32.3001 41.9567 32.5587C41.3326 32.8173 40.6636 32.9504 39.988 32.9504C39.3125 32.9504 38.6435 32.8173 38.0194 32.5587C37.3952 32.3001 36.8282 31.921 36.3506 31.4432C35.8729 30.9654 35.4941 30.3981 35.2357 29.7738C34.9774 29.1496 34.8445 28.4805 34.8447 27.8048C34.8445 27.1292 34.9774 26.4601 35.2357 25.8359C35.4941 25.2116 35.8729 24.6443 36.3506 24.1665C36.8282 23.6887 37.3952 23.3096 38.0194 23.051C38.6435 22.7924 39.3125 22.6593 39.988 22.6593C40.6636 22.6593 41.3326 22.7924 41.9567 23.051C42.5808 23.3096 43.1479 23.6887 43.6255 24.1665C44.1031 24.6443 44.4819 25.2116 44.7403 25.8359C44.9987 26.4601 45.1316 27.1292 45.1313 27.8048V27.8048Z" fill="white" stroke="black" stroke-width="0.195402" stroke-linecap="square"/>
<path d="M46.976 34.8162H33V48.7935H46.976V34.8162Z" fill="black" stroke="black" stroke-width="0.197227" stroke-linecap="square"/>
<path d="M45.1313 41.8048C45.1316 42.4805 44.9987 43.1496 44.7403 43.7738C44.4819 44.3981 44.1031 44.9654 43.6255 45.4432C43.1479 45.921 42.5808 46.3001 41.9567 46.5587C41.3326 46.8173 40.6636 46.9504 39.988 46.9504C39.3125 46.9504 38.6435 46.8173 38.0194 46.5587C37.3952 46.3001 36.8282 45.921 36.3506 45.4432C35.8729 44.9654 35.4941 44.3981 35.2357 43.7738C34.9774 43.1496 34.8445 42.4805 34.8447 41.8048C34.8445 41.1292 34.9774 40.4601 35.2357 39.8359C35.4941 39.2116 35.8729 38.6443 36.3506 38.1665C36.8282 37.6887 37.3952 37.3096 38.0194 37.051C38.6435 36.7924 39.3125 36.6593 39.988 36.6593C40.6636 36.6593 41.3326 36.7924 41.9567 37.051C42.5808 37.3096 43.1479 37.6887 43.6255 38.1665C44.1031 38.6443 44.4819 39.2116 44.7403 39.8359C44.9987 40.4601 45.1316 41.1292 45.1313 41.8048V41.8048Z" fill="white" stroke="black" stroke-width="0.195402" stroke-linecap="square"/>
<path d="M46.976 48.8162H33V62.7935H46.976V48.8162Z" fill="black" stroke="black" stroke-width="0.197227" stroke-linecap="square"/>
<path d="M45.1313 55.8048C45.1316 56.4805 44.9987 57.1496 44.7403 57.7738C44.4819 58.3981 44.1031 58.9654 43.6255 59.4432C43.1479 59.921 42.5808 60.3001 41.9567 60.5587C41.3326 60.8173 40.6636 60.9504 39.988 60.9504C39.3125 60.9504 38.6435 60.8173 38.0194 60.5587C37.3952 60.3001 36.8282 59.921 36.3506 59.4432C35.8729 58.9654 35.4941 58.3981 35.2357 57.7738C34.9774 57.1496 34.8445 56.4805 34.8447 55.8048C34.8445 55.1292 34.9774 54.4601 35.2357 53.8359C35.4941 53.2116 35.8729 52.6443 36.3506 52.1665C36.8282 51.6887 37.3952 51.3096 38.0194 51.051C38.6435 50.7924 39.3125 50.6593 39.988 50.6593C40.6636 50.6593 41.3326 50.7924 41.9567 51.051C42.5808 51.3096 43.1479 51.6887 43.6255 52.1665C44.1031 52.6443 44.4819 53.2116 44.7403 53.8359C44.9987 54.4601 45.1316 55.1292 45.1313 55.8048V55.8048Z" fill="white" stroke="black" stroke-width="0.195402" stroke-linecap="square"/>
<path d="M46.976 62.8162H33V76.7935H46.976V62.8162Z" fill="black" stroke="black" stroke-width="0.197227" stroke-linecap="square"/>
<path d="M45.1313 69.8048C45.1316 70.4805 44.9987 71.1496 44.7403 71.7738C44.4819 72.3981 44.1031 72.9654 43.6255 73.4432C43.1479 73.921 42.5808 74.3001 41.9567 74.5587C41.3326 74.8173 40.6636 74.9504 39.988 74.9504C39.3125 74.9504 38.6435 74.8173 38.0194 74.5587C37.3952 74.3001 36.8282 73.921 36.3506 73.4432C35.8729 72.9654 35.4941 72.3981 35.2357 71.7738C34.9774 71.1496 34.8445 70.4805 34.8447 69.8048C34.8445 69.1292 34.9774 68.4601 35.2357 67.8359C35.4941 67.2116 35.8729 66.6443 36.3506 66.1665C36.8282 65.6887 37.3952 65.3096 38.0194 65.051C38.6435 64.7924 39.3125 64.6593 39.988 64.6593C40.6636 64.6593 41.3326 64.7924 41.9567 65.051C42.5808 65.3096 43.1479 65.6887 43.6255 66.1665C44.1031 66.6443 44.4819 67.2116 44.7403 67.8359C44.9987 68.4601 45.1316 69.1292 45.1313 69.8048V69.8048Z" fill="white" stroke="black" stroke-width="0.195402" stroke-linecap="square"/>
<path d="M46.976 76.8162H33V90.7935H46.976V76.8162Z" fill="black" stroke="black" stroke-width="0.197227" stroke-linecap="square"/>
<path d="M45.1313 83.8048C45.1316 84.4805 44.9987 85.1496 44.7403 85.7738C44.4819 86.3981 44.1031 86.9654 43.6255 87.4432C43.1479 87.921 42.5808 88.3001 41.9567 88.5587C41.3326 88.8173 40.6636 88.9504 39.988 88.9504C39.3125 88.9504 38.6435 88.8173 38.0194 88.5587C37.3952 88.3001 36.8282 87.921 36.3506 87.4432C35.8729 86.9654 35.4941 86.3981 35.2357 85.7738C34.9774 85.1496 34.8445 84.4805 34.8447 83.8048C34.8445 83.1292 34.9774 82.4601 35.2357 81.8359C35.4941 81.2116 35.8729 80.6443 36.3506 80.1665C36.8282 79.6887 37.3952 79.3096 38.0194 79.051C38.6435 78.7924 39.3125 78.6593 39.988 78.6593C40.6636 78.6593 41.3326 78.7924 41.9567 79.051C42.5808 79.3096 43.1479 79.6887 43.6255 80.1665C44.1031 80.6443 44.4819 81.2116 44.7403 81.8359C44.9987 82.4601 45.1316 83.1292 45.1313 83.8048V83.8048Z" fill="white" stroke="black" stroke-width="0.195402" stroke-linecap="square"/>
<path d="M46.976 90.8162H33V104.794H46.976V90.8162Z" fill="black" stroke="black" stroke-width="0.197227" stroke-linecap="square"/>
<path d="M45.1313 97.8048C45.1316 98.4805 44.9987 99.1496 44.7403 99.7738C44.4819 100.398 44.1031 100.965 43.6255 101.443C43.1479 101.921 42.5808 102.3 41.9567 102.559C41.3326 102.817 40.6636 102.95 39.988 102.95C39.3125 102.95 38.6435 102.817 38.0194 102.559C37.3952 102.3 36.8282 101.921 36.3506 101.443C35.8729 100.965 35.4941 100.398 35.2357 99.7738C34.9774 99.1496 34.8445 98.4805 34.8447 97.8048C34.8445 97.1292 34.9774 96.4601 35.2357 95.8359C35.4941 95.2116 35.8729 94.6443 36.3506 94.1665C36.8282 93.6887 37.3952 93.3096 38.0194 93.051C38.6435 92.7924 39.3125 92.6593 39.988 92.6593C40.6636 92.6593 41.3326 92.7924 41.9567 93.051C42.5808 93.3096 43.1479 93.6887 43.6255 94.1665C44.1031 94.6443 44.4819 95.2116 44.7403 95.8359C44.9987 96.4601 45.1316 97.1292 45.1313 97.8048V97.8048Z" fill="white" stroke="black" stroke-width="0.195402" stroke-linecap="square"/>
<path d="M46.976 104.816H33V118.794H46.976V104.816Z" fill="black" stroke="black" stroke-width="0.197227" stroke-linecap="square"/>
<path d="M45.1313 111.805C45.1316 112.48 44.9987 113.15 44.7403 113.774C44.4819 114.398 44.1031 114.965 43.6255 115.443C43.1479 115.921 42.5808 116.3 41.9567 116.559C41.3326 116.817 40.6636 116.95 39.988 116.95C39.3125 116.95 38.6435 116.817 38.0194 116.559C37.3952 116.3 36.8282 115.921 36.3506 115.443C35.8729 114.965 35.4941 114.398 35.2357 113.774C34.9774 113.15 34.8445 112.48 34.8447 111.805C34.8445 111.129 34.9774 110.46 35.2357 109.836C35.4941 109.212 35.8729 108.644 36.3506 108.167C36.8282 107.689 37.3952 107.31 38.0194 107.051C38.6435 106.792 39.3125 106.659 39.988 106.659C40.6636 106.659 41.3326 106.792 41.9567 107.051C42.5808 107.31 43.1479 107.689 43.6255 108.167C44.1031 108.644 44.4819 109.212 44.7403 109.836C44.9987 110.46 45.1316 111.129 45.1313 111.805V111.805Z" fill="white" stroke="black" stroke-width="0.195402" stroke-linecap="square"/>
<path d="M61.0746 7H47.0986V20.9774H61.0746V7Z" fill="black" stroke="black" stroke-width="0.197227" stroke-linecap="square"/>
<path d="M59.23 13.9887C59.2302 14.6643 59.0973 15.3334 58.839 15.9577C58.5806 16.5819 58.2018 17.1492 57.7241 17.627C57.2465 18.1049 56.6794 18.4839 56.0553 18.7425C55.4312 19.0011 54.7622 19.1342 54.0867 19.1342C53.4111 19.1342 52.7421 19.0011 52.118 18.7425C51.4939 18.4839 50.9268 18.1049 50.4492 17.627C49.9716 17.1492 49.5927 16.5819 49.3344 15.9577C49.076 15.3334 48.9431 14.6643 48.9434 13.9887C48.9431 13.313 49.076 12.644 49.3344 12.0197C49.5927 11.3954 49.9716 10.8282 50.4492 10.3503C50.9268 9.87251 51.4939 9.49346 52.118 9.23485C52.7421 8.97625 53.4111 8.84314 54.0867 8.84314C54.7622 8.84314 55.4312 8.97625 56.0553 9.23485C56.6794 9.49346 57.2465 9.87251 57.7241 10.3503C58.2018 10.8282 58.5806 11.3954 58.839 12.0197C59.0973 12.644 59.2302 13.313 59.23 13.9887V13.9887Z" fill="white" stroke="black" stroke-width="0.195402" stroke-linecap="square"/>
<path d="M60.976 20.8162H47V34.7935H60.976V20.8162Z" fill="black" stroke="black" stroke-width="0.197227" stroke-linecap="square"/>
<path d="M59.1313 27.8048C59.1316 28.4805 58.9987 29.1496 58.7403 29.7738C58.4819 30.3981 58.1031 30.9654 57.6255 31.4432C57.1479 31.921 56.5808 32.3001 55.9567 32.5587C55.3326 32.8173 54.6636 32.9504 53.988 32.9504C53.3125 32.9504 52.6435 32.8173 52.0194 32.5587C51.3952 32.3001 50.8282 31.921 50.3506 31.4432C49.8729 30.9654 49.4941 30.3981 49.2357 29.7738C48.9774 29.1496 48.8445 28.4805 48.8447 27.8048C48.8445 27.1292 48.9774 26.4601 49.2357 25.8359C49.4941 25.2116 49.8729 24.6443 50.3506 24.1665C50.8282 23.6887 51.3952 23.3096 52.0194 23.051C52.6435 22.7924 53.3125 22.6593 53.988 22.6593C54.6636 22.6593 55.3326 22.7924 55.9567 23.051C56.5808 23.3096 57.1479 23.6887 57.6255 24.1665C58.1031 24.6443 58.4819 25.2116 58.7403 25.8359C58.9987 26.4601 59.1316 27.1292 59.1313 27.8048V27.8048Z" fill="white" stroke="black" stroke-width="0.195402" stroke-linecap="square"/>
<path d="M60.976 34.8162H47V48.7935H60.976V34.8162Z" fill="black" stroke="black" stroke-width="0.197227" stroke-linecap="square"/>
<path d="M59.1313 41.8048C59.1316 42.4805 58.9987 43.1496 58.7403 43.7738C58.4819 44.3981 58.1031 44.9654 57.6255 45.4432C57.1479 45.921 56.5808 46.3001 55.9567 46.5587C55.3326 46.8173 54.6636 46.9504 53.988 46.9504C53.3125 46.9504 52.6435 46.8173 52.0194 46.5587C51.3952 46.3001 50.8282 45.921 50.3506 45.4432C49.8729 44.9654 49.4941 44.3981 49.2357 43.7738C48.9774 43.1496 48.8445 42.4805 48.8447 41.8048C48.8445 41.1292 48.9774 40.4601 49.2357 39.8359C49.4941 39.2116 49.8729 38.6443 50.3506 38.1665C50.8282 37.6887 51.3952 37.3096 52.0194 37.051C52.6435 36.7924 53.3125 36.6593 53.988 36.6593C54.6636 36.6593 55.3326 36.7924 55.9567 37.051C56.5808 37.3096 57.1479 37.6887 57.6255 38.1665C58.1031 38.6443 58.4819 39.2116 58.7403 39.8359C58.9987 40.4601 59.1316 41.1292 59.1313 41.8048V41.8048Z" fill="white" stroke="black" stroke-width="0.195402" stroke-linecap="square"/>
<path d="M60.976 48.8162H47V62.7935H60.976V48.8162Z" fill="black" stroke="black" stroke-width="0.197227" stroke-linecap="square"/>
<path d="M59.1313 55.8048C59.1316 56.4805 58.9987 57.1496 58.7403 57.7738C58.4819 58.3981 58.1031 58.9654 57.6255 59.4432C57.1479 59.921 56.5808 60.3001 55.9567 60.5587C55.3326 60.8173 54.6636 60.9504 53.988 60.9504C53.3125 60.9504 52.6435 60.8173 52.0194 60.5587C51.3952 60.3001 50.8282 59.921 50.3506 59.4432C49.8729 58.9654 49.4941 58.3981 49.2357 57.7738C48.9774 57.1496 48.8445 56.4805 48.8447 55.8048C48.8445 55.1292 48.9774 54.4601 49.2357 53.8359C49.4941 53.2116 49.8729 52.6443 50.3506 52.1665C50.8282 51.6887 51.3952 51.3096 52.0194 51.051C52.6435 50.7924 53.3125 50.6593 53.988 50.6593C54.6636 50.6593 55.3326 50.7924 55.9567 51.051C56.5808 51.3096 57.1479 51.6887 57.6255 52.1665C58.1031 52.6443 58.4819 53.2116 58.7403 53.8359C58.9987 54.4601 59.1316 55.1292 59.1313 55.8048V55.8048Z" fill="white" stroke="black" stroke-width="0.195402" stroke-linecap="square"/>
<path d="M60.976 62.8162H47V76.7935H60.976V62.8162Z" fill="black" stroke="black" stroke-width="0.197227" stroke-linecap="square"/>
<path d="M59.1313 69.8048C59.1316 70.4805 58.9987 71.1496 58.7403 71.7738C58.4819 72.3981 58.1031 72.9654 57.6255 73.4432C57.1479 73.921 56.5808 74.3001 55.9567 74.5587C55.3326 74.8173 54.6636 74.9504 53.988 74.9504C53.3125 74.9504 52.6435 74.8173 52.0194 74.5587C51.3952 74.3001 50.8282 73.921 50.3506 73.4432C49.8729 72.9654 49.4941 72.3981 49.2357 71.7738C48.9774 71.1496 48.8445 70.4805 48.8447 69.8048C48.8445 69.1292 48.9774 68.4601 49.2357 67.8359C49.4941 67.2116 49.8729 66.6443 50.3506 66.1665C50.8282 65.6887 51.3952 65.3096 52.0194 65.051C52.6435 64.7924 53.3125 64.6593 53.988 64.6593C54.6636 64.6593 55.3326 64.7924 55.9567 65.051C56.5808 65.3096 57.1479 65.6887 57.6255 66.1665C58.1031 66.6443 58.4819 67.2116 58.7403 67.8359C58.9987 68.4601 59.1316 69.1292 59.1313 69.8048V69.8048Z" fill="white" stroke="black" stroke-width="0.195402" stroke-linecap="square"/>
<path d="M60.976 76.8162H47V90.7935H60.976V76.8162Z" fill="black" stroke="black" stroke-width="0.197227" stroke-linecap="square"/>
<path d="M59.1313 83.8048C59.1316 84.4805 58.9987 85.1496 58.7403 85.7738C58.4819 86.3981 58.1031 86.9654 57.6255 87.4432C57.1479 87.921 56.5808 88.3001 55.9567 88.5587C55.3326 88.8173 54.6636 88.9504 53.988 88.9504C53.3125 88.9504 52.6435 88.8173 52.0194 88.5587C51.3952 88.3001 50.8282 87.921 50.3506 87.4432C49.8729 86.9654 49.4941 86.3981 49.2357 85.7738C48.9774 85.1496 48.8445 84.4805 48.8447 83.8048C48.8445 83.1292 48.9774 82.4601 49.2357 81.8359C49.4941 81.2116 49.8729 80.6443 50.3506 80.1665C50.8282 79.6887 51.3952 79.3096 52.0194 79.051C52.6435 78.7924 53.3125 78.6593 53.988 78.6593C54.6636 78.6593 55.3326 78.7924 55.9567 79.051C56.5808 79.3096 57.1479 79.6887 57.6255 80.1665C58.1031 80.6443 58.4819 81.2116 58.7403 81.8359C58.9987 82.4601 59.1316 83.1292 59.1313 83.8048V83.8048Z" fill="white" stroke="black" stroke-width="0.195402" stroke-linecap="square"/>
<path d="M60.976 90.8162H47V104.794H60.976V90.8162Z" fill="black" stroke="black" stroke-width="0.197227" stroke-linecap="square"/>
<path d="M59.1313 97.8048C59.1316 98.4805 58.9987 99.1496 58.7403 99.7738C58.4819 100.398 58.1031 100.965 57.6255 101.443C57.1479 101.921 56.5808 102.3 55.9567 102.559C55.3326 102.817 54.6636 102.95 53.988 102.95C53.3125 102.95 52.6435 102.817 52.0194 102.559C51.3952 102.3 50.8282 101.921 50.3506 101.443C49.8729 100.965 49.4941 100.398 49.2357 99.7738C48.9774 99.1496 48.8445 98.4805 48.8447 97.8048C48.8445 97.1292 48.9774 96.4601 49.2357 95.8359C49.4941 95.2116 49.8729 94.6443 50.3506 94.1665C50.8282 93.6887 51.3952 93.3096 52.0194 93.051C52.6435 92.7924 53.3125 92.6593 53.988 92.6593C54.6636 92.6593 55.3326 92.7924 55.9567 93.051C56.5808 93.3096 57.1479 93.6887 57.6255 94.1665C58.1031 94.6443 58.4819 95.2116 58.7403 95.8359C58.9987 96.4601 59.1316 97.1292 59.1313 97.8048V97.8048Z" fill="white" stroke="black" stroke-width="0.195402" stroke-linecap="square"/>
<path d="M60.976 104.816H47V118.794H60.976V104.816Z" fill="black" stroke="black" stroke-width="0.197227" stroke-linecap="square"/>
<path d="M59.1313 111.805C59.1316 112.48 58.9987 113.15 58.7403 113.774C58.4819 114.398 58.1031 114.965 57.6255 115.443C57.1479 115.921 56.5808 116.3 55.9567 116.559C55.3326 116.817 54.6636 116.95 53.988 116.95C53.3125 116.95 52.6435 116.817 52.0194 116.559C51.3952 116.3 50.8282 115.921 50.3506 115.443C49.8729 114.965 49.4941 114.398 49.2357 113.774C48.9774 113.15 48.8445 112.48 48.8447 111.805C48.8445 111.129 48.9774 110.46 49.2357 109.836C49.4941 109.212 49.8729 108.644 50.3506 108.167C50.8282 107.689 51.3952 107.31 52.0194 107.051C52.6435 106.792 53.3125 106.659 53.988 106.659C54.6636 106.659 55.3326 106.792 55.9567 107.051C56.5808 107.31 57.1479 107.689 57.6255 108.167C58.1031 108.644 58.4819 109.212 58.7403 109.836C58.9987 110.46 59.1316 111.129 59.1313 111.805V111.805Z" fill="white" stroke="black" stroke-width="0.195402" stroke-linecap="square"/>
<path d="M75.0746 7H61.0986V20.9774H75.0746V7Z" fill="black" stroke="black" stroke-width="0.197227" stroke-linecap="square"/>
<path d="M73.23 13.9887C73.2302 14.6643 73.0973 15.3334 72.839 15.9577C72.5806 16.5819 72.2018 17.1492 71.7241 17.627C71.2465 18.1049 70.6794 18.4839 70.0553 18.7425C69.4312 19.0011 68.7622 19.1342 68.0867 19.1342C67.4111 19.1342 66.7421 19.0011 66.118 18.7425C65.4939 18.4839 64.9268 18.1049 64.4492 17.627C63.9716 17.1492 63.5927 16.5819 63.3344 15.9577C63.076 15.3334 62.9431 14.6643 62.9434 13.9887C62.9431 13.313 63.076 12.644 63.3344 12.0197C63.5927 11.3954 63.9716 10.8282 64.4492 10.3503C64.9268 9.87251 65.4939 9.49346 66.118 9.23485C66.7421 8.97625 67.4111 8.84314 68.0867 8.84314C68.7622 8.84314 69.4312 8.97625 70.0553 9.23485C70.6794 9.49346 71.2465 9.87251 71.7241 10.3503C72.2018 10.8282 72.5806 11.3954 72.839 12.0197C73.0973 12.644 73.2302 13.313 73.23 13.9887V13.9887Z" fill="white" stroke="black" stroke-width="0.195402" stroke-linecap="square"/>
<path d="M74.976 20.8162H61V34.7935H74.976V20.8162Z" fill="black" stroke="black" stroke-width="0.197227" stroke-linecap="square"/>
<path d="M73.1313 27.8048C73.1316 28.4805 72.9987 29.1496 72.7403 29.7738C72.4819 30.3981 72.1031 30.9654 71.6255 31.4432C71.1479 31.921 70.5808 32.3001 69.9567 32.5587C69.3326 32.8173 68.6636 32.9504 67.988 32.9504C67.3125 32.9504 66.6435 32.8173 66.0194 32.5587C65.3952 32.3001 64.8282 31.921 64.3506 31.4432C63.8729 30.9654 63.4941 30.3981 63.2357 29.7738C62.9774 29.1496 62.8445 28.4805 62.8447 27.8048C62.8445 27.1292 62.9774 26.4601 63.2357 25.8359C63.4941 25.2116 63.8729 24.6443 64.3506 24.1665C64.8282 23.6887 65.3952 23.3096 66.0194 23.051C66.6435 22.7924 67.3125 22.6593 67.988 22.6593C68.6636 22.6593 69.3326 22.7924 69.9567 23.051C70.5808 23.3096 71.1479 23.6887 71.6255 24.1665C72.1031 24.6443 72.4819 25.2116 72.7403 25.8359C72.9987 26.4601 73.1316 27.1292 73.1313 27.8048V27.8048Z" fill="white" stroke="black" stroke-width="0.195402" stroke-linecap="square"/>
<path d="M74.976 34.8162H61V48.7935H74.976V34.8162Z" fill="black" stroke="black" stroke-width="0.197227" stroke-linecap="square"/>
<path d="M73.1313 41.8048C73.1316 42.4805 72.9987 43.1496 72.7403 43.7738C72.4819 44.3981 72.1031 44.9654 71.6255 45.4432C71.1479 45.921 70.5808 46.3001 69.9567 46.5587C69.3326 46.8173 68.6636 46.9504 67.988 46.9504C67.3125 46.9504 66.6435 46.8173 66.0194 46.5587C65.3952 46.3001 64.8282 45.921 64.3506 45.4432C63.8729 44.9654 63.4941 44.3981 63.2357 43.7738C62.9774 43.1496 62.8445 42.4805 62.8447 41.8048C62.8445 41.1292 62.9774 40.4601 63.2357 39.8359C63.4941 39.2116 63.8729 38.6443 64.3506 38.1665C64.8282 37.6887 65.3952 37.3096 66.0194 37.051C66.6435 36.7924 67.3125 36.6593 67.988 36.6593C68.6636 36.6593 69.3326 36.7924 69.9567 37.051C70.5808 37.3096 71.1479 37.6887 71.6255 38.1665C72.1031 38.6443 72.4819 39.2116 72.7403 39.8359C72.9987 40.4601 73.1316 41.1292 73.1313 41.8048V41.8048Z" fill="white" stroke="black" stroke-width="0.195402" stroke-linecap="square"/>
<path d="M74.976 48.8162H61V62.7935H74.976V48.8162Z" fill="black" stroke="black" stroke-width="0.197227" stroke-linecap="square"/>
<path d="M73.1313 55.8048C73.1316 56.4805 72.9987 57.1496 72.7403 57.7738C72.4819 58.3981 72.1031 58.9654 71.6255 59.4432C71.1479 59.921 70.5808 60.3001 69.9567 60.5587C69.3326 60.8173 68.6636 60.9504 67.988 60.9504C67.3125 60.9504 66.6435 60.8173 66.0194 60.5587C65.3952 60.3001 64.8282 59.921 64.3506 59.4432C63.8729 58.9654 63.4941 58.3981 63.2357 57.7738C62.9774 57.1496 62.8445 56.4805 62.8447 55.8048C62.8445 55.1292 62.9774 54.4601 63.2357 53.8359C63.4941 53.2116 63.8729 52.6443 64.3506 52.1665C64.8282 51.6887 65.3952 51.3096 66.0194 51.051C66.6435 50.7924 67.3125 50.6593 67.988 50.6593C68.6636 50.6593 69.3326 50.7924 69.9567 51.051C70.5808 51.3096 71.1479 51.6887 71.6255 52.1665C72.1031 52.6443 72.4819 53.2116 72.7403 53.8359C72.9987 54.4601 73.1316 55.1292 73.1313 55.8048V55.8048Z" fill="white" stroke="black" stroke-width="0.195402" stroke-linecap="square"/>
<path d="M74.976 62.8162H61V76.7935H74.976V62.8162Z" fill="black" stroke="black" stroke-width="0.197227" stroke-linecap="square"/>
<path d="M73.1313 69.8048C73.1316 70.4805 72.9987 71.1496 72.7403 71.7738C72.4819 72.3981 72.1031 72.9654 71.6255 73.4432C71.1479 73.921 70.5808 74.3001 69.9567 74.5587C69.3326 74.8173 68.6636 74.9504 67.988 74.9504C67.3125 74.9504 66.6435 74.8173 66.0194 74.5587C65.3952 74.3001 64.8282 73.921 64.3506 73.4432C63.8729 72.9654 63.4941 72.3981 63.2357 71.7738C62.9774 71.1496 62.8445 70.4805 62.8447 69.8048C62.8445 69.1292 62.9774 68.4601 63.2357 67.8359C63.4941 67.2116 63.8729 66.6443 64.3506 66.1665C64.8282 65.6887 65.3952 65.3096 66.0194 65.051C66.6435 64.7924 67.3125 64.6593 67.988 64.6593C68.6636 64.6593 69.3326 64.7924 69.9567 65.051C70.5808 65.3096 71.1479 65.6887 71.6255 66.1665C72.1031 66.6443 72.4819 67.2116 72.7403 67.8359C72.9987 68.4601 73.1316 69.1292 73.1313 69.8048V69.8048Z" fill="white" stroke="black" stroke-width="0.195402" stroke-linecap="square"/>
<path d="M74.976 76.8162H61V90.7935H74.976V76.8162Z" fill="black" stroke="black" stroke-width="0.197227" stroke-linecap="square"/>
<path d="M73.1313 83.8048C73.1316 84.4805 72.9987 85.1496 72.7403 85.7738C72.4819 86.3981 72.1031 86.9654 71.6255 87.4432C71.1479 87.921 70.5808 88.3001 69.9567 88.5587C69.3326 88.8173 68.6636 88.9504 67.988 88.9504C67.3125 88.9504 66.6435 88.8173 66.0194 88.5587C65.3952 88.3001 64.8282 87.921 64.3506 87.4432C63.8729 86.9654 63.4941 86.3981 63.2357 85.7738C62.9774 85.1496 62.8445 84.4805 62.8447 83.8048C62.8445 83.1292 62.9774 82.4601 63.2357 81.8359C63.4941 81.2116 63.8729 80.6443 64.3506 80.1665C64.8282 79.6887 65.3952 79.3096 66.0194 79.051C66.6435 78.7924 67.3125 78.6593 67.988 78.6593C68.6636 78.6593 69.3326 78.7924 69.9567 79.051C70.5808 79.3096 71.1479 79.6887 71.6255 80.1665C72.1031 80.6443 72.4819 81.2116 72.7403 81.8359C72.9987 82.4601 73.1316 83.1292 73.1313 83.8048V83.8048Z" fill="white" stroke="black" stroke-width="0.195402" stroke-linecap="square"/>
<path d="M74.976 90.8162H61V104.794H74.976V90.8162Z" fill="black" stroke="black" stroke-width="0.197227" stroke-linecap="square"/>
<path d="M73.1313 97.8048C73.1316 98.4805 72.9987 99.1496 72.7403 99.7738C72.4819 100.398 72.1031 100.965 71.6255 101.443C71.1479 101.921 70.5808 102.3 69.9567 102.559C69.3326 102.817 68.6636 102.95 67.988 102.95C67.3125 102.95 66.6435 102.817 66.0194 102.559C65.3952 102.3 64.8282 101.921 64.3506 101.443C63.8729 100.965 63.4941 100.398 63.2357 99.7738C62.9774 99.1496 62.8445 98.4805 62.8447 97.8048C62.8445 97.1292 62.9774 96.4601 63.2357 95.8359C63.4941 95.2116 63.8729 94.6443 64.3506 94.1665C64.8282 93.6887 65.3952 93.3096 66.0194 93.051C66.6435 92.7924 67.3125 92.6593 67.988 92.6593C68.6636 92.6593 69.3326 92.7924 69.9567 93.051C70.5808 93.3096 71.1479 93.6887 71.6255 94.1665C72.1031 94.6443 72.4819 95.2116 72.7403 95.8359C72.9987 96.4601 73.1316 97.1292 73.1313 97.8048V97.8048Z" fill="white" stroke="black" stroke-width="0.195402" stroke-linecap="square"/>
<path d="M74.976 104.816H61V118.794H74.976V104.816Z" fill="black" stroke="black" stroke-width="0.197227" stroke-linecap="square"/>
<path d="M73.1313 111.805C73.1316 112.48 72.9987 113.15 72.7403 113.774C72.4819 114.398 72.1031 114.965 71.6255 115.443C71.1479 115.921 70.5808 116.3 69.9567 116.559C69.3326 116.817 68.6636 116.95 67.988 116.95C67.3125 116.95 66.6435 116.817 66.0194 116.559C65.3952 116.3 64.8282 115.921 64.3506 115.443C63.8729 114.965 63.4941 114.398 63.2357 113.774C62.9774 113.15 62.8445 112.48 62.8447 111.805C62.8445 111.129 62.9774 110.46 63.2357 109.836C63.4941 109.212 63.8729 108.644 64.3506 108.167C64.8282 107.689 65.3952 107.31 66.0194 107.051C66.6435 106.792 67.3125 106.659 67.988 106.659C68.6636 106.659 69.3326 106.792 69.9567 107.051C70.5808 107.31 71.1479 107.689 71.6255 108.167C72.1031 108.644 72.4819 109.212 72.7403 109.836C72.9987 110.46 73.1316 111.129 73.1313 111.805V111.805Z" fill="white" stroke="black" stroke-width="0.195402" stroke-linecap="square"/>
<path d="M89.0746 7H75.0986V20.9774H89.0746V7Z" fill="black" stroke="black" stroke-width="0.197227" stroke-linecap="square"/>
<path d="M87.23 13.9887C87.2302 14.6643 87.0973 15.3334 86.839 15.9577C86.5806 16.5819 86.2018 17.1492 85.7241 17.627C85.2465 18.1049 84.6794 18.4839 84.0553 18.7425C83.4312 19.0011 82.7622 19.1342 82.0867 19.1342C81.4111 19.1342 80.7421 19.0011 80.118 18.7425C79.4939 18.4839 78.9268 18.1049 78.4492 17.627C77.9716 17.1492 77.5927 16.5819 77.3344 15.9577C77.076 15.3334 76.9431 14.6643 76.9434 13.9887C76.9431 13.313 77.076 12.644 77.3344 12.0197C77.5927 11.3954 77.9716 10.8282 78.4492 10.3503C78.9268 9.87251 79.4939 9.49346 80.118 9.23485C80.7421 8.97625 81.4111 8.84314 82.0867 8.84314C82.7622 8.84314 83.4312 8.97625 84.0553 9.23485C84.6794 9.49346 85.2465 9.87251 85.7241 10.3503C86.2018 10.8282 86.5806 11.3954 86.839 12.0197C87.0973 12.644 87.2302 13.313 87.23 13.9887V13.9887Z" fill="white" stroke="black" stroke-width="0.195402" stroke-linecap="square"/>
<path d="M88.976 20.8162H75V34.7935H88.976V20.8162Z" fill="black" stroke="black" stroke-width="0.197227" stroke-linecap="square"/>
<path d="M87.1313 27.8048C87.1316 28.4805 86.9987 29.1496 86.7403 29.7738C86.4819 30.3981 86.1031 30.9654 85.6255 31.4432C85.1479 31.921 84.5808 32.3001 83.9567 32.5587C83.3326 32.8173 82.6636 32.9504 81.988 32.9504C81.3125 32.9504 80.6435 32.8173 80.0194 32.5587C79.3952 32.3001 78.8282 31.921 78.3506 31.4432C77.8729 30.9654 77.4941 30.3981 77.2357 29.7738C76.9774 29.1496 76.8445 28.4805 76.8447 27.8048C76.8445 27.1292 76.9774 26.4601 77.2357 25.8359C77.4941 25.2116 77.8729 24.6443 78.3506 24.1665C78.8282 23.6887 79.3952 23.3096 80.0194 23.051C80.6435 22.7924 81.3125 22.6593 81.988 22.6593C82.6636 22.6593 83.3326 22.7924 83.9567 23.051C84.5808 23.3096 85.1479 23.6887 85.6255 24.1665C86.1031 24.6443 86.4819 25.2116 86.7403 25.8359C86.9987 26.4601 87.1316 27.1292 87.1313 27.8048V27.8048Z" fill="white" stroke="black" stroke-width="0.195402" stroke-linecap="square"/>
<path d="M88.976 34.8162H75V48.7935H88.976V34.8162Z" fill="black" stroke="black" stroke-width="0.197227" stroke-linecap="square"/>
<path d="M87.1313 41.8048C87.1316 42.4805 86.9987 43.1496 86.7403 43.7738C86.4819 44.3981 86.1031 44.9654 85.6255 45.4432C85.1479 45.921 84.5808 46.3001 83.9567 46.5587C83.3326 46.8173 82.6636 46.9504 81.988 46.9504C81.3125 46.9504 80.6435 46.8173 80.0194 46.5587C79.3952 46.3001 78.8282 45.921 78.3506 45.4432C77.8729 44.9654 77.4941 44.3981 77.2357 43.7738C76.9774 43.1496 76.8445 42.4805 76.8447 41.8048C76.8445 41.1292 76.9774 40.4601 77.2357 39.8359C77.4941 39.2116 77.8729 38.6443 78.3506 38.1665C78.8282 37.6887 79.3952 37.3096 80.0194 37.051C80.6435 36.7924 81.3125 36.6593 81.988 36.6593C82.6636 36.6593 83.3326 36.7924 83.9567 37.051C84.5808 37.3096 85.1479 37.6887 85.6255 38.1665C86.1031 38.6443 86.4819 39.2116 86.7403 39.8359C86.9987 40.4601 87.1316 41.1292 87.1313 41.8048V41.8048Z" fill="white" stroke="black" stroke-width="0.195402" stroke-linecap="square"/>
<path d="M88.976 48.8162H75V62.7935H88.976V48.8162Z" fill="black" stroke="black" stroke-width="0.197227" stroke-linecap="square"/>
<path d="M87.1313 55.8048C87.1316 56.4805 86.9987 57.1496 86.7403 57.7738C86.4819 58.3981 86.1031 58.9654 85.6255 59.4432C85.1479 59.921 84.5808 60.3001 83.9567 60.5587C83.3326 60.8173 82.6636 60.9504 81.988 60.9504C81.3125 60.9504 80.6435 60.8173 80.0194 60.5587C79.3952 60.3001 78.8282 59.921 78.3506 59.4432C77.8729 58.9654 77.4941 58.3981 77.2357 57.7738C76.9774 57.1496 76.8445 56.4805 76.8447 55.8048C76.8445 55.1292 76.9774 54.4601 77.2357 53.8359C77.4941 53.2116 77.8729 52.6443 78.3506 52.1665C78.8282 51.6887 79.3952 51.3096 80.0194 51.051C80.6435 50.7924 81.3125 50.6593 81.988 50.6593C82.6636 50.6593 83.3326 50.7924 83.9567 51.051C84.5808 51.3096 85.1479 51.6887 85.6255 52.1665C86.1031 52.6443 86.4819 53.2116 86.7403 53.8359C86.9987 54.4601 87.1316 55.1292 87.1313 55.8048V55.8048Z" fill="white" stroke="black" stroke-width="0.195402" stroke-linecap="square"/>
<path d="M88.976 62.8162H75V76.7935H88.976V62.8162Z" fill="black" stroke="black" stroke-width="0.197227" stroke-linecap="square"/>
<path d="M87.1313 69.8048C87.1316 70.4805 86.9987 71.1496 86.7403 71.7738C86.4819 72.3981 86.1031 72.9654 85.6255 73.4432C85.1479 73.921 84.5808 74.3001 83.9567 74.5587C83.3326 74.8173 82.6636 74.9504 81.988 74.9504C81.3125 74.9504 80.6435 74.8173 80.0194 74.5587C79.3952 74.3001 78.8282 73.921 78.3506 73.4432C77.8729 72.9654 77.4941 72.3981 77.2357 71.7738C76.9774 71.1496 76.8445 70.4805 76.8447 69.8048C76.8445 69.1292 76.9774 68.4601 77.2357 67.8359C77.4941 67.2116 77.8729 66.6443 78.3506 66.1665C78.8282 65.6887 79.3952 65.3096 80.0194 65.051C80.6435 64.7924 81.3125 64.6593 81.988 64.6593C82.6636 64.6593 83.3326 64.7924 83.9567 65.051C84.5808 65.3096 85.1479 65.6887 85.6255 66.1665C86.1031 66.6443 86.4819 67.2116 86.7403 67.8359C86.9987 68.4601 87.1316 69.1292 87.1313 69.8048V69.8048Z" fill="white" stroke="black" stroke-width="0.195402" stroke-linecap="square"/>
<path d="M88.976 76.8162H75V90.7935H88.976V76.8162Z" fill="black" stroke="black" stroke-width="0.197227" stroke-linecap="square"/>
<path d="M87.1313 83.8048C87.1316 84.4805 86.9987 85.1496 86.7403 85.7738C86.4819 86.3981 86.1031 86.9654 85.6255 87.4432C85.1479 87.921 84.5808 88.3001 83.9567 88.5587C83.3326 88.8173 82.6636 88.9504 81.988 88.9504C81.3125 88.9504 80.6435 88.8173 80.0194 88.5587C79.3952 88.3001 78.8282 87.921 78.3506 87.4432C77.8729 86.9654 77.4941 86.3981 77.2357 85.7738C76.9774 85.1496 76.8445 84.4805 76.8447 83.8048C76.8445 83.1292 76.9774 82.4601 77.2357 81.8359C77.4941 81.2116 77.8729 80.6443 78.3506 80.1665C78.8282 79.6887 79.3952 79.3096 80.0194 79.051C80.6435 78.7924 81.3125 78.6593 81.988 78.6593C82.6636 78.6593 83.3326 78.7924 83.9567 79.051C84.5808 79.3096 85.1479 79.6887 85.6255 80.1665C86.1031 80.6443 86.4819 81.2116 86.7403 81.8359C86.9987 82.4601 87.1316 83.1292 87.1313 83.8048V83.8048Z" fill="white" stroke="black" stroke-width="0.195402" stroke-linecap="square"/>
<path d="M88.976 90.8162H75V104.794H88.976V90.8162Z" fill="black" stroke="black" stroke-width="0.197227" stroke-linecap="square"/>
<path d="M87.1313 97.8048C87.1316 98.4805 86.9987 99.1496 86.7403 99.7738C86.4819 100.398 86.1031 100.965 85.6255 101.443C85.1479 101.921 84.5808 102.3 83.9567 102.559C83.3326 102.817 82.6636 102.95 81.988 102.95C81.3125 102.95 80.6435 102.817 80.0194 102.559C79.3952 102.3 78.8282 101.921 78.3506 101.443C77.8729 100.965 77.4941 100.398 77.2357 99.7738C76.9774 99.1496 76.8445 98.4805 76.8447 97.8048C76.8445 97.1292 76.9774 96.4601 77.2357 95.8359C77.4941 95.2116 77.8729 94.6443 78.3506 94.1665C78.8282 93.6887 79.3952 93.3096 80.0194 93.051C80.6435 92.7924 81.3125 92.6593 81.988 92.6593C82.6636 92.6593 83.3326 92.7924 83.9567 93.051C84.5808 93.3096 85.1479 93.6887 85.6255 94.1665C86.1031 94.6443 86.4819 95.2116 86.7403 95.8359C86.9987 96.4601 87.1316 97.1292 87.1313 97.8048V97.8048Z" fill="white" stroke="black" stroke-width="0.195402" stroke-linecap="square"/>
<path d="M88.976 104.816H75V118.794H88.976V104.816Z" fill="black" stroke="black" stroke-width="0.197227" stroke-linecap="square"/>
<path d="M87.1313 111.805C87.1316 112.48 86.9987 113.15 86.7403 113.774C86.4819 114.398 86.1031 114.965 85.6255 115.443C85.1479 115.921 84.5808 116.3 83.9567 116.559C83.3326 116.817 82.6636 116.95 81.988 116.95C81.3125 116.95 80.6435 116.817 80.0194 116.559C79.3952 116.3 78.8282 115.921 78.3506 115.443C77.8729 114.965 77.4941 114.398 77.2357 113.774C76.9774 113.15 76.8445 112.48 76.8447 111.805C76.8445 111.129 76.9774 110.46 77.2357 109.836C77.4941 109.212 77.8729 108.644 78.3506 108.167C78.8282 107.689 79.3952 107.31 80.0194 107.051C80.6435 106.792 81.3125 106.659 81.988 106.659C82.6636 106.659 83.3326 106.792 83.9567 107.051C84.5808 107.31 85.1479 107.689 85.6255 108.167C86.1031 108.644 86.4819 109.212 86.7403 109.836C86.9987 110.46 87.1316 111.129 87.1313 111.805V111.805Z" fill="white" stroke="black" stroke-width="0.195402" stroke-linecap="square"/>
<path d="M103.075 7H89.0986V20.9774H103.075V7Z" fill="black" stroke="black" stroke-width="0.197227" stroke-linecap="square"/>
<path d="M101.23 13.9887C101.23 14.6643 101.097 15.3334 100.839 15.9577C100.581 16.5819 100.202 17.1492 99.7241 17.627C99.2465 18.1049 98.6794 18.4839 98.0553 18.7425C97.4312 19.0011 96.7622 19.1342 96.0867 19.1342C95.4111 19.1342 94.7421 19.0011 94.118 18.7425C93.4939 18.4839 92.9268 18.1049 92.4492 17.627C91.9716 17.1492 91.5927 16.5819 91.3344 15.9577C91.076 15.3334 90.9431 14.6643 90.9434 13.9887C90.9431 13.313 91.076 12.644 91.3344 12.0197C91.5927 11.3954 91.9716 10.8282 92.4492 10.3503C92.9268 9.87251 93.4939 9.49346 94.118 9.23485C94.7421 8.97625 95.4111 8.84314 96.0867 8.84314C96.7622 8.84314 97.4312 8.97625 98.0553 9.23485C98.6794 9.49346 99.2465 9.87251 99.7241 10.3503C100.202 10.8282 100.581 11.3954 100.839 12.0197C101.097 12.644 101.23 13.313 101.23 13.9887V13.9887Z" fill="white" stroke="black" stroke-width="0.195402" stroke-linecap="square"/>
<path d="M102.976 20.8162H89V34.7935H102.976V20.8162Z" fill="black" stroke="black" stroke-width="0.197227" stroke-linecap="square"/>
<path d="M101.131 27.8048C101.132 28.4805 100.999 29.1496 100.74 29.7738C100.482 30.3981 100.103 30.9654 99.6255 31.4432C99.1479 31.921 98.5808 32.3001 97.9567 32.5587C97.3326 32.8173 96.6636 32.9504 95.988 32.9504C95.3125 32.9504 94.6435 32.8173 94.0194 32.5587C93.3952 32.3001 92.8282 31.921 92.3506 31.4432C91.8729 30.9654 91.4941 30.3981 91.2357 29.7738C90.9774 29.1496 90.8445 28.4805 90.8447 27.8048C90.8445 27.1292 90.9774 26.4601 91.2357 25.8359C91.4941 25.2116 91.8729 24.6443 92.3506 24.1665C92.8282 23.6887 93.3952 23.3096 94.0194 23.051C94.6435 22.7924 95.3125 22.6593 95.988 22.6593C96.6636 22.6593 97.3326 22.7924 97.9567 23.051C98.5808 23.3096 99.1479 23.6887 99.6255 24.1665C100.103 24.6443 100.482 25.2116 100.74 25.8359C100.999 26.4601 101.132 27.1292 101.131 27.8048V27.8048Z" fill="white" stroke="black" stroke-width="0.195402" stroke-linecap="square"/>
<path d="M102.976 34.8162H89V48.7935H102.976V34.8162Z" fill="black" stroke="black" stroke-width="0.197227" stroke-linecap="square"/>
<path d="M101.131 41.8048C101.132 42.4805 100.999 43.1496 100.74 43.7738C100.482 44.3981 100.103 44.9654 99.6255 45.4432C99.1479 45.921 98.5808 46.3001 97.9567 46.5587C97.3326 46.8173 96.6636 46.9504 95.988 46.9504C95.3125 46.9504 94.6435 46.8173 94.0194 46.5587C93.3952 46.3001 92.8282 45.921 92.3506 45.4432C91.8729 44.9654 91.4941 44.3981 91.2357 43.7738C90.9774 43.1496 90.8445 42.4805 90.8447 41.8048C90.8445 41.1292 90.9774 40.4601 91.2357 39.8359C91.4941 39.2116 91.8729 38.6443 92.3506 38.1665C92.8282 37.6887 93.3952 37.3096 94.0194 37.051C94.6435 36.7924 95.3125 36.6593 95.988 36.6593C96.6636 36.6593 97.3326 36.7924 97.9567 37.051C98.5808 37.3096 99.1479 37.6887 99.6255 38.1665C100.103 38.6443 100.482 39.2116 100.74 39.8359C100.999 40.4601 101.132 41.1292 101.131 41.8048V41.8048Z" fill="white" stroke="black" stroke-width="0.195402" stroke-linecap="square"/>
<path d="M102.976 48.8162H89V62.7935H102.976V48.8162Z" fill="black" stroke="black" stroke-width="0.197227" stroke-linecap="square"/>
<path d="M101.131 55.8048C101.132 56.4805 100.999 57.1496 100.74 57.7738C100.482 58.3981 100.103 58.9654 99.6255 59.4432C99.1479 59.921 98.5808 60.3001 97.9567 60.5587C97.3326 60.8173 96.6636 60.9504 95.988 60.9504C95.3125 60.9504 94.6435 60.8173 94.0194 60.5587C93.3952 60.3001 92.8282 59.921 92.3506 59.4432C91.8729 58.9654 91.4941 58.3981 91.2357 57.7738C90.9774 57.1496 90.8445 56.4805 90.8447 55.8048C90.8445 55.1292 90.9774 54.4601 91.2357 53.8359C91.4941 53.2116 91.8729 52.6443 92.3506 52.1665C92.8282 51.6887 93.3952 51.3096 94.0194 51.051C94.6435 50.7924 95.3125 50.6593 95.988 50.6593C96.6636 50.6593 97.3326 50.7924 97.9567 51.051C98.5808 51.3096 99.1479 51.6887 99.6255 52.1665C100.103 52.6443 100.482 53.2116 100.74 53.8359C100.999 54.4601 101.132 55.1292 101.131 55.8048V55.8048Z" fill="white" stroke="black" stroke-width="0.195402" stroke-linecap="square"/>
<path d="M102.976 62.8162H89V76.7935H102.976V62.8162Z" fill="black" stroke="black" stroke-width="0.197227" stroke-linecap="square"/>
<path d="M101.131 69.8048C101.132 70.4805 100.999 71.1496 100.74 71.7738C100.482 72.3981 100.103 72.9654 99.6255 73.4432C99.1479 73.921 98.5808 74.3001 97.9567 74.5587C97.3326 74.8173 96.6636 74.9504 95.988 74.9504C95.3125 74.9504 94.6435 74.8173 94.0194 74.5587C93.3952 74.3001 92.8282 73.921 92.3506 73.4432C91.8729 72.9654 91.4941 72.3981 91.2357 71.7738C90.9774 71.1496 90.8445 70.4805 90.8447 69.8048C90.8445 69.1292 90.9774 68.4601 91.2357 67.8359C91.4941 67.2116 91.8729 66.6443 92.3506 66.1665C92.8282 65.6887 93.3952 65.3096 94.0194 65.051C94.6435 64.7924 95.3125 64.6593 95.988 64.6593C96.6636 64.6593 97.3326 64.7924 97.9567 65.051C98.5808 65.3096 99.1479 65.6887 99.6255 66.1665C100.103 66.6443 100.482 67.2116 100.74 67.8359C100.999 68.4601 101.132 69.1292 101.131 69.8048V69.8048Z" fill="white" stroke="black" stroke-width="0.195402" stroke-linecap="square"/>
<path d="M102.976 76.8162H89V90.7935H102.976V76.8162Z" fill="black" stroke="black" stroke-width="0.197227" stroke-linecap="square"/>
<path d="M101.131 83.8048C101.132 84.4805 100.999 85.1496 100.74 85.7738C100.482 86.3981 100.103 86.9654 99.6255 87.4432C99.1479 87.921 98.5808 88.3001 97.9567 88.5587C97.3326 88.8173 96.6636 88.9504 95.988 88.9504C95.3125 88.9504 94.6435 88.8173 94.0194 88.5587C93.3952 88.3001 92.8282 87.921 92.3506 87.4432C91.8729 86.9654 91.4941 86.3981 91.2357 85.7738C90.9774 85.1496 90.8445 84.4805 90.8447 83.8048C90.8445 83.1292 90.9774 82.4601 91.2357 81.8359C91.4941 81.2116 91.8729 80.6443 92.3506 80.1665C92.8282 79.6887 93.3952 79.3096 94.0194 79.051C94.6435 78.7924 95.3125 78.6593 95.988 78.6593C96.6636 78.6593 97.3326 78.7924 97.9567 79.051C98.5808 79.3096 99.1479 79.6887 99.6255 80.1665C100.103 80.6443 100.482 81.2116 100.74 81.8359C100.999 82.4601 101.132 83.1292 101.131 83.8048V83.8048Z" fill="white" stroke="black" stroke-width="0.195402" stroke-linecap="square"/>
<path d="M102.976 90.8162H89V104.794H102.976V90.8162Z" fill="black" stroke="black" stroke-width="0.197227" stroke-linecap="square"/>
<path d="M101.131 97.8048C101.132 98.4805 100.999 99.1496 100.74 99.7738C100.482 100.398 100.103 100.965 99.6255 101.443C99.1479 101.921 98.5808 102.3 97.9567 102.559C97.3326 102.817 96.6636 102.95 95.988 102.95C95.3125 102.95 94.6435 102.817 94.0194 102.559C93.3952 102.3 92.8282 101.921 92.3506 101.443C91.8729 100.965 91.4941 100.398 91.2357 99.7738C90.9774 99.1496 90.8445 98.4805 90.8447 97.8048C90.8445 97.1292 90.9774 96.4601 91.2357 95.8359C91.4941 95.2116 91.8729 94.6443 92.3506 94.1665C92.8282 93.6887 93.3952 93.3096 94.0194 93.051C94.6435 92.7924 95.3125 92.6593 95.988 92.6593C96.6636 92.6593 97.3326 92.7924 97.9567 93.051C98.5808 93.3096 99.1479 93.6887 99.6255 94.1665C100.103 94.6443 100.482 95.2116 100.74 95.8359C100.999 96.4601 101.132 97.1292 101.131 97.8048V97.8048Z" fill="white" stroke="black" stroke-width="0.195402" stroke-linecap="square"/>
<path d="M102.976 104.816H89V118.794H102.976V104.816Z" fill="black" stroke="black" stroke-width="0.197227" stroke-linecap="square"/>
<path d="M101.131 111.805C101.132 112.48 100.999 113.15 100.74 113.774C100.482 114.398 100.103 114.965 99.6255 115.443C99.1479 115.921 98.5808 116.3 97.9567 116.559C97.3326 116.817 96.6636 116.95 95.988 116.95C95.3125 116.95 94.6435 116.817 94.0194 116.559C93.3952 116.3 92.8282 115.921 92.3506 115.443C91.8729 114.965 91.4941 114.398 91.2357 113.774C90.9774 113.15 90.8445 112.48 90.8447 111.805C90.8445 111.129 90.9774 110.46 91.2357 109.836C91.4941 109.212 91.8729 108.644 92.3506 108.167C92.8282 107.689 93.3952 107.31 94.0194 107.051C94.6435 106.792 95.3125 106.659 95.988 106.659C96.6636 106.659 97.3326 106.792 97.9567 107.051C98.5808 107.31 99.1479 107.689 99.6255 108.167C100.103 108.644 100.482 109.212 100.74 109.836C100.999 110.46 101.132 111.129 101.131 111.805V111.805Z" fill="white" stroke="black" stroke-width="0.195402" stroke-linecap="square"/>
<path d="M117.075 7H103.099V20.9774H117.075V7Z" fill="black" stroke="black" stroke-width="0.197227" stroke-linecap="square"/>
<path d="M115.23 13.9887C115.23 14.6643 115.097 15.3334 114.839 15.9577C114.581 16.5819 114.202 17.1492 113.724 17.627C113.247 18.1049 112.679 18.4839 112.055 18.7425C111.431 19.0011 110.762 19.1342 110.087 19.1342C109.411 19.1342 108.742 19.0011 108.118 18.7425C107.494 18.4839 106.927 18.1049 106.449 17.627C105.972 17.1492 105.593 16.5819 105.334 15.9577C105.076 15.3334 104.943 14.6643 104.943 13.9887C104.943 13.313 105.076 12.644 105.334 12.0197C105.593 11.3954 105.972 10.8282 106.449 10.3503C106.927 9.87251 107.494 9.49346 108.118 9.23485C108.742 8.97625 109.411 8.84314 110.087 8.84314C110.762 8.84314 111.431 8.97625 112.055 9.23485C112.679 9.49346 113.247 9.87251 113.724 10.3503C114.202 10.8282 114.581 11.3954 114.839 12.0197C115.097 12.644 115.23 13.313 115.23 13.9887V13.9887Z" fill="white" stroke="black" stroke-width="0.195402" stroke-linecap="square"/>
<path d="M116.976 20.8162H103V34.7935H116.976V20.8162Z" fill="black" stroke="black" stroke-width="0.197227" stroke-linecap="square"/>
<path d="M115.131 27.8048C115.132 28.4805 114.999 29.1496 114.74 29.7738C114.482 30.3981 114.103 30.9654 113.626 31.4432C113.148 31.921 112.581 32.3001 111.957 32.5587C111.333 32.8173 110.664 32.9504 109.988 32.9504C109.312 32.9504 108.643 32.8173 108.019 32.5587C107.395 32.3001 106.828 31.921 106.351 31.4432C105.873 30.9654 105.494 30.3981 105.236 29.7738C104.977 29.1496 104.844 28.4805 104.845 27.8048C104.844 27.1292 104.977 26.4601 105.236 25.8359C105.494 25.2116 105.873 24.6443 106.351 24.1665C106.828 23.6887 107.395 23.3096 108.019 23.051C108.643 22.7924 109.312 22.6593 109.988 22.6593C110.664 22.6593 111.333 22.7924 111.957 23.051C112.581 23.3096 113.148 23.6887 113.626 24.1665C114.103 24.6443 114.482 25.2116 114.74 25.8359C114.999 26.4601 115.132 27.1292 115.131 27.8048V27.8048Z" fill="white" stroke="black" stroke-width="0.195402" stroke-linecap="square"/>
<path d="M116.976 34.8162H103V48.7935H116.976V34.8162Z" fill="black" stroke="black" stroke-width="0.197227" stroke-linecap="square"/>
<path d="M115.131 41.8048C115.132 42.4805 114.999 43.1496 114.74 43.7738C114.482 44.3981 114.103 44.9654 113.626 45.4432C113.148 45.921 112.581 46.3001 111.957 46.5587C111.333 46.8173 110.664 46.9504 109.988 46.9504C109.312 46.9504 108.643 46.8173 108.019 46.5587C107.395 46.3001 106.828 45.921 106.351 45.4432C105.873 44.9654 105.494 44.3981 105.236 43.7738C104.977 43.1496 104.844 42.4805 104.845 41.8048C104.844 41.1292 104.977 40.4601 105.236 39.8359C105.494 39.2116 105.873 38.6443 106.351 38.1665C106.828 37.6887 107.395 37.3096 108.019 37.051C108.643 36.7924 109.312 36.6593 109.988 36.6593C110.664 36.6593 111.333 36.7924 111.957 37.051C112.581 37.3096 113.148 37.6887 113.626 38.1665C114.103 38.6443 114.482 39.2116 114.74 39.8359C114.999 40.4601 115.132 41.1292 115.131 41.8048V41.8048Z" fill="white" stroke="black" stroke-width="0.195402" stroke-linecap="square"/>
<path d="M116.976 48.8162H103V62.7935H116.976V48.8162Z" fill="black" stroke="black" stroke-width="0.197227" stroke-linecap="square"/>
<path d="M115.131 55.8048C115.132 56.4805 114.999 57.1496 114.74 57.7738C114.482 58.3981 114.103 58.9654 113.626 59.4432C113.148 59.921 112.581 60.3001 111.957 60.5587C111.333 60.8173 110.664 60.9504 109.988 60.9504C109.312 60.9504 108.643 60.8173 108.019 60.5587C107.395 60.3001 106.828 59.921 106.351 59.4432C105.873 58.9654 105.494 58.3981 105.236 57.7738C104.977 57.1496 104.844 56.4805 104.845 55.8048C104.844 55.1292 104.977 54.4601 105.236 53.8359C105.494 53.2116 105.873 52.6443 106.351 52.1665C106.828 51.6887 107.395 51.3096 108.019 51.051C108.643 50.7924 109.312 50.6593 109.988 50.6593C110.664 50.6593 111.333 50.7924 111.957 51.051C112.581 51.3096 113.148 51.6887 113.626 52.1665C114.103 52.6443 114.482 53.2116 114.74 53.8359C114.999 54.4601 115.132 55.1292 115.131 55.8048V55.8048Z" fill="white" stroke="black" stroke-width="0.195402" stroke-linecap="square"/>
<path d="M116.976 62.8162H103V76.7935H116.976V62.8162Z" fill="black" stroke="black" stroke-width="0.197227" stroke-linecap="square"/>
<path d="M115.131 69.8048C115.132 70.4805 114.999 71.1496 114.74 71.7738C114.482 72.3981 114.103 72.9654 113.626 73.4432C113.148 73.921 112.581 74.3001 111.957 74.5587C111.333 74.8173 110.664 74.9504 109.988 74.9504C109.312 74.9504 108.643 74.8173 108.019 74.5587C107.395 74.3001 106.828 73.921 106.351 73.4432C105.873 72.9654 105.494 72.3981 105.236 71.7738C104.977 71.1496 104.844 70.4805 104.845 69.8048C104.844 69.1292 104.977 68.4601 105.236 67.8359C105.494 67.2116 105.873 66.6443 106.351 66.1665C106.828 65.6887 107.395 65.3096 108.019 65.051C108.643 64.7924 109.312 64.6593 109.988 64.6593C110.664 64.6593 111.333 64.7924 111.957 65.051C112.581 65.3096 113.148 65.6887 113.626 66.1665C114.103 66.6443 114.482 67.2116 114.74 67.8359C114.999 68.4601 115.132 69.1292 115.131 69.8048V69.8048Z" fill="white" stroke="black" stroke-width="0.195402" stroke-linecap="square"/>
<path d="M116.976 76.8162H103V90.7935H116.976V76.8162Z" fill="black" stroke="black" stroke-width="0.197227" stroke-linecap="square"/>
<path d="M115.131 83.8048C115.132 84.4805 114.999 85.1496 114.74 85.7738C114.482 86.3981 114.103 86.9654 113.626 87.4432C113.148 87.921 112.581 88.3001 111.957 88.5587C111.333 88.8173 110.664 88.9504 109.988 88.9504C109.312 88.9504 108.643 88.8173 108.019 88.5587C107.395 88.3001 106.828 87.921 106.351 87.4432C105.873 86.9654 105.494 86.3981 105.236 85.7738C104.977 85.1496 104.844 84.4805 104.845 83.8048C104.844 83.1292 104.977 82.4601 105.236 81.8359C105.494 81.2116 105.873 80.6443 106.351 80.1665C106.828 79.6887 107.395 79.3096 108.019 79.051C108.643 78.7924 109.312 78.6593 109.988 78.6593C110.664 78.6593 111.333 78.7924 111.957 79.051C112.581 79.3096 113.148 79.6887 113.626 80.1665C114.103 80.6443 114.482 81.2116 114.74 81.8359C114.999 82.4601 115.132 83.1292 115.131 83.8048V83.8048Z" fill="white" stroke="black" stroke-width="0.195402" stroke-linecap="square"/>
<path d="M116.976 90.8162H103V104.794H116.976V90.8162Z" fill="black" stroke="black" stroke-width="0.197227" stroke-linecap="square"/>
<path d="M115.131 97.8048C115.132 98.4805 114.999 99.1496 114.74 99.7738C114.482 100.398 114.103 100.965 113.626 101.443C113.148 101.921 112.581 102.3 111.957 102.559C111.333 102.817 110.664 102.95 109.988 102.95C109.312 102.95 108.643 102.817 108.019 102.559C107.395 102.3 106.828 101.921 106.351 101.443C105.873 100.965 105.494 100.398 105.236 99.7738C104.977 99.1496 104.844 98.4805 104.845 97.8048C104.844 97.1292 104.977 96.4601 105.236 95.8359C105.494 95.2116 105.873 94.6443 106.351 94.1665C106.828 93.6887 107.395 93.3096 108.019 93.051C108.643 92.7924 109.312 92.6593 109.988 92.6593C110.664 92.6593 111.333 92.7924 111.957 93.051C112.581 93.3096 113.148 93.6887 113.626 94.1665C114.103 94.6443 114.482 95.2116 114.74 95.8359C114.999 96.4601 115.132 97.1292 115.131 97.8048V97.8048Z" fill="white" stroke="black" stroke-width="0.195402" stroke-linecap="square"/>
<path d="M116.976 104.816H103V118.794H116.976V104.816Z" fill="black" stroke="black" stroke-width="0.197227" stroke-linecap="square"/>
<path d="M115.131 111.805C115.132 112.48 114.999 113.15 114.74 113.774C114.482 114.398 114.103 114.965 113.626 115.443C113.148 115.921 112.581 116.3 111.957 116.559C111.333 116.817 110.664 116.95 109.988 116.95C109.312 116.95 108.643 116.817 108.019 116.559C107.395 116.3 106.828 115.921 106.351 115.443C105.873 114.965 105.494 114.398 105.236 113.774C104.977 113.15 104.844 112.48 104.845 111.805C104.844 111.129 104.977 110.46 105.236 109.836C105.494 109.212 105.873 108.644 106.351 108.167C106.828 107.689 107.395 107.31 108.019 107.051C108.643 106.792 109.312 106.659 109.988 106.659C110.664 106.659 111.333 106.792 111.957 107.051C112.581 107.31 113.148 107.689 113.626 108.167C114.103 108.644 114.482 109.212 114.74 109.836C114.999 110.46 115.132 111.129 115.131 111.805V111.805Z" fill="white" stroke="black" stroke-width="0.195402" stroke-linecap="square"/>
</svg>
