<svg width="7" height="7" viewBox="0 0 7 7" fill="none" xmlns="http://www.w3.org/2000/svg">
<g clip-path="url(#clip0)">
<path d="M6.35129 3.17703C6.35143 3.59419 6.26939 4.0073 6.10986 4.39274C5.95034 4.77819 5.71644 5.12843 5.42154 5.42346C5.12664 5.71849 4.77651 5.95253 4.39116 6.1122C4.0058 6.27187 3.59277 6.35406 3.17564 6.35406C2.75852 6.35406 2.34549 6.27187 1.96013 6.1122C1.57477 5.95253 1.22465 5.71849 0.929746 5.42346C0.634846 5.12843 0.40095 4.77819 0.241422 4.39274C0.0818941 4.0073 -0.000140636 3.59419 1.80983e-07 3.17703C-0.000140636 2.75987 0.0818941 2.34676 0.241422 1.96131C0.40095 1.57587 0.634846 1.22562 0.929746 0.930596C1.22465 0.635568 1.57477 0.401531 1.96013 0.241858C2.34549 0.0821837 2.75852 0 3.17564 0C3.59277 0 4.0058 0.0821837 4.39116 0.241858C4.77651 0.401531 5.12664 0.635568 5.42154 0.930596C5.71644 1.22562 5.95034 1.57587 6.10986 1.96131C6.26939 2.34676 6.35143 2.75987 6.35129 3.17703V3.17703Z" fill="#D02625" stroke="black" stroke-width="0.195402" stroke-linecap="square"/>
</g>
<defs>
<clipPath id="clip0">
<rect width="6.35" height="6.35" fill="white"/>
</clipPath>
</defs>
</svg>
