<?xml version="1.0" encoding="UTF-8" standalone="no"?>
<!-- Created with Inkscape (http://www.inkscape.org/) -->

<svg
   xmlns:dc="http://purl.org/dc/elements/1.1/"
   xmlns:cc="http://creativecommons.org/ns#"
   xmlns:rdf="http://www.w3.org/1999/02/22-rdf-syntax-ns#"
   xmlns:svg="http://www.w3.org/2000/svg"
   xmlns="http://www.w3.org/2000/svg"
   xmlns:sodipodi="http://sodipodi.sourceforge.net/DTD/sodipodi-0.dtd"
   xmlns:inkscape="http://www.inkscape.org/namespaces/inkscape"
   width="100mm"
   height="50mm"
   viewBox="0 0 100 50"
   version="1.1"
   id="svg1220"
   sodipodi:docname="servo_arm_new_centered.svg"
   inkscape:version="0.92.3 (2405546, 2018-03-11)"
   inkscape:export-filename="/home/tneutens/Documents/UGent/Onderzoek/DwenguinoBlockly/Blockly-for-Dwenguino/DwenguinoIDE/img/socialrobot/servo_arm_new_centered.png"
   inkscape:export-xdpi="58.419998"
   inkscape:export-ydpi="58.419998">
  <defs
     id="defs1214" />
  <sodipodi:namedview
     id="base"
     pagecolor="#ffffff"
     bordercolor="#666666"
     borderopacity="1.0"
     inkscape:pageopacity="0.0"
     inkscape:pageshadow="2"
     inkscape:zoom="2"
     inkscape:cx="199.22117"
     inkscape:cy="124.69008"
     inkscape:document-units="mm"
     inkscape:current-layer="layer1"
     showgrid="false"
     inkscape:showpageshadow="false"
     showguides="true"
     inkscape:guide-bbox="true"
     inkscape:window-width="1920"
     inkscape:window-height="1043"
     inkscape:window-x="1440"
     inkscape:window-y="0"
     inkscape:window-maximized="1"
     inkscape:pagecheckerboard="true">
    <sodipodi:guide
       position="50,69.890981"
       orientation="1,0"
       id="guide1786"
       inkscape:locked="false"
       inkscape:label=""
       inkscape:color="rgb(0,0,255)" />
    <sodipodi:guide
       position="-21.247927,50"
       orientation="0,1"
       id="guide1788"
       inkscape:locked="false"
       inkscape:label=""
       inkscape:color="rgb(0,0,255)" />
    <sodipodi:guide
       position="46.30356,50.11728"
       orientation="1,0"
       id="guide1790"
       inkscape:locked="false" />
    <sodipodi:guide
       position="53.697162,49.881263"
       orientation="1,0"
       id="guide1792"
       inkscape:locked="false" />
  </sodipodi:namedview>
  <metadata
     id="metadata1217">
    <rdf:RDF>
      <cc:Work
         rdf:about="">
        <dc:format>image/svg+xml</dc:format>
        <dc:type
           rdf:resource="http://purl.org/dc/dcmitype/StillImage" />
        <dc:title></dc:title>
      </cc:Work>
    </rdf:RDF>
  </metadata>
  <g
     inkscape:label="Layer 1"
     inkscape:groupmode="layer"
     id="layer1"
     transform="translate(0,-247)">
    <path
       inkscape:connector-curvature="0"
       style="fill:#ffffff;fill-opacity:1;stroke:#ffffff;stroke-width:0.791;stroke-miterlimit:4;stroke-dasharray:none;stroke-opacity:1"
       id="path4-8"
       d="m 5.5184845,267.44528 -4.2e-6,0.01 -0.286094,-1.2e-4 -0.567536,0.0716 -0.5542896,0.142 -0.5319342,0.21039 -0.5014975,0.2754 -0.4629979,0.33608 -0.4172032,0.39147 -0.3648967,0.44067 -0.3067365,0.48291 -0.2437509,0.51755 -0.1769881,0.54405 -0.10748052,0.56193 -0.0361493,0.57095 0.0356707,0.57098 0.10700952,0.56202 0.1765319,0.54418 0.243317,0.51777 0.3063315,0.48317 0.3645272,0.44097 0.4168748,0.39181 0.462716,0.33648 0.5012664,0.27582 0.5317577,0.21083 0.5541703,0.14246 0.5674759,0.072 0.2860939,1.2e-4 -4.2e-6,0.01 c 14.9035425,0.46911 29.7881405,2.60147 44.7035395,2.60772 l 0.891973,-0.11242 0.87086,-0.22323 0.83604,-0.33058 0.788,-0.43279 0.727556,-0.52814 0.655611,-0.61515 0.573341,-0.69245 0.482036,-0.75889 0.383147,-0.8133 0.27815,-0.85492 0.168839,-0.88301 0.05684,-0.89724 -0.05608,-0.89726 -0.168098,-0.88317 -0.277434,-0.85514 -0.382465,-0.81363 -0.481399,-0.7593 -0.572761,-0.69294 -0.655095,-0.6157 -0.727112,-0.52875 -0.787638,-0.43344 -0.835762,-0.33129 -0.870673,-0.22396 -0.891878,-0.11317 c -6.15479,-0.0236 -38.918893,2.17078 -44.7057102,2.57039 z m 44.4547665,1.64311 0.0533,3e-5 0.135753,0.19289 0.102195,0.20644 0.04514,0.14862 0.02042,0.0172 0.02427,0.0111 0.02636,0.003 0.02652,-0.003 0.02472,-0.0111 0.08895,-0.12725 0.155168,-0.1594 0.19478,-0.14661 0.05071,0.0164 0.0652,0.20736 0.0377,0.24597 -0.0031,0.15528 0.01415,0.0226 0.01966,0.0181 0.02377,0.0111 0.02617,0.005 0.02662,-9.9e-4 0.123925,-0.0935 0.188168,-0.0998 0.239203,-0.0829 0.04312,0.0313 -0.0098,0.29346 -0.03251,0.16947 -0.05084,0.14683 0.0065,0.0259 0.01319,0.0232 0.01886,0.0189 0.02322,0.0127 0.0259,0.006 0.146785,-0.0506 0.169486,-0.0324 0.29348,-0.01 0.03131,0.0431 -0.08313,0.23913 -0.100069,0.1881 -0.09371,0.1239 -0.0018,0.0266 0.0054,0.0261 0.01208,0.0239 0.01802,0.0196 0.02265,0.0143 0.155246,-0.003 0.245951,0.0378 0.207309,0.0655 0.01645,0.0507 -0.146702,0.19465 -0.15954,0.15505 -0.127408,0.0888 -0.01003,0.0247 -0.003,0.0266 0.0041,0.0264 0.01113,0.0242 0.01714,0.0205 0.148575,0.0453 0.206368,0.10239 0.192777,0.13595 -2.2e-5,0.0533 -0.192891,0.13579 -0.206454,0.10221 -0.148629,0.0451 -0.01716,0.0204 -0.01115,0.0243 -0.0041,0.0263 0.003,0.0266 0.01001,0.0247 0.127318,0.089 0.159408,0.15518 0.14654,0.19479 -0.01649,0.0507 -0.207363,0.0653 -0.245983,0.0376 -0.15529,-0.003 -0.02263,0.0143 -0.01805,0.0196 -0.0121,0.0239 -0.0054,0.0261 0.0018,0.0267 0.09359,0.12397 0.09991,0.18817 0.08293,0.23921 -0.03135,0.0431 -0.293472,-0.0101 -0.169456,-0.0326 -0.146775,-0.0508 -0.02587,0.006 -0.02324,0.0127 -0.01888,0.0189 -0.01321,0.0232 -0.0065,0.0259 0.05072,0.14686 0.03237,0.16949 0.0096,0.29348 -0.04314,0.0313 -0.239132,-0.0832 -0.188084,-0.1 -0.12388,-0.0937 -0.02662,-0.001 -0.02617,0.005 -0.02378,0.0111 -0.01967,0.0181 -0.01417,0.0226 0.0029,0.15527 -0.0379,0.24594 -0.06538,0.20731 -0.05073,0.0164 -0.194657,-0.14676 -0.155034,-0.15958 -0.08885,-0.12731 -0.02472,-0.0111 -0.02652,-0.003 -0.02636,0.003 -0.02428,0.0111 -0.02045,0.0172 -0.04524,0.14859 -0.102368,0.20634 -0.135915,0.19281 -0.05331,-3e-5 -0.135721,-0.19291 -0.102228,-0.20644 -0.04512,-0.14861 -0.02042,-0.0172 -0.02429,-0.0111 -0.02636,-0.003 -0.02652,0.003 -0.02472,0.0111 -0.08892,0.12725 -0.155183,0.15942 -0.19478,0.1466 -0.05069,-0.0164 -0.0652,-0.20736 -0.03772,-0.24597 0.0031,-0.15528 -0.01415,-0.0226 -0.01967,-0.0181 -0.02378,-0.0111 -0.02614,-0.005 -0.02663,9.9e-4 -0.123911,0.0936 -0.188191,0.0998 -0.239194,0.0829 -0.04312,-0.0313 0.0098,-0.29344 0.03252,-0.16949 0.05084,-0.14682 -0.0065,-0.0259 -0.01319,-0.0232 -0.01886,-0.0189 -0.02323,-0.0127 -0.0259,-0.006 -0.146786,0.0506 -0.169483,0.0324 -0.29348,0.01 -0.03131,-0.0431 0.08313,-0.23914 0.100086,-0.18809 0.09371,-0.12389 0.0018,-0.0266 -0.0054,-0.0261 -0.01208,-0.0239 -0.018,-0.0197 -0.02263,-0.0143 -0.155325,0.003 -0.245951,-0.0378 -0.207283,-0.0655 -0.01646,-0.0507 0.146703,-0.19468 0.159554,-0.15505 0.127408,-0.0888 0.01003,-0.0247 0.003,-0.0266 -0.0041,-0.0264 -0.01113,-0.0243 -0.01714,-0.0204 -0.148575,-0.0453 -0.206344,-0.10239 -0.192778,-0.13595 2.3e-5,-0.0533 0.192892,-0.13579 0.206429,-0.10221 0.148628,-0.0451 0.01716,-0.0204 0.01115,-0.0243 0.0041,-0.0264 -0.003,-0.0266 -0.01001,-0.0248 -0.127318,-0.089 -0.159422,-0.15517 -0.146539,-0.19478 0.0165,-0.0507 0.207336,-0.0653 0.245983,-0.0376 0.155339,0.003 0.02263,-0.0143 0.01805,-0.0196 0.0121,-0.0239 0.0054,-0.0263 -0.0017,-0.0267 -0.09361,-0.12397 -0.09993,-0.18819 -0.08293,-0.2392 0.03135,-0.0431 0.293471,0.0101 0.169457,0.0326 0.146775,0.0508 0.0259,-0.006 0.02322,-0.0127 0.01888,-0.0189 0.01321,-0.0232 0.0064,-0.0259 -0.05071,-0.14687 -0.03238,-0.16949 -0.0096,-0.29347 0.04314,-0.0313 0.239125,0.0831 0.188108,0.1 0.123864,0.0935 0.02663,10e-4 0.02614,-0.005 0.02378,-0.0111 0.01967,-0.0181 0.01417,-0.0226 -0.0029,-0.15528 0.03792,-0.24593 0.06538,-0.2073 0.05071,-0.0164 0.194656,0.14676 0.15505,0.15957 0.08885,0.12746 0.02472,0.0111 0.02652,0.003 0.02636,-0.003 0.02429,-0.0111 0.02044,-0.0172 0.04524,-0.14858 0.102399,-0.20636 z m -26.761365,0.97142 0.24326,0.0308 0.237391,0.061 0.228006,0.0903 0.214717,0.11829 0.198307,0.14423 0.178773,0.16792 0.15612,0.18899 0.131372,0.20706 0.104289,0.22189 0.07566,0.23323 0.04585,0.24088 0.01533,0.2447 -0.01553,0.24469 -0.04605,0.24083 -0.07586,0.23317 -0.104475,0.22179 -0.131546,0.20696 -0.156278,0.18886 -0.178914,0.16777 -0.198428,0.14405 -0.214816,0.11812 -0.228082,0.0901 -0.237442,0.0608 -0.243285,0.0306 -0.245224,-1.1e-4 -0.243261,-0.0308 -0.23739,-0.061 -0.228006,-0.0903 -0.214719,-0.1183 -0.198307,-0.14423 -0.178642,-0.16791 -0.156247,-0.189 -0.131372,-0.20706 -0.104305,-0.22189 -0.07566,-0.23323 -0.04585,-0.24087 -0.01533,-0.24469 0.01553,-0.2447 0.04605,-0.24084 0.07586,-0.23317 0.104491,-0.22179 0.131546,-0.20696 0.156405,-0.18885 0.178782,-0.16778 0.198428,-0.14405 0.214818,-0.11811 0.228082,-0.0901 0.23744,-0.0608 0.243287,-0.0306 z m 7.809724,0.003 0.243262,0.0308 0.237389,0.061 0.228006,0.0903 0.214718,0.11829 0.198308,0.14422 0.178772,0.16793 0.15612,0.18898 0.131372,0.20707 0.104289,0.22188 0.07566,0.23323 0.04585,0.24088 0.01533,0.24471 -0.01553,0.24468 -0.04605,0.24083 -0.07586,0.23317 -0.104475,0.2218 -0.131545,0.20695 -0.156279,0.18887 -0.178912,0.16776 -0.198429,0.14406 -0.214817,0.11812 -0.228082,0.0901 -0.23744,0.0608 -0.243287,0.0306 -0.245224,-10e-5 -0.243261,-0.0308 -0.23739,-0.061 -0.228006,-0.0903 -0.214717,-0.1183 -0.198307,-0.14422 -0.178643,-0.16792 -0.156247,-0.18899 -0.131372,-0.20707 -0.104305,-0.22188 -0.07566,-0.23323 -0.04585,-0.24087 -0.01533,-0.2447 0.01553,-0.24469 0.04605,-0.24084 0.07586,-0.23317 0.104491,-0.2218 0.131546,-0.20695 0.156405,-0.18886 0.178784,-0.16777 0.198428,-0.14406 0.214816,-0.11811 0.228082,-0.0901 0.237441,-0.0608 0.243286,-0.0306 z m 7.809713,0.003 0.243246,0.0308 0.237456,0.061 0.227928,0.0903 0.214809,0.11829 0.19832,0.14422 0.178655,0.16793 0.156215,0.18898 0.131293,0.20707 0.104304,0.22188 0.07566,0.23324 0.04583,0.24087 0.01533,0.24471 -0.01553,0.24468 -0.04603,0.24084 -0.07586,0.23316 -0.10449,0.2218 -0.131467,0.20695 -0.156373,0.18887 -0.178796,0.16776 -0.198441,0.14406 -0.214908,0.11812 -0.228003,0.0901 -0.237508,0.0608 -0.243272,0.0306 -0.245187,-1e-4 -0.243246,-0.0308 -0.237454,-0.061 -0.227928,-0.0903 -0.21481,-0.1183 -0.198307,-0.14422 -0.178604,-0.16791 -0.156247,-0.189 -0.131372,-0.20706 -0.104305,-0.22189 -0.07566,-0.23323 -0.04585,-0.24087 -0.01533,-0.2447 0.01553,-0.24469 0.04605,-0.24084 0.07586,-0.23317 0.104491,-0.22179 0.131546,-0.20696 0.156405,-0.18885 0.178745,-0.16778 0.198428,-0.14406 0.214909,-0.11811 0.228003,-0.0901 0.237506,-0.0608 0.243272,-0.0306 z m -31.2388875,-0.0131 0.2432601,0.0308 0.2373904,0.061 0.2280092,0.0903 0.2147165,0.11829 0.1983065,0.14422 0.1787716,0.16793 0.1561198,0.18898 0.1313723,0.20707 0.104305,0.22188 0.075662,0.23323 0.045849,0.24088 0.015328,0.24471 -0.015533,0.24468 -0.046051,0.24083 -0.075858,0.23317 -0.104491,0.2218 -0.1315457,0.20695 -0.1562782,0.18886 -0.1789123,0.16777 -0.1984274,0.14406 -0.2148156,0.11812 -0.2280848,0.0901 -0.2374415,0.0608 -0.2432858,0.0306 -0.245224,-1e-4 -0.2432601,-0.0308 -0.2373904,-0.061 -0.2280092,-0.0903 -0.2147164,-0.1183 -0.1983056,-0.14422 -0.1786416,-0.16792 -0.1562468,-0.18899 -0.1313733,-0.20707 -0.104304,-0.22188 -0.075662,-0.23323 -0.045849,-0.24087 -0.015327,-0.2447 0.015533,-0.24469 0.046051,-0.24084 0.075858,-0.23317 0.10449,-0.2218 0.1315467,-0.20695 0.1564052,-0.18886 0.1787823,-0.16777 0.1984264,-0.14406 0.2148156,-0.11811 0.2280848,-0.0901 0.2374415,-0.0608 0.2432858,-0.0306 z m 7.8097245,0.003 0.243262,0.0308 0.23739,0.061 0.228007,0.0903 0.214717,0.11829 0.198307,0.14422 0.178771,0.16793 0.15612,0.18898 0.131372,0.20707 0.104305,0.22188 0.07566,0.23323 0.04585,0.24088 0.01533,0.24471 -0.01553,0.24468 -0.04605,0.24083 -0.07586,0.23317 -0.104491,0.2218 -0.131546,0.20695 -0.156278,0.18887 -0.178913,0.16776 -0.198427,0.14406 -0.214817,0.11812 -0.228081,0.0901 -0.237442,0.0608 -0.243288,0.0306 -0.245224,-1e-4 -0.24326,-0.0308 -0.23739,-0.061 -0.228004,-0.0903 -0.214722,-0.1183 -0.198304,-0.14422 -0.178643,-0.16791 -0.156247,-0.189 -0.131373,-0.20707 -0.104304,-0.22188 -0.07566,-0.23323 -0.04585,-0.24087 -0.01533,-0.2447 0.01553,-0.24469 0.04605,-0.24084 0.07586,-0.23317 0.104489,-0.2218 0.131547,-0.20695 0.156405,-0.18885 0.178784,-0.16778 0.198425,-0.14406 0.214821,-0.11811 0.228079,-0.0901 0.237442,-0.0608 0.243286,-0.0306 z"
       inkscape:transform-center-x="21.05442"
       inkscape:transform-center-y="0.020957614" />
  </g>
</svg>
