<?xml version="1.0" encoding="UTF-8" standalone="no"?>
<!-- Created with Inkscape (http://www.inkscape.org/) -->

<svg
   xmlns:dc="http://purl.org/dc/elements/1.1/"
   xmlns:cc="http://creativecommons.org/ns#"
   xmlns:rdf="http://www.w3.org/1999/02/22-rdf-syntax-ns#"
   xmlns:svg="http://www.w3.org/2000/svg"
   xmlns="http://www.w3.org/2000/svg"
   xmlns:sodipodi="http://sodipodi.sourceforge.net/DTD/sodipodi-0.dtd"
   xmlns:inkscape="http://www.inkscape.org/namespaces/inkscape"
   width="100mm"
   height="50mm"
   viewBox="0 0 100 50"
   version="1.1"
   id="svg1220"
   sodipodi:docname="servo_arm_new_centered.svg"
   inkscape:version="0.92.3 (2405546, 2018-03-11)"
   inkscape:export-filename="/home/tneutens/Documents/UGent/Onderzoek/DwenguinoBlockly/Blockly-for-Dwenguino/DwenguinoIDE/img/socialrobot/servo_arm_new_centered.png"
   inkscape:export-xdpi="58.419998"
   inkscape:export-ydpi="58.419998">
  <defs
     id="defs1214" />
  <sodipodi:namedview
     id="base"
     pagecolor="#ffffff"
     bordercolor="#666666"
     borderopacity="1.0"
     inkscape:pageopacity="0.0"
     inkscape:pageshadow="2"
     inkscape:zoom="2"
     inkscape:cx="103.47117"
     inkscape:cy="124.69008"
     inkscape:document-units="mm"
     inkscape:current-layer="layer1"
     showgrid="false"
     inkscape:showpageshadow="false"
     showguides="true"
     inkscape:guide-bbox="true"
     inkscape:window-width="1920"
     inkscape:window-height="1043"
     inkscape:window-x="1440"
     inkscape:window-y="0"
     inkscape:window-maximized="1"
     inkscape:pagecheckerboard="true">
    <sodipodi:guide
       position="50,69.890981"
       orientation="1,0"
       id="guide1786"
       inkscape:locked="false"
       inkscape:label=""
       inkscape:color="rgb(0,0,255)" />
    <sodipodi:guide
       position="-21.247927,50"
       orientation="0,1"
       id="guide1788"
       inkscape:locked="false"
       inkscape:label=""
       inkscape:color="rgb(0,0,255)" />
    <sodipodi:guide
       position="46.30356,50.11728"
       orientation="1,0"
       id="guide1790"
       inkscape:locked="false" />
    <sodipodi:guide
       position="53.697162,49.881263"
       orientation="1,0"
       id="guide1792"
       inkscape:locked="false" />
  </sodipodi:namedview>
  <metadata
     id="metadata1217">
    <rdf:RDF>
      <cc:Work
         rdf:about="">
        <dc:format>image/svg+xml</dc:format>
        <dc:type
           rdf:resource="http://purl.org/dc/dcmitype/StillImage" />
        <dc:title />
      </cc:Work>
    </rdf:RDF>
  </metadata>
  <g
     inkscape:label="Layer 1"
     inkscape:groupmode="layer"
     id="layer1"
     transform="translate(0,-247)">
    <path
       inkscape:connector-curvature="0"
       style="fill:#ffffff;fill-opacity:1;stroke:#ffffff;stroke-width:0.67497855;stroke-miterlimit:4;stroke-dasharray:none;stroke-opacity:1"
       id="path4-8"
       d="m 12.042922,268.11343 -3e-6,0.009 -0.244131,-1e-4 -0.484292,0.0611 -0.472988,0.12118 -0.453911,0.17953 -0.4279398,0.235 -0.3950868,0.28679 -0.3560092,0.33405 -0.3113748,0.37603 -0.2617453,0.41208 -0.2079983,0.44164 -0.151028,0.46425 -0.091716,0.47951 -0.030847,0.4872 0.030439,0.48723 0.091314,0.47959 0.1506387,0.46436 0.207628,0.44182 0.2613998,0.4123 0.3110595,0.37629 0.3557289,0.33434 0.3948462,0.28713 0.4277421,0.23536 0.453761,0.17991 0.472886,0.12156 0.484241,0.0614 0.24413,10e-5 -4e-6,0.009 c 12.717537,0.4003 25.418909,2.21989 38.146563,2.22523 l 0.761141,-0.0959 0.743125,-0.19048 0.713412,-0.28209 0.672419,-0.36931 0.62084,-0.45068 0.559448,-0.52492 0.489246,-0.59088 0.411332,-0.64758 0.326948,-0.69401 0.237352,-0.72952 0.144074,-0.7535 0.0485,-0.76563 -0.04785,-0.76565 -0.143442,-0.75363 -0.236741,-0.72971 -0.326366,-0.69429 -0.410789,-0.64793 -0.48875,-0.5913 -0.559008,-0.52539 -0.620461,-0.4512 -0.67211,-0.36986 -0.713175,-0.2827 -0.742966,-0.19111 -0.76106,-0.0966 c -5.252024,-0.0201 -33.21039,1.85238 -38.148415,2.19337 z m 37.934279,1.4021 0.04548,3e-5 0.115841,0.16459 0.08721,0.17616 0.03852,0.12682 0.01743,0.0147 0.02071,0.009 0.02249,0.003 0.02263,-0.003 0.0211,-0.009 0.0759,-0.10858 0.132408,-0.13602 0.16621,-0.12511 0.04327,0.014 0.05564,0.17695 0.03217,0.20989 -0.0026,0.13251 0.01207,0.0193 0.01678,0.0154 0.02028,0.009 0.02233,0.004 0.02272,-8.4e-4 0.105748,-0.0798 0.160568,-0.0852 0.204118,-0.0707 0.03679,0.0267 -0.0084,0.25042 -0.02774,0.14461 -0.04338,0.12529 0.0055,0.0221 0.01126,0.0198 0.01609,0.0161 0.01981,0.0108 0.0221,0.005 0.125255,-0.0432 0.144626,-0.0277 0.250434,-0.009 0.02672,0.0368 -0.07094,0.20405 -0.08539,0.16051 -0.07997,0.10573 -0.0015,0.0227 0.0046,0.0223 0.01031,0.0204 0.01538,0.0167 0.01933,0.0122 0.132475,-0.003 0.209876,0.0323 0.176901,0.0559 0.01404,0.0433 -0.125184,0.1661 -0.136139,0.13231 -0.10872,0.0758 -0.0086,0.0211 -0.0026,0.0227 0.0035,0.0225 0.0095,0.0207 0.01463,0.0175 0.126783,0.0387 0.176098,0.0874 0.164501,0.11601 -1.8e-5,0.0455 -0.164599,0.11587 -0.176172,0.0872 -0.126828,0.0385 -0.01464,0.0174 -0.0095,0.0207 -0.0035,0.0224 0.0026,0.0227 0.0085,0.0211 0.108644,0.0759 0.136026,0.13242 0.125046,0.16622 -0.01407,0.0433 -0.176948,0.0557 -0.209903,0.0321 -0.132512,-0.003 -0.01931,0.0122 -0.0154,0.0167 -0.01033,0.0204 -0.0046,0.0223 0.0015,0.0228 0.07986,0.10578 0.08525,0.16057 0.07077,0.20413 -0.02675,0.0368 -0.250427,-0.009 -0.1446,-0.0278 -0.125247,-0.0433 -0.02208,0.005 -0.01983,0.0108 -0.01611,0.0161 -0.01127,0.0198 -0.0055,0.0221 0.04328,0.12532 0.02762,0.14463 0.0082,0.25043 -0.03681,0.0267 -0.204057,-0.071 -0.160497,-0.0853 -0.105709,-0.0799 -0.02272,-8.5e-4 -0.02233,0.004 -0.02029,0.009 -0.01678,0.0154 -0.01209,0.0193 0.0025,0.1325 -0.03234,0.20987 -0.05579,0.1769 -0.04329,0.014 -0.166106,-0.12523 -0.132294,-0.13617 -0.07582,-0.10864 -0.0211,-0.009 -0.02263,-0.003 -0.02249,0.003 -0.02072,0.009 -0.01745,0.0147 -0.0386,0.12679 -0.08735,0.17608 -0.115979,0.16453 -0.04549,-3e-5 -0.115814,-0.16461 -0.08723,-0.17616 -0.0385,-0.12682 -0.01743,-0.0147 -0.02073,-0.009 -0.02249,-0.003 -0.02263,0.003 -0.02109,0.009 -0.07588,0.10858 -0.132421,0.13604 -0.16621,0.12509 -0.04326,-0.014 -0.05564,-0.17694 -0.03219,-0.2099 0.0026,-0.1325 -0.01207,-0.0193 -0.01679,-0.0154 -0.02029,-0.009 -0.02231,-0.004 -0.02272,8.5e-4 -0.105736,0.0799 -0.160588,0.0852 -0.20411,0.0707 -0.03679,-0.0267 0.0084,-0.2504 0.02775,-0.14463 0.04338,-0.12528 -0.0055,-0.0221 -0.01125,-0.0198 -0.01609,-0.0161 -0.01982,-0.0108 -0.0221,-0.005 -0.125256,0.0432 -0.144623,0.0276 -0.250434,0.009 -0.02672,-0.0368 0.07094,-0.20406 0.08541,-0.1605 0.07997,-0.10572 0.0015,-0.0227 -0.0046,-0.0223 -0.01031,-0.0204 -0.01536,-0.0168 -0.01931,-0.0122 -0.132543,0.003 -0.209875,-0.0322 -0.17688,-0.0559 -0.01405,-0.0433 0.125186,-0.16612 0.136151,-0.13231 0.10872,-0.0758 0.0086,-0.0211 0.0026,-0.0227 -0.0035,-0.0225 -0.0095,-0.0207 -0.01463,-0.0174 -0.126783,-0.0387 -0.176078,-0.0874 -0.164502,-0.11601 2e-5,-0.0455 0.164599,-0.11588 0.176151,-0.0872 0.126827,-0.0385 0.01464,-0.0174 0.0095,-0.0207 0.0035,-0.0225 -0.0026,-0.0227 -0.0085,-0.0212 -0.108644,-0.076 -0.136038,-0.13241 -0.125045,-0.16621 0.01408,-0.0433 0.176924,-0.0557 0.209903,-0.0321 0.132554,0.003 0.01931,-0.0122 0.0154,-0.0167 0.01032,-0.0204 0.0046,-0.0224 -0.0015,-0.0228 -0.07988,-0.10578 -0.08527,-0.16059 -0.07077,-0.20411 0.02675,-0.0368 0.250425,0.009 0.144602,0.0278 0.125246,0.0433 0.0221,-0.005 0.01981,-0.0108 0.01611,-0.0161 0.01127,-0.0198 0.0055,-0.0221 -0.04327,-0.12533 -0.02763,-0.14463 -0.0082,-0.25042 0.03681,-0.0267 0.204051,0.0709 0.160517,0.0853 0.105696,0.0798 0.02272,8.5e-4 0.02231,-0.004 0.02029,-0.009 0.01678,-0.0154 0.01209,-0.0193 -0.0025,-0.1325 0.03236,-0.20986 0.05579,-0.17689 0.04327,-0.014 0.166104,0.12524 0.132308,0.13616 0.07582,0.10877 0.0211,0.009 0.02263,0.003 0.02249,-0.003 0.02073,-0.009 0.01744,-0.0147 0.0386,-0.12679 0.08738,-0.17609 z m -22.836091,0.82893 0.20758,0.0263 0.202571,0.0521 0.194563,0.077 0.183223,0.10094 0.16922,0.12308 0.152551,0.14329 0.133221,0.16127 0.112102,0.17669 0.08899,0.18934 0.06456,0.19902 0.03913,0.20555 0.01308,0.20881 -0.01325,0.2088 -0.03929,0.2055 -0.06473,0.19897 -0.08915,0.18926 -0.112252,0.17661 -0.133355,0.16115 -0.152672,0.14317 -0.169323,0.12292 -0.183307,0.10079 -0.194628,0.0769 -0.202615,0.0519 -0.2076,0.0261 -0.209256,-9e-5 -0.20758,-0.0263 -0.20257,-0.0521 -0.194563,-0.077 -0.183225,-0.10095 -0.16922,-0.12308 -0.152439,-0.14328 -0.133329,-0.16128 -0.112103,-0.17669 -0.08901,-0.18934 -0.06456,-0.19902 -0.03913,-0.20554 -0.01308,-0.2088 0.01325,-0.20881 0.0393,-0.20551 0.06473,-0.19897 0.08916,-0.18926 0.112251,-0.1766 0.133464,-0.16115 0.152559,-0.14317 0.169323,-0.12292 0.183309,-0.10079 0.194628,-0.0769 0.202613,-0.0519 0.207602,-0.0261 z m 6.664218,0.003 0.207581,0.0263 0.20257,0.0521 0.194563,0.077 0.183223,0.10094 0.169221,0.12307 0.15255,0.1433 0.133221,0.16126 0.112103,0.1767 0.08899,0.18933 0.06456,0.19902 0.03912,0.20555 0.01308,0.20882 -0.01325,0.20879 -0.0393,0.20551 -0.06473,0.19897 -0.08915,0.18926 -0.11225,0.1766 -0.133357,0.16116 -0.152669,0.14316 -0.169324,0.12293 -0.183309,0.10079 -0.194627,0.0769 -0.202613,0.0519 -0.207603,0.0261 -0.209255,-8e-5 -0.20758,-0.0263 -0.202571,-0.0521 -0.194562,-0.077 -0.183223,-0.10095 -0.16922,-0.12307 -0.152441,-0.14329 -0.133329,-0.16127 -0.112103,-0.1767 -0.08901,-0.18933 -0.06456,-0.19902 -0.03912,-0.20554 -0.01308,-0.20881 0.01325,-0.2088 0.0393,-0.20551 0.06473,-0.19897 0.08916,-0.18927 0.112251,-0.1766 0.133464,-0.16115 0.152561,-0.14317 0.169323,-0.12293 0.183308,-0.10078 0.194627,-0.0769 0.202614,-0.0519 0.207602,-0.0261 z m 6.664209,0.003 0.207567,0.0263 0.202627,0.052 0.194496,0.0771 0.183301,0.10094 0.169231,0.12307 0.152451,0.1433 0.133302,0.16126 0.112035,0.1767 0.08901,0.18933 0.06456,0.19903 0.03911,0.20554 0.01308,0.20882 -0.01325,0.20879 -0.03928,0.20551 -0.06473,0.19897 -0.08916,0.18926 -0.112183,0.1766 -0.133437,0.16116 -0.152571,0.14316 -0.169334,0.12293 -0.183386,0.10079 -0.19456,0.0769 -0.202671,0.0519 -0.20759,0.0261 -0.209224,-8e-5 -0.207567,-0.0263 -0.202625,-0.0521 -0.194496,-0.077 -0.183303,-0.10095 -0.16922,-0.12307 -0.152407,-0.14328 -0.133329,-0.16128 -0.112103,-0.17669 -0.08901,-0.18934 -0.06456,-0.19902 -0.03912,-0.20554 -0.01308,-0.20881 0.01325,-0.2088 0.0393,-0.20551 0.06473,-0.19897 0.08916,-0.18926 0.112251,-0.17661 0.133464,-0.16115 0.152528,-0.14317 0.169323,-0.12293 0.183387,-0.10078 0.19456,-0.0769 0.202669,-0.0519 0.20759,-0.0261 z m -26.656865,-0.0112 0.20758,0.0263 0.202571,0.0521 0.194565,0.0771 0.183223,0.10094 0.169219,0.12306 0.15255,0.1433 0.133221,0.16126 0.112103,0.1767 0.08901,0.18933 0.06456,0.19903 0.03912,0.20554 0.01308,0.20882 -0.01326,0.20879 -0.0393,0.20551 -0.06473,0.19897 -0.08916,0.18926 -0.112251,0.1766 -0.133356,0.16116 -0.15267,0.14316 -0.169323,0.12293 -0.183307,0.10079 -0.19463,0.0769 -0.202614,0.0519 -0.207602,0.0261 -0.209255,-8e-5 -0.20758,-0.0263 -0.20257,-0.052 -0.194566,-0.0771 -0.183222,-0.10095 -0.169219,-0.12307 -0.152439,-0.14329 -0.133329,-0.16127 -0.112104,-0.1767 -0.08901,-0.18933 -0.06456,-0.19902 -0.03912,-0.20554 -0.01308,-0.20881 0.01326,-0.2088 0.0393,-0.20551 0.06473,-0.19897 0.08916,-0.18927 0.112252,-0.17659 0.133464,-0.16116 0.152559,-0.14317 0.169322,-0.12292 0.183307,-0.10079 0.19463,-0.0769 0.202615,-0.0519 0.207601,-0.0261 z m 6.664219,0.003 0.207581,0.0263 0.20257,0.0521 0.194564,0.0771 0.183223,0.10094 0.16922,0.12306 0.152549,0.1433 0.133221,0.16126 0.112103,0.1767 0.08901,0.18933 0.06456,0.19903 0.03913,0.20554 0.01308,0.20882 -0.01325,0.20879 -0.03929,0.20551 -0.06473,0.19897 -0.08916,0.18926 -0.112251,0.1766 -0.133356,0.16117 -0.15267,0.14315 -0.169323,0.12293 -0.183308,0.10079 -0.194627,0.0769 -0.202615,0.0519 -0.207603,0.0261 -0.209255,-8e-5 -0.20758,-0.0263 -0.20257,-0.0521 -0.194561,-0.077 -0.183227,-0.10095 -0.169218,-0.12307 -0.15244,-0.14328 -0.133329,-0.16128 -0.112104,-0.1767 -0.08901,-0.18933 -0.06456,-0.19902 -0.03912,-0.20554 -0.01308,-0.20881 0.01325,-0.2088 0.0393,-0.20551 0.06473,-0.19897 0.08916,-0.18927 0.112252,-0.17659 0.133464,-0.16115 0.152561,-0.14318 0.16932,-0.12292 0.183312,-0.10079 0.194625,-0.0769 0.202615,-0.0519 0.207602,-0.0261 z"
       inkscape:transform-center-x="17.966225"
       inkscape:transform-center-y="0.018791775" />
  </g>
</svg>
