<svg width="60" height="60" viewBox="0 0 60 60" fill="none" xmlns="http://www.w3.org/2000/svg">
<path d="M45.038 13.9175H14.0542C12.7154 13.9175 11.4313 14.4487 10.4838 15.3944C9.53619 16.3402 9.00256 17.6233 9 18.962V49.9458C9 51.2862 9.5325 52.5718 10.4803 53.5197C11.4282 54.4675 12.7138 55 14.0542 55H45.038C46.3767 54.9974 47.6598 54.4638 48.6056 53.5162C49.5513 52.5687 50.0825 51.2846 50.0825 49.9458V18.962C50.0825 17.6241 49.551 16.3411 48.605 15.395C47.659 14.449 46.3759 13.9175 45.038 13.9175V13.9175Z" fill="#096F80"/>
<g filter="url(#filter0_d)">
<path d="M29.5654 27.2211C31.6379 27.2211 33.6638 27.8358 35.3868 28.9874C37.1099 30.139 38.4526 31.7758 39.2453 33.6906C40.0379 35.6055 40.2448 37.7124 39.8398 39.7449C39.4348 41.7774 38.436 43.6441 36.9699 45.1089C35.5038 46.5736 33.6362 47.5706 31.6033 47.9738C29.5705 48.3769 27.4637 48.1681 25.5496 47.3737C23.6355 46.5792 21.9999 45.2349 20.8499 43.5108C19.7 41.7867 19.0872 39.7603 19.0891 37.6878C19.0891 36.3125 19.3601 34.9507 19.8867 33.6802C20.4133 32.4097 21.1852 31.2554 22.1581 30.2833C23.1311 29.3113 24.286 28.5405 25.557 28.0151C26.828 27.4897 28.1901 27.2199 29.5654 27.2211V27.2211ZM29.5654 26.2529C27.3011 26.251 25.0871 26.9208 23.2035 28.1776C21.32 29.4345 19.8516 31.2218 18.9842 33.3134C18.1168 35.405 17.8893 37.7069 18.3306 39.9279C18.7719 42.1488 19.8621 44.1889 21.4632 45.7901C23.0643 47.3912 25.1045 48.4814 27.3254 48.9227C29.5463 49.364 31.8483 49.1365 33.9399 48.2691C36.0315 47.4017 37.8188 45.9333 39.0756 44.0498C40.3325 42.1662 41.0023 39.9522 41.0004 37.6878C40.9953 34.6567 39.7889 31.7511 37.6455 29.6078C35.5022 27.4644 32.5966 26.258 29.5654 26.2529Z" fill="#F6F6F6"/>
</g>
<path d="M23.5914 5V17.7808" stroke="#0E6942" stroke-width="2" stroke-miterlimit="10" stroke-linecap="round"/>
<path d="M29.5655 5V17.7808" stroke="#0E6942" stroke-width="2" stroke-miterlimit="10" stroke-linecap="round"/>
<path d="M35.5395 5V17.7808" stroke="#0E6942" stroke-width="2" stroke-miterlimit="10" stroke-linecap="round"/>
<path d="M29.5655 33.4566C30.4046 33.4566 31.225 33.7056 31.9226 34.172C32.6202 34.6384 33.1638 35.3014 33.4845 36.0768C33.8052 36.8523 33.8886 37.7055 33.7242 38.5284C33.5597 39.3514 33.1549 40.107 32.5608 40.6997C31.9667 41.2924 31.2102 41.6956 30.3869 41.8581C29.5636 42.0207 28.7106 41.9353 27.9358 41.6128C27.1611 41.2903 26.4994 40.7453 26.0346 40.0466C25.5697 39.3479 25.3227 38.527 25.3246 37.6878C25.3246 37.1314 25.4343 36.5804 25.6476 36.0664C25.8608 35.5524 26.1734 35.0855 26.5673 34.6925C26.9612 34.2995 27.4288 33.988 27.9433 33.7759C28.4577 33.5639 29.009 33.4554 29.5655 33.4566V33.4566ZM29.5655 32.4884C28.5344 32.4865 27.5259 32.7906 26.6678 33.3622C25.8097 33.9339 25.1405 34.7474 24.745 35.6996C24.3496 36.6518 24.2456 37.7 24.4463 38.7114C24.647 39.7228 25.1433 40.6518 25.8724 41.3809C26.6015 42.11 27.5305 42.6063 28.5419 42.807C29.5533 43.0077 30.6015 42.9037 31.5537 42.5083C32.506 42.1128 33.3194 41.4436 33.8911 40.5855C34.4627 39.7274 34.7668 38.7189 34.7649 37.6878C34.7624 36.3096 34.2137 34.9886 33.2392 34.0141C32.2647 33.0396 30.9437 32.4909 29.5655 32.4884Z" fill="#F6F6F6"/>
<path d="M29.5655 36.6809C29.7546 36.6903 29.9368 36.7551 30.0896 36.8671C30.2423 36.979 30.3588 37.1334 30.4247 37.3109C30.4907 37.4884 30.5031 37.6814 30.4604 37.8659C30.4178 38.0505 30.3219 38.2184 30.1848 38.349C30.0476 38.4797 29.8752 38.5672 29.6888 38.6008C29.5024 38.6344 29.3103 38.6126 29.1362 38.5381C28.9621 38.4636 28.8136 38.3397 28.7092 38.1817C28.6048 38.0237 28.549 37.8385 28.5488 37.6491C28.5486 37.5178 28.5752 37.3878 28.6268 37.267C28.6785 37.1463 28.7542 37.0373 28.8493 36.9468C28.9444 36.8562 29.0569 36.7859 29.18 36.7402C29.3032 36.6945 29.4343 36.6743 29.5655 36.6809ZM29.5655 35.7126C29.1825 35.7126 28.8081 35.8262 28.4896 36.039C28.1711 36.2518 27.9229 36.5542 27.7764 36.9081C27.6298 37.2619 27.5915 37.6513 27.6662 38.0269C27.7409 38.4025 27.9253 38.7476 28.1961 39.0184C28.467 39.2892 28.812 39.4737 29.1877 39.5484C29.5633 39.6231 29.9527 39.5848 30.3065 39.4382C30.6604 39.2916 30.9628 39.0434 31.1756 38.725C31.3884 38.4065 31.5019 38.0321 31.5019 37.6491C31.4896 37.1394 31.2817 36.6539 30.9211 36.2934C30.5606 35.9329 30.0752 35.7249 29.5655 35.7126V35.7126Z" fill="#F6F6F6"/>
<path d="M29.5654 30.9779C30.8949 30.9779 32.1944 31.3723 33.2997 32.1111C34.4049 32.8498 35.2662 33.8999 35.7745 35.1283C36.2828 36.3567 36.4153 37.7083 36.1552 39.012C35.8951 40.3158 35.2542 41.5131 34.3135 42.4524C33.3728 43.3918 32.1745 44.031 30.8704 44.2892C29.5663 44.5474 28.2149 44.4129 26.9872 43.9028C25.7596 43.3928 24.7108 42.53 23.9736 41.4237C23.2364 40.3174 22.8439 39.0173 22.8458 37.6878C22.8458 36.8059 23.0197 35.9325 23.3575 35.1178C23.6953 34.3031 24.1905 33.563 24.8146 32.9398C25.4387 32.3166 26.1795 31.8225 26.9947 31.4859C27.8099 31.1493 28.6835 30.9767 29.5654 30.9779ZM29.5654 30.0097C28.0441 30.0078 26.5564 30.4573 25.2907 31.3013C24.0249 32.1453 23.0381 33.3459 22.455 34.751C21.8719 36.1562 21.7188 37.7028 22.0152 39.195C22.3115 40.6872 23.0439 42.0579 24.1196 43.1336C25.1954 44.2094 26.5661 44.9418 28.0583 45.2381C29.5505 45.5344 31.0971 45.3814 32.5022 44.7983C33.9074 44.2152 35.108 43.2284 35.952 41.9626C36.796 40.6969 37.2455 39.2092 37.2436 37.6878C37.241 35.6523 36.4313 33.7008 34.9919 32.2614C33.5525 30.822 31.601 30.0122 29.5654 30.0097V30.0097Z" fill="#F6F6F6"/>
<path d="M29.5655 28.8962C31.3043 28.8962 33.004 29.4118 34.4498 30.3779C35.8956 31.3439 37.0224 32.717 37.6879 34.3234C38.3533 35.9299 38.5274 37.6976 38.1882 39.403C37.8489 41.1084 37.0116 42.6749 35.7821 43.9045C34.5525 45.134 32.986 45.9713 31.2806 46.3105C29.5752 46.6498 27.8075 46.4757 26.201 45.8103C24.5946 45.1448 23.2215 44.018 22.2555 42.5722C21.2894 41.1264 20.7738 39.4267 20.7738 37.6878C20.7764 35.3569 21.7035 33.1222 23.3517 31.474C24.9999 29.8258 27.2346 28.8988 29.5655 28.8962ZM29.5655 27.928C27.6351 27.928 25.7482 28.5004 24.1432 29.5728C22.5382 30.6452 21.2872 32.1695 20.5485 33.9529C19.8098 35.7363 19.6165 37.6987 19.9931 39.5919C20.3697 41.4851 21.2992 43.2242 22.6642 44.5891C24.0291 45.9541 25.7682 46.8836 27.6614 47.2602C29.5546 47.6368 31.517 47.4435 33.3004 46.7048C35.0838 45.9661 36.6081 44.7151 37.6805 43.1101C38.7529 41.5051 39.3253 39.6182 39.3253 37.6878C39.3228 35.1001 38.2937 32.6192 36.4639 30.7894C34.6341 28.9596 32.1531 27.9305 29.5655 27.928V27.928Z" fill="#F6F6F6"/>
<defs>
<filter id="filter0_d" x="14.1111" y="22.2529" width="30.8892" height="30.8892" filterUnits="userSpaceOnUse" color-interpolation-filters="sRGB">
<feFlood flood-opacity="0" result="BackgroundImageFix"/>
<feColorMatrix in="SourceAlpha" type="matrix" values="0 0 0 0 0 0 0 0 0 0 0 0 0 0 0 0 0 0 127 0"/>
<feOffset/>
<feGaussianBlur stdDeviation="2"/>
<feColorMatrix type="matrix" values="0 0 0 0 0.980392 0 0 0 0 0.713726 0 0 0 0 0.235294 0 0 0 1 0"/>
<feBlend mode="normal" in2="BackgroundImageFix" result="effect1_dropShadow"/>
<feBlend mode="normal" in="SourceGraphic" in2="effect1_dropShadow" result="shape"/>
</filter>
</defs>
</svg>
