<?xml version="1.0" encoding="utf-8"?>
<!-- Generator: Adobe Illustrator 26.0.1, SVG Export Plug-In . SVG Version: 6.00 Build 0)  -->
<svg version="1.1" xmlns="http://www.w3.org/2000/svg" xmlns:xlink="http://www.w3.org/1999/xlink" x="0px" y="0px" width="22px"
	 height="22px" viewBox="0 0 22 22" style="enable-background:new 0 0 22 22;" xml:space="preserve">
<style type="text/css">
	.st0{fill:#FFFFFF;}
</style>
<g id="Laag_1">
	<rect x="0" y="0" width="22" height="22"/>
	<g>
		<polygon class="st0" points="14.3,0 0,0 0,22 22,22 		"/>
	</g>
</g>
<g id="icons">
	<path d="M9.2,2.1c0.1,0.1,0.2,0.5,0.2,0.8c0,0.3,0,0.6-0.1,0.7c-0.4,0.1-1,0.2-1.6,0.3v13.8H14c0.1-0.6,0.2-1.3,0.3-1.7
		c0.1-0.1,0.4-0.1,0.7-0.1c0.3,0,0.7,0.1,0.8,0.2c0,0.1,0.1,0.9,0.1,1.7v1.9h-10c-0.8,0-1.6-0.1-1.7-0.1c-0.1-0.1-0.2-0.5-0.2-0.8
		c0-0.3,0-0.6,0.1-0.7C4.6,18,5,17.9,5.6,17.8V3.9C5,3.8,4.6,3.7,4.2,3.6C4.1,3.5,4.1,3.2,4.1,2.9c0-0.3,0.1-0.7,0.2-0.8
		C4.3,2,5.2,2,5.9,2h1.6C8.3,2,9.1,2,9.2,2.1z"/>
</g>
</svg>
