<?xml version="1.0" encoding="utf-8"?>
<!-- Generator: Adobe Illustrator 26.0.1, SVG Export Plug-In . SVG Version: 6.00 Build 0)  -->
<svg version="1.1" xmlns="http://www.w3.org/2000/svg" xmlns:xlink="http://www.w3.org/1999/xlink" x="0px" y="0px" width="32px"
	 height="32px" viewBox="0 0 32 32" style="enable-background:new 0 0 32 32;" xml:space="preserve">
<style type="text/css">
	.st0{fill:#FFFFFF;}
</style>
<g id="Laag_1">
	<rect x="0" y="0" width="32" height="32"/>
	<g>
		<polygon class="st0" points="20.9,0 0,0 0,32 32,32 		"/>
	</g>
</g>
<g id="icons">
	<path d="M13.4,3c0.1,0.2,0.2,0.7,0.2,1.2c0,0.4-0.1,0.8-0.2,1c-0.6,0.2-1.5,0.3-2.3,0.4v20.1h9.3c0.1-0.9,0.3-1.9,0.4-2.5
		c0.2-0.1,0.6-0.2,1-0.2c0.5,0,1,0.1,1.2,0.2c0.1,0.1,0.1,1.4,0.1,2.5v2.8H8.6c-1.1,0-2.3-0.1-2.5-0.2c-0.1-0.2-0.2-0.7-0.2-1.2
		c0-0.4,0.1-0.8,0.2-1c0.5-0.1,1.2-0.3,2-0.4V5.6c-0.7-0.1-1.4-0.2-2-0.4C6,5.1,5.9,4.6,5.9,4.2c0-0.5,0.1-1,0.2-1.2
		C6.3,3,7.5,2.9,8.6,2.9h2.3C12,2.9,13.3,3,13.4,3z"/>
</g>
</svg>
