<?xml version="1.0" encoding="utf-8"?>
<!-- Generator: Adobe Illustrator 26.0.1, SVG Export Plug-In . SVG Version: 6.00 Build 0)  -->
<svg version="1.1" xmlns="http://www.w3.org/2000/svg" xmlns:xlink="http://www.w3.org/1999/xlink" x="0px" y="0px" width="16px"
	 height="16px" viewBox="0 0 16 16" style="enable-background:new 0 0 16 16;" xml:space="preserve">
<style type="text/css">
	.st0{fill:#FFFFFF;}
	.st1{fill:#15465B;}
</style>
<g id="Laag_1">
</g>
<g id="icons">
	<g>
		<rect x="0" y="0" class="st0" width="16" height="16"/>
		<g>
			<polygon class="st1" points="10.4,0 0,0 0,16 16,16 			"/>
		</g>
		<path class="st0" d="M6.7,1.5c0.1,0.1,0.1,0.3,0.1,0.6c0,0.2,0,0.4-0.1,0.5C6.4,2.7,6,2.8,5.6,2.8v10.1h4.6
			c0.1-0.5,0.1-0.9,0.2-1.3c0.1,0,0.3-0.1,0.5-0.1c0.3,0,0.5,0,0.6,0.1c0,0.1,0.1,0.7,0.1,1.2v1.4H4.3c-0.6,0-1.2,0-1.2-0.1
			C3,14.2,3,13.9,3,13.6c0-0.2,0-0.4,0.1-0.5c0.3-0.1,0.6-0.1,1-0.2V2.8c-0.4,0-0.7-0.1-1-0.2C3,2.5,3,2.3,3,2.1
			c0-0.3,0-0.5,0.1-0.6c0.1,0,0.7-0.1,1.2-0.1h1.1C6,1.5,6.6,1.5,6.7,1.5z"/>
	</g>
</g>
</svg>
