<?xml version="1.0" encoding="utf-8"?>
<!-- Generator: Adobe Illustrator 26.0.1, SVG Export Plug-In . SVG Version: 6.00 Build 0)  -->
<svg version="1.1" xmlns="http://www.w3.org/2000/svg" xmlns:xlink="http://www.w3.org/1999/xlink" x="0px" y="0px" width="24px"
	 height="24px" viewBox="0 0 24 24" style="enable-background:new 0 0 24 24;" xml:space="preserve">
<style type="text/css">
	.st0{fill:#FFFFFF;}
	.st1{fill:#15465B;}
</style>
<g id="Laag_1">
</g>
<g id="icons">
	<g>
		<rect x="0" y="0" class="st0" width="24" height="24"/>
		<g>
			<polygon class="st1" points="15.6,0 0,0 0,24 24,24 			"/>
		</g>
		<path class="st0" d="M10,2.3c0.1,0.1,0.2,0.5,0.2,0.9c0,0.3,0,0.6-0.1,0.8C9.6,4.1,9,4.2,8.3,4.3v15.1h7c0.1-0.7,0.2-1.4,0.3-1.9
			c0.1-0.1,0.5-0.1,0.8-0.1c0.4,0,0.8,0.1,0.9,0.2c0,0.1,0.1,1,0.1,1.8v2.1H6.5c-0.8,0-1.8-0.1-1.9-0.1c-0.1-0.1-0.2-0.5-0.2-0.9
			c0-0.3,0-0.6,0.1-0.8c0.4-0.1,0.9-0.2,1.5-0.3V4.2C5.5,4.1,5,4,4.6,3.9C4.5,3.8,4.5,3.5,4.5,3.2c0-0.4,0.1-0.8,0.2-0.9
			c0.1-0.1,1-0.1,1.9-0.1h1.7C9,2.2,9.9,2.2,10,2.3z"/>
	</g>
</g>
</svg>
