<?xml version="1.0" encoding="utf-8"?>
<!-- Generator: Adobe Illustrator 26.0.1, SVG Export Plug-In . SVG Version: 6.00 Build 0)  -->
<svg version="1.1" xmlns="http://www.w3.org/2000/svg" xmlns:xlink="http://www.w3.org/1999/xlink" x="0px" y="0px" width="30px"
	 height="30px" viewBox="0 0 30 30" style="enable-background:new 0 0 30 30;" xml:space="preserve">
<style type="text/css">
	.st0{fill:#FFFFFF;}
</style>
<g id="Laag_1">
	<rect x="0" y="0" width="30" height="30"/>
	<g>
		<polygon class="st0" points="19.6,0 0,0 0,30 30,30 		"/>
	</g>
</g>
<g id="icons">
	<path d="M12.6,2.8C12.7,3,12.8,3.5,12.8,4c0,0.4-0.1,0.8-0.2,1c-0.6,0.1-1.4,0.3-2.2,0.4v18.9h8.7c0.1-0.9,0.3-1.7,0.4-2.4
		c0.2-0.1,0.6-0.1,1-0.1c0.5,0,1,0.1,1.1,0.2c0.1,0.1,0.1,1.3,0.1,2.3v2.6H8.1c-1,0-2.2-0.1-2.3-0.1c-0.1-0.1-0.2-0.6-0.2-1.1
		c0-0.4,0.1-0.8,0.2-1c0.5-0.1,1.2-0.2,1.8-0.3v-19C6.9,5.2,6.2,5,5.7,4.9C5.6,4.7,5.6,4.3,5.6,4c0-0.5,0.1-1,0.2-1.1
		c0.1-0.1,1.3-0.1,2.3-0.1h2.1C11.3,2.7,12.4,2.8,12.6,2.8z"/>
</g>
</svg>
