<?xml version="1.0" encoding="utf-8"?>
<!-- Generator: Adobe Illustrator 26.0.1, SVG Export Plug-In . SVG Version: 6.00 Build 0)  -->
<svg version="1.1" xmlns="http://www.w3.org/2000/svg" xmlns:xlink="http://www.w3.org/1999/xlink" x="0px" y="0px" width="20px"
	 height="20px" viewBox="0 0 20 20" style="enable-background:new 0 0 20 20;" xml:space="preserve">
<style type="text/css">
	.st0{fill:#FFFFFF;}
	.st1{fill:#15465B;}
</style>
<g id="Laag_1">
</g>
<g id="icons">
	<g>
		<rect x="0" y="0" class="st0" width="20" height="20"/>
		<g>
			<polygon class="st1" points="13,0 0,0 0,20 20,20 			"/>
		</g>
		<path class="st0" d="M8.4,1.9C8.5,2,8.5,2.3,8.5,2.7c0,0.3,0,0.5-0.1,0.6C8,3.4,7.5,3.5,6.9,3.6v12.6h5.8c0.1-0.6,0.2-1.2,0.3-1.6
			c0.1-0.1,0.4-0.1,0.6-0.1c0.3,0,0.6,0,0.7,0.1c0,0.1,0.1,0.9,0.1,1.5v1.8H5.4c-0.7,0-1.5,0-1.6-0.1c-0.1-0.1-0.1-0.4-0.1-0.7
			c0-0.3,0-0.5,0.1-0.6c0.3-0.1,0.8-0.2,1.2-0.2V3.5C4.6,3.5,4.2,3.4,3.8,3.3C3.7,3.2,3.7,2.9,3.7,2.7c0-0.3,0.1-0.6,0.1-0.7
			c0.1,0,0.9-0.1,1.6-0.1h1.4C7.5,1.8,8.3,1.9,8.4,1.9z"/>
	</g>
</g>
</svg>
