<?xml version="1.0" encoding="utf-8"?>
<!-- Generator: Adobe Illustrator 26.0.1, SVG Export Plug-In . SVG Version: 6.00 Build 0)  -->
<svg version="1.1" xmlns="http://www.w3.org/2000/svg" xmlns:xlink="http://www.w3.org/1999/xlink" x="0px" y="0px" width="36px"
	 height="36px" viewBox="0 0 36 36" style="enable-background:new 0 0 36 36;" xml:space="preserve">
<style type="text/css">
	.st0{fill:#FFFFFF;}
</style>
<g id="Laag_1">
	<rect x="0" y="0" width="36" height="36"/>
	<g>
		<polygon class="st0" points="23.5,0 0,0 0,36 36,36 		"/>
	</g>
</g>
<g id="icons">
	<path d="M15.1,3.4c0.2,0.2,0.3,0.8,0.3,1.3c0,0.5-0.1,0.9-0.2,1.1c-0.7,0.2-1.6,0.4-2.6,0.5V29h10.4c0.1-1.1,0.3-2.1,0.5-2.9
		c0.2-0.1,0.7-0.2,1.2-0.2c0.6,0,1.2,0.1,1.3,0.3c0.1,0.1,0.2,1.5,0.2,2.8v3.2H9.7c-1.3,0-2.6-0.1-2.8-0.2c-0.2-0.2-0.3-0.8-0.3-1.3
		c0-0.5,0.1-0.9,0.2-1.1c0.6-0.1,1.4-0.3,2.2-0.4V6.3C8.3,6.2,7.5,6,6.9,5.9C6.7,5.7,6.7,5.2,6.7,4.7c0-0.6,0.1-1.2,0.3-1.3
		c0.2-0.1,1.5-0.2,2.8-0.2h2.5C13.5,3.2,14.9,3.3,15.1,3.4z"/>
</g>
</svg>
